Jinko-LightFF.ufo
<glyph name="exclam" format="1">
  <advance width="426"/>
  <unicode hex="0021"/>
  <outline>
    <contour>
      <point x="194" y="469" type="line" smooth="no"/>
      <point x="129" y="1481" type="line" smooth="no"/>
      <point x="298" y="1481" type="line" smooth="no"/>
      <point x="236" y="469" type="line" smooth="no"/>
    </contour>
    <contour>
      <point x="213" y="3" type="curve" smooth="yes"/>
      <point x="140" y="3"/>
      <point x="77" y="61"/>
      <point x="77" y="136" type="curve" smooth="yes"/>
      <point x="77" y="210"/>
      <point x="140" y="269"/>
      <point x="213" y="269" type="curve" smooth="yes"/>
      <point x="286" y="269"/>
      <point x="350" y="210"/>
      <point x="350" y="136" type="curve" smooth="yes"/>
      <point x="350" y="61"/>
      <point x="286" y="3"/>
    </contour>
  </outline>
</glyph>
<glyph name="quotedbl" format="1">
  <advance width="753"/>
  <unicode hex="0022"/>
  <outline>
    <contour>
      <point x="524" y="937" type="line" smooth="no"/>
      <point x="479" y="1481" type="line" smooth="no"/>
      <point x="657" y="1481" type="line" smooth="no"/>
      <point x="614" y="937" type="line" smooth="no"/>
    </contour>
    <contour>
      <point x="135" y="937" type="line" smooth="no"/>
      <point x="96" y="1481" type="line" smooth="no"/>
      <point x="270" y="1481" type="line" smooth="no"/>
      <point x="230" y="937" type="line" smooth="no"/>
    </contour>
  </outline>
</glyph>
<glyph name="numbersign" format="1">
  <advance width="1209"/>
  <unicode hex="0023"/>
  <outline>
    <contour>
      <point x="397" y="531" type="line" smooth="no"/>
      <point x="733" y="531" type="line" smooth="no"/>
      <point x="844" y="1025" type="line" smooth="no"/>
      <point x="508" y="1025" type="line" smooth="no"/>
    </contour>
    <contour>
      <point x="192" y="70" type="line" smooth="no"/>
      <point x="281" y="479" type="line" smooth="no"/>
      <point x="34" y="479" type="line" smooth="no"/>
      <point x="34" y="530" type="line" smooth="no"/>
      <point x="293" y="530" type="line" smooth="no"/>
      <point x="404" y="1024" type="line" smooth="no"/>
      <point x="112" y="1024" type="line" smooth="no"/>
      <point x="112" y="1071" type="line" smooth="no"/>
      <point x="416" y="1071" type="line" smooth="no"/>
      <point x="489" y="1390" type="line" smooth="no"/>
      <point x="592" y="1390" type="line" smooth="no"/>
      <point x="522" y="1071" type="line" smooth="no"/>
      <point x="855" y="1071" type="line" smooth="no"/>
      <point x="924" y="1390" type="line" smooth="no"/>
      <point x="1026" y="1390" type="line" smooth="no"/>
      <point x="957" y="1071" type="line" smooth="no"/>
      <point x="1172" y="1071" type="line" smooth="no"/>
      <point x="1172" y="1024" type="line" smooth="no"/>
      <point x="941" y="1024" type="line" smooth="no"/>
      <point x="832" y="530" type="line" smooth="no"/>
      <point x="1116" y="530" type="line" smooth="no"/>
      <point x="1116" y="479" type="line" smooth="no"/>
      <point x="817" y="479" type="line" smooth="no"/>
      <point x="728" y="70" type="line" smooth="no"/>
      <point x="630" y="70" type="line" smooth="no"/>
      <point x="717" y="479" type="line" smooth="no"/>
      <point x="382" y="479" type="line" smooth="no"/>
      <point x="296" y="70" type="line" smooth="no"/>
    </contour>
  </outline>
</glyph>
<glyph name="percent" format="1">
  <advance width="1560"/>
  <unicode hex="0025"/>
  <outline>
    <contour>
      <point x="1324" y="1" type="curve" smooth="yes"/>
      <point x="1093" y="1"/>
      <point x="1062" y="136"/>
      <point x="1062" y="359" type="curve" smooth="yes"/>
      <point x="1062" y="581"/>
      <point x="1092" y="720"/>
      <point x="1324" y="723" type="curve" smooth="no"/>
      <point x="1556" y="721"/>
      <point x="1587" y="589"/>
      <point x="1587" y="369" type="curve" smooth="yes"/>
      <point x="1587" y="144"/>
      <point x="1548" y="1"/>
    </contour>
    <contour>
      <point x="1324" y="16" type="curve" smooth="yes"/>
      <point x="1472" y="16"/>
      <point x="1556" y="74"/>
      <point x="1556" y="378" type="curve" smooth="yes"/>
      <point x="1556" y="664"/>
      <point x="1483" y="717"/>
      <point x="1327" y="717" type="curve" smooth="no"/>
      <point x="1174" y="719"/>
      <point x="1097" y="674"/>
      <point x="1097" y="363" type="curve" smooth="yes"/>
      <point x="1097" y="80"/>
      <point x="1168" y="16"/>
    </contour>
    <contour>
      <point x="377" y="0" type="line" smooth="no"/>
      <point x="1110" y="1459" type="line" smooth="no"/>
      <point x="1162" y="1459" type="line" smooth="no"/>
      <point x="434" y="0" type="line" smooth="no"/>
    </contour>
    <contour>
      <point x="235" y="736" type="curve" smooth="yes"/>
      <point x="4" y="736"/>
      <point x="-26" y="869"/>
      <point x="-26" y="1091" type="curve" smooth="yes"/>
      <point x="-26" y="1282"/>
      <point x="-2" y="1411"/>
      <point x="150" y="1446" type="curve" smooth="no"/>
      <point x="55" y="1422"/>
      <point x="5" y="1340"/>
      <point x="5" y="1094" type="curve" smooth="yes"/>
      <point x="5" y="812"/>
      <point x="82" y="749"/>
      <point x="238" y="749" type="curve" smooth="yes"/>
      <point x="388" y="749"/>
      <point x="464" y="807"/>
      <point x="464" y="1110" type="curve" smooth="yes"/>
      <point x="464" y="1397"/>
      <point x="391" y="1455"/>
      <point x="235" y="1455" type="curve" smooth="yes"/>
      <point x="218" y="1455"/>
      <point x="201" y="1455"/>
      <point x="186" y="1453" type="curve" smooth="no"/>
      <point x="202" y="1455"/>
      <point x="220" y="1456"/>
      <point x="238" y="1456" type="curve" smooth="yes"/>
      <point x="470" y="1456"/>
      <point x="493" y="1322"/>
      <point x="493" y="1102" type="curve" smooth="yes"/>
      <point x="493" y="878"/>
      <point x="459" y="736"/>
    </contour>
    <contour>
      <point x="150" y="1446" type="curve" smooth="no"/>
      <point x="161" y="1449"/>
      <point x="173" y="1451"/>
      <point x="186" y="1453" type="curve" smooth="no"/>
      <point x="173" y="1452"/>
      <point x="161" y="1449"/>
    </contour>
  </outline>
</glyph>
<glyph name="ampersand" format="1">
  <advance width="1375"/>
  <unicode hex="0026"/>
  <outline>
    <contour>
      <point x="451" y="846" type="curve" smooth="no"/>
      <point x="755" y="935"/>
      <point x="898" y="1059"/>
      <point x="898" y="1178" type="curve" smooth="yes"/>
      <point x="898" y="1277"/>
      <point x="862" y="1418"/>
      <point x="585" y="1418" type="curve" smooth="no"/>
      <point x="344" y="1405"/>
      <point x="268" y="1319"/>
      <point x="263" y="1166" type="curve" smooth="no"/>
      <point x="271" y="1087"/>
      <point x="311" y="1000"/>
    </contour>
    <contour>
      <point x="604" y="81" type="curve" smooth="yes"/>
      <point x="772" y="81"/>
      <point x="858" y="115"/>
      <point x="972" y="183" type="curve" smooth="no"/>
      <point x="1081" y="75"/>
      <point x="520" y="643"/>
      <point x="424" y="741" type="curve" smooth="no"/>
      <point x="324" y="689"/>
      <point x="167" y="522"/>
      <point x="167" y="355" type="curve" smooth="yes"/>
      <point x="167" y="206"/>
      <point x="282" y="81"/>
    </contour>
    <contour>
      <point x="591" y="-23" type="curve" smooth="yes"/>
      <point x="319" y="-23"/>
      <point x="65" y="92"/>
      <point x="65" y="354" type="curve" smooth="yes"/>
      <point x="65" y="478"/>
      <point x="131" y="697"/>
      <point x="365" y="807" type="curve" smooth="no"/>
      <point x="276" y="890"/>
      <point x="165" y="1049"/>
      <point x="165" y="1190" type="curve" smooth="yes"/>
      <point x="165" y="1353"/>
      <point x="261" y="1503"/>
      <point x="613" y="1503" type="curve" smooth="yes"/>
      <point x="897" y="1503"/>
      <point x="1017" y="1341"/>
      <point x="995" y="1150" type="curve" smooth="no"/>
      <point x="987" y="1039"/>
      <point x="867" y="884"/>
      <point x="510" y="779" type="curve" smooth="no"/>
      <point x="566" y="723"/>
      <point x="986" y="294"/>
      <point x="1040" y="238" type="curve" smooth="no"/>
      <point x="1078" y="292"/>
      <point x="1173" y="364"/>
      <point x="1212" y="593" type="curve" smooth="no"/>
      <point x="1298" y="582" type="line" smooth="no"/>
      <point x="1270" y="414"/>
      <point x="1183" y="262"/>
      <point x="1106" y="174" type="curve" smooth="no"/>
      <point x="1105" y="177"/>
      <point x="1319" y="0"/>
      <point x="1319" y="0" type="curve" smooth="no"/>
      <point x="1176" y="0" type="line" smooth="no"/>
      <point x="1176" y="0"/>
      <point x="1131" y="39"/>
      <point x="1056" y="109" type="curve" smooth="no"/>
      <point x="927" y="8"/>
      <point x="748" y="-23"/>
    </contour>
  </outline>
</glyph>
<glyph name="quotesingle" format="1">
  <advance width="375"/>
  <unicode hex="0027"/>
  <outline>
    <contour>
      <point x="134" y="908" type="line" smooth="no"/>
      <point x="94" y="1481" type="line" smooth="no"/>
      <point x="288" y="1481" type="line" smooth="no"/>
      <point x="205" y="908" type="line" smooth="no"/>
    </contour>
  </outline>
</glyph>
<glyph name="parenleft" format="1">
  <advance width="542"/>
  <unicode hex="0028"/>
  <outline>
    <contour>
      <point x="480.4" y="-305" type="line" smooth="no"/>
      <point x="480.4" y="-276" type="line" smooth="no"/>
      <point x="301.951" y="-55.5635"/>
      <point x="214.233" y="235.604"/>
      <point x="214.233" y="526.536" type="curve" smooth="yes"/>
      <point x="214.233" y="820.28"/>
      <point x="303.656" y="1113.78"/>
      <point x="479.4" y="1334" type="curve" smooth="no"/>
      <point x="479.4" y="1359" type="line" smooth="no"/>
      <point x="367.4" y="1359" type="line" smooth="no"/>
      <point x="172.305" y="1122.24"/>
      <point x="73" y="824.637"/>
      <point x="73" y="525.967" type="curve" smooth="yes"/>
      <point x="73" y="230.779"/>
      <point x="170.003" y="-65.4482"/>
      <point x="367.4" y="-305" type="curve" smooth="no"/>
    </contour>
  </outline>
</glyph>
<glyph name="parenright" format="1">
  <advance width="543"/>
  <unicode hex="0029"/>
  <outline>
    <contour>
      <point x="64" y="-305" type="line" smooth="no"/>
      <point x="64" y="-276" type="line" smooth="no"/>
      <point x="242.449" y="-55.5635"/>
      <point x="330.167" y="235.604"/>
      <point x="330.167" y="526.536" type="curve" smooth="yes"/>
      <point x="330.167" y="820.28"/>
      <point x="240.744" y="1113.78"/>
      <point x="65" y="1334" type="curve" smooth="no"/>
      <point x="65" y="1359" type="line" smooth="no"/>
      <point x="177" y="1359" type="line" smooth="no"/>
      <point x="372.096" y="1122.24"/>
      <point x="471.4" y="824.637"/>
      <point x="471.4" y="525.967" type="curve" smooth="yes"/>
      <point x="471.4" y="230.779"/>
      <point x="374.397" y="-65.4482"/>
      <point x="177" y="-305" type="curve" smooth="no"/>
    </contour>
  </outline>
</glyph>
<glyph name="asterisk" format="1">
  <advance width="992"/>
  <unicode hex="002a"/>
  <outline>
    <contour>
      <point x="476" y="589" type="curve" smooth="no"/>
      <point x="436" y="599"/>
      <point x="395" y="632"/>
      <point x="395" y="692" type="curve" smooth="yes"/>
      <point x="395" y="775"/>
      <point x="439" y="877"/>
      <point x="452" y="959" type="curve" smooth="no"/>
      <point x="449" y="956"/>
      <point x="440" y="951"/>
      <point x="434" y="946" type="curve" smooth="yes"/>
      <point x="360" y="876"/>
      <point x="274" y="757"/>
      <point x="191" y="751" type="curve" smooth="no"/>
      <point x="145" y="763"/>
      <point x="103" y="807"/>
      <point x="93" y="859" type="curve" smooth="no"/>
      <point x="103" y="978"/>
      <point x="301" y="986"/>
      <point x="414" y="1034" type="curve" smooth="no"/>
      <point x="299" y="1083"/>
      <point x="98" y="1092"/>
      <point x="93" y="1211" type="curve" smooth="no"/>
      <point x="103" y="1259"/>
      <point x="145" y="1305"/>
      <point x="191" y="1318" type="curve" smooth="no"/>
      <point x="211" y="1316"/>
      <point x="231" y="1309"/>
      <point x="252" y="1296" type="curve" smooth="yes"/>
      <point x="323" y="1254"/>
      <point x="388" y="1161"/>
      <point x="453" y="1109" type="curve" smooth="no"/>
      <point x="443" y="1204"/>
      <point x="393" y="1304"/>
      <point x="393" y="1400" type="curve" smooth="no"/>
      <point x="405" y="1447"/>
      <point x="448" y="1477"/>
      <point x="484" y="1477" type="curve" smooth="no"/>
      <point x="540" y="1483"/>
      <point x="598" y="1451"/>
      <point x="598" y="1375" type="curve" smooth="yes"/>
      <point x="598" y="1289"/>
      <point x="556" y="1196"/>
      <point x="540" y="1110" type="curve" smooth="no"/>
      <point x="545" y="1113"/>
      <point x="550" y="1117"/>
      <point x="556" y="1122" type="curve" smooth="yes"/>
      <point x="630" y="1191"/>
      <point x="714" y="1312"/>
      <point x="801" y="1318" type="curve" smooth="no"/>
      <point x="847" y="1305"/>
      <point x="888" y="1259"/>
      <point x="898" y="1211" type="curve" smooth="no"/>
      <point x="893" y="1094"/>
      <point x="689" y="1083"/>
      <point x="578" y="1034" type="curve" smooth="no"/>
      <point x="690" y="984"/>
      <point x="888" y="982"/>
      <point x="898" y="859" type="curve" smooth="no"/>
      <point x="888" y="807"/>
      <point x="845" y="763"/>
      <point x="801" y="751" type="curve" smooth="no"/>
      <point x="781" y="753"/>
      <point x="761" y="759"/>
      <point x="740" y="771" type="curve" smooth="yes"/>
      <point x="671" y="813"/>
      <point x="599" y="907"/>
      <point x="539" y="958" type="curve" smooth="no"/>
      <point x="555" y="869"/>
      <point x="599" y="760"/>
      <point x="599" y="668" type="curve" smooth="no"/>
      <point x="585" y="616"/>
      <point x="529" y="589"/>
    </contour>
  </outline>
</glyph>
<glyph name="plus" format="1">
  <advance width="1146"/>
  <unicode hex="002b"/>
  <outline>
    <contour>
      <point x="535" y="148" type="line" smooth="no"/>
      <point x="535" y="502" type="line" smooth="no"/>
      <point x="147" y="502" type="line" smooth="no"/>
      <point x="147" y="598" type="line" smooth="no"/>
      <point x="535" y="598" type="line" smooth="no"/>
      <point x="535" y="964" type="line" smooth="no"/>
      <point x="617" y="964" type="line" smooth="no"/>
      <point x="617" y="598" type="line" smooth="no"/>
      <point x="998" y="598" type="line" smooth="no"/>
      <point x="998" y="502" type="line" smooth="no"/>
      <point x="617" y="502" type="line" smooth="no"/>
      <point x="617" y="148" type="line" smooth="no"/>
    </contour>
  </outline>
</glyph>
<glyph name="comma" format="1">
  <advance width="331"/>
  <unicode hex="002c"/>
  <outline>
    <contour>
      <point x="102" y="-186" type="line" smooth="no"/>
      <point x="131" y="304" type="line" smooth="no"/>
      <point x="293" y="304" type="line" smooth="no"/>
      <point x="180" y="-186" type="line" smooth="no"/>
    </contour>
  </outline>
</glyph>
<glyph name="hyphen" format="1">
  <advance width="759"/>
  <unicode hex="002d"/>
  <outline>
    <contour>
      <point x="106" y="638" type="line" smooth="no"/>
      <point x="106" y="756" type="line" smooth="no"/>
      <point x="652" y="756" type="line" smooth="no"/>
      <point x="652" y="638" type="line" smooth="no"/>
    </contour>
  </outline>
</glyph>
<glyph name="period" format="1">
  <advance width="473"/>
  <unicode hex="002e"/>
  <outline>
    <contour>
      <point x="244" y="6" type="curve" smooth="yes"/>
      <point x="172" y="6"/>
      <point x="113" y="61"/>
      <point x="113" y="133" type="curve" smooth="yes"/>
      <point x="113" y="201"/>
      <point x="172" y="258"/>
      <point x="244" y="258" type="curve" smooth="yes"/>
      <point x="313" y="258"/>
      <point x="370" y="201"/>
      <point x="370" y="133" type="curve" smooth="yes"/>
      <point x="370" y="61"/>
      <point x="313" y="6"/>
    </contour>
  </outline>
</glyph>
<glyph name="slash" format="1">
  <advance width="871"/>
  <unicode hex="002f"/>
  <outline>
    <contour>
      <point x="-36" y="0" type="line" smooth="no"/>
      <point x="823" y="1482" type="line" smooth="no"/>
      <point x="902" y="1482" type="line" smooth="no"/>
      <point x="52" y="0" type="line" smooth="no"/>
    </contour>
  </outline>
</glyph>
<glyph name="zero" format="1">
  <advance width="1278"/>
  <unicode hex="0030"/>
  <outline>
    <contour>
      <point x="652" y="-23" type="curve" smooth="yes"/>
      <point x="245" y="-23"/>
      <point x="130" y="241"/>
      <point x="130" y="711" type="curve" smooth="yes"/>
      <point x="130" y="1213"/>
      <point x="228" y="1503"/>
      <point x="652" y="1503" type="curve" smooth="yes"/>
      <point x="1057" y="1503"/>
      <point x="1173" y="1223"/>
      <point x="1173" y="733" type="curve" smooth="yes"/>
      <point x="1173" y="253"/>
      <point x="1085" y="-23"/>
    </contour>
    <contour>
      <point x="652" y="81" type="curve" smooth="yes"/>
      <point x="1021" y="81"/>
      <point x="1043" y="401"/>
      <point x="1043" y="724" type="curve" smooth="yes"/>
      <point x="1043" y="1068"/>
      <point x="1006" y="1398"/>
      <point x="652" y="1398" type="curve" smooth="yes"/>
      <point x="301" y="1398"/>
      <point x="263" y="1077"/>
      <point x="263" y="724" type="curve" smooth="yes"/>
      <point x="263" y="382"/>
      <point x="290" y="81"/>
    </contour>
  </outline>
</glyph>
<glyph name="one" format="1">
  <advance width="871"/>
  <unicode hex="0031"/>
  <outline>
    <contour>
      <point x="126" y="0" type="line" smooth="no"/>
      <point x="126" y="95" type="line" smooth="no"/>
      <point x="421" y="95" type="line" smooth="no"/>
      <point x="421" y="1289" type="line" smooth="no"/>
      <point x="144" y="1224" type="line" smooth="no"/>
      <point x="144" y="1328" type="line" smooth="no"/>
      <point x="411" y="1376"/>
      <point x="453" y="1414"/>
      <point x="479" y="1481" type="curve" smooth="no"/>
      <point x="548" y="1481" type="line" smooth="no"/>
      <point x="548" y="95" type="line" smooth="no"/>
      <point x="838" y="95" type="line" smooth="no"/>
      <point x="838" y="0" type="line" smooth="no"/>
    </contour>
  </outline>
</glyph>
<glyph name="two" format="1">
  <advance width="1197"/>
  <unicode hex="0032"/>
  <outline>
    <contour>
      <point x="137" y="0" type="line" smooth="no"/>
      <point x="137" y="134" type="line" smooth="no"/>
      <point x="656" y="634"/>
      <point x="940" y="858"/>
      <point x="940" y="1092" type="curve" smooth="no"/>
      <point x="931" y="1233"/>
      <point x="898" y="1411"/>
      <point x="613" y="1411" type="curve" smooth="yes"/>
      <point x="360" y="1411"/>
      <point x="204" y="1292"/>
      <point x="186" y="1275" type="curve" smooth="no"/>
      <point x="159" y="1372" type="line" smooth="no"/>
      <point x="234" y="1438"/>
      <point x="450" y="1503"/>
      <point x="613" y="1503" type="curve" smooth="yes"/>
      <point x="916" y="1503"/>
      <point x="1071" y="1363"/>
      <point x="1071" y="1134" type="curve" smooth="yes"/>
      <point x="1071" y="841"/>
      <point x="788" y="595"/>
      <point x="241" y="95" type="curve" smooth="no"/>
      <point x="1046" y="95" type="line" smooth="no"/>
      <point x="1046" y="0" type="line" smooth="no"/>
    </contour>
    <contour>
      <point x="186" y="1275" type="line" smooth="no"/>
      <point x="184" y="1273"/>
      <point x="183" y="1272"/>
      <point x="186" y="1274" type="curve" smooth="no"/>
    </contour>
  </outline>
</glyph>
<glyph name="four" format="1">
  <advance width="1152"/>
  <unicode hex="0034"/>
  <outline>
    <contour>
      <point x="198" y="443" type="line" smooth="no"/>
      <point x="819" y="443" type="line" smooth="no"/>
      <point x="819" y="1340" type="line" smooth="no"/>
    </contour>
    <contour>
      <point x="819" y="0" type="line" smooth="no"/>
      <point x="819" y="343" type="line" smooth="no"/>
      <point x="69" y="343" type="line" smooth="no"/>
      <point x="69" y="455" type="line" smooth="no"/>
      <point x="794" y="1481" type="line" smooth="no"/>
      <point x="948" y="1481" type="line" smooth="no"/>
      <point x="948" y="443" type="line" smooth="no"/>
      <point x="1099" y="443" type="line" smooth="no"/>
      <point x="1099" y="343" type="line" smooth="no"/>
      <point x="948" y="343" type="line" smooth="no"/>
      <point x="948" y="0" type="line" smooth="no"/>
    </contour>
  </outline>
</glyph>
<glyph name="five" format="1">
  <advance width="1244"/>
  <unicode hex="0035"/>
  <outline>
    <contour>
      <point x="607" y="-23" type="curve" smooth="yes"/>
      <point x="406" y="-23"/>
      <point x="265" y="19"/>
      <point x="165" y="67" type="curve" smooth="no"/>
      <point x="165" y="170" type="line" smooth="no"/>
      <point x="209" y="170" type="line" smooth="yes"/>
      <point x="227" y="170"/>
      <point x="273" y="72"/>
      <point x="597" y="72" type="curve" smooth="yes"/>
      <point x="892" y="72"/>
      <point x="999" y="237"/>
      <point x="999" y="381" type="curve" smooth="yes"/>
      <point x="999" y="585"/>
      <point x="967" y="795"/>
      <point x="324" y="837" type="curve" smooth="no"/>
      <point x="390" y="830"/>
      <point x="202" y="848"/>
      <point x="202" y="848" type="curve" smooth="no"/>
      <point x="202" y="1481" type="line" smooth="no"/>
      <point x="963" y="1481" type="line" smooth="no"/>
      <point x="963" y="1386" type="line" smooth="no"/>
      <point x="320" y="1386" type="line" smooth="no"/>
      <point x="320" y="927" type="line" smooth="no"/>
      <point x="320" y="927"/>
      <point x="378" y="921"/>
      <point x="415" y="919" type="curve" smooth="yes"/>
      <point x="907" y="899"/>
      <point x="1123" y="693"/>
      <point x="1123" y="413" type="curve" smooth="yes"/>
      <point x="1123" y="140"/>
      <point x="925" y="-23"/>
    </contour>
  </outline>
</glyph>
<glyph name="six" format="1">
  <advance width="1257"/>
  <unicode hex="0036"/>
  <outline>
    <contour>
      <point x="617" y="72" type="curve" smooth="yes"/>
      <point x="913" y="72"/>
      <point x="992" y="260"/>
      <point x="992" y="447" type="curve" smooth="yes"/>
      <point x="992" y="587"/>
      <point x="907" y="777"/>
      <point x="662" y="777" type="curve" smooth="no"/>
      <point x="399" y="779"/>
      <point x="282" y="637"/>
      <point x="282" y="413" type="curve" smooth="yes"/>
      <point x="282" y="262"/>
      <point x="392" y="72"/>
    </contour>
    <contour>
      <point x="637" y="-23" type="curve" smooth="yes"/>
      <point x="350" y="-23"/>
      <point x="137" y="175"/>
      <point x="137" y="522" type="curve" smooth="yes"/>
      <point x="137" y="938"/>
      <point x="394" y="1483"/>
      <point x="852" y="1480" type="curve" smooth="yes"/>
      <point x="861" y="1480"/>
      <point x="883" y="1382"/>
      <point x="883" y="1382" type="curve" smooth="no"/>
      <point x="525" y="1406"/>
      <point x="299" y="995"/>
      <point x="248" y="649" type="curve" smooth="no"/>
      <point x="324" y="843"/>
      <point x="566" y="870"/>
      <point x="652" y="870" type="curve" smooth="yes"/>
      <point x="880" y="870"/>
      <point x="1116" y="716"/>
      <point x="1116" y="442" type="curve" smooth="yes"/>
      <point x="1116" y="167"/>
      <point x="910" y="-23"/>
    </contour>
  </outline>
</glyph>
<glyph name="seven" format="1">
  <advance width="1107"/>
  <unicode hex="0037"/>
  <outline>
    <contour>
      <point x="359" y="0" type="line" smooth="no"/>
      <point x="872" y="1386" type="line" smooth="no"/>
      <point x="242" y="1386" type="line" smooth="no"/>
      <point x="242" y="1160" type="line" smooth="no"/>
      <point x="114" y="1160" type="line" smooth="no"/>
      <point x="114" y="1481" type="line" smooth="no"/>
      <point x="989" y="1481" type="line" smooth="no"/>
      <point x="989" y="1391" type="line" smooth="no"/>
      <point x="478" y="0" type="line" smooth="no"/>
    </contour>
  </outline>
</glyph>
<glyph name="eight" format="1">
  <advance width="1226"/>
  <unicode hex="0038"/>
  <outline>
    <contour>
      <point x="752" y="850"/>
      <point x="985" y="1004"/>
      <point x="985" y="1211" type="curve" smooth="yes"/>
      <point x="985.0" y="1351.46315789"/>
      <point x="830.0" y="1398.0"/>
      <point x="638" y="1398" type="curve" smooth="yes"/>
      <point x="545" y="1398"/>
      <point x="274" y="1396"/>
      <point x="274" y="1184" type="curve" smooth="yes"/>
      <point x="274" y="1061"/>
      <point x="530" y="899"/>
      <point x="711" y="813" type="curve"/>
    </contour>
    <contour>
      <point x="942" y="82"/>
      <point x="1005" y="263"/>
      <point x="1005" y="369" type="curve" smooth="yes"/>
      <point x="1005" y="518"/>
      <point x="866" y="627"/>
      <point x="612" y="755" type="curve"/>
      <point x="532" y="714"/>
      <point x="222" y="540"/>
      <point x="222" y="332" type="curve" smooth="yes"/>
      <point x="222" y="187"/>
      <point x="337" y="82"/>
      <point x="621" y="82" type="curve" smooth="yes"/>
    </contour>
    <contour>
      <point x="258" y="-22"/>
      <point x="96" y="140"/>
      <point x="96" y="316" type="curve" smooth="yes"/>
      <point x="96" y="557"/>
      <point x="375" y="725"/>
      <point x="536" y="809" type="curve"/>
      <point x="261" y="952"/>
      <point x="147" y="1059"/>
      <point x="147" y="1192" type="curve" smooth="yes"/>
      <point x="147" y="1368"/>
      <point x="329" y="1502"/>
      <point x="627" y="1502" type="curve" smooth="yes"/>
      <point x="946" y="1502"/>
      <point x="1096" y="1386"/>
      <point x="1096" y="1212" type="curve" smooth="yes"/>
      <point x="1096.0" y="1041.8941506"/>
      <point x="1001.84187629" y="920.728809324"/>
      <point x="784" y="766" type="curve"/>
      <point x="972.646641216" y="656.128879292"/>
      <point x="1130.0" y="519.293507725"/>
      <point x="1130" y="349" type="curve" smooth="yes"/>
      <point x="1130" y="116"/>
      <point x="925" y="-22"/>
      <point x="607" y="-22" type="curve" smooth="yes"/>
    </contour>
  </outline>
</glyph>
<glyph name="colon" format="1">
  <advance width="475"/>
  <unicode hex="003a"/>
  <outline>
    <contour>
      <point x="236" y="754" type="curve" smooth="yes"/>
      <point x="161" y="754"/>
      <point x="100" y="821"/>
      <point x="100" y="896" type="curve" smooth="yes"/>
      <point x="100" y="971"/>
      <point x="161" y="1032"/>
      <point x="236" y="1032" type="curve" smooth="yes"/>
      <point x="311" y="1032"/>
      <point x="375" y="971"/>
      <point x="375" y="896" type="curve" smooth="yes"/>
      <point x="375" y="821"/>
      <point x="311" y="754"/>
    </contour>
    <contour>
      <point x="236" y="0" type="curve" smooth="yes"/>
      <point x="161" y="0"/>
      <point x="100" y="63"/>
      <point x="100" y="136" type="curve" smooth="yes"/>
      <point x="100" y="211"/>
      <point x="161" y="275"/>
      <point x="236" y="275" type="curve" smooth="yes"/>
      <point x="311" y="275"/>
      <point x="375" y="211"/>
      <point x="375" y="136" type="curve" smooth="yes"/>
      <point x="375" y="63"/>
      <point x="311" y="0"/>
    </contour>
  </outline>
</glyph>
<glyph name="semicolon" format="1">
  <advance width="372"/>
  <unicode hex="003b"/>
  <outline>
    <contour>
      <point x="210" y="763" type="curve" smooth="yes"/>
      <point x="135" y="763"/>
      <point x="74" y="824"/>
      <point x="74" y="899" type="curve" smooth="yes"/>
      <point x="74" y="972"/>
      <point x="135" y="1032"/>
      <point x="210" y="1032" type="curve" smooth="yes"/>
      <point x="284" y="1032"/>
      <point x="346" y="972"/>
      <point x="346" y="899" type="curve" smooth="yes"/>
      <point x="346" y="824"/>
      <point x="284" y="763"/>
    </contour>
    <contour>
      <point x="96" y="-186" type="line" smooth="no"/>
      <point x="125" y="304" type="line" smooth="no"/>
      <point x="287" y="304" type="line" smooth="no"/>
      <point x="174" y="-186" type="line" smooth="no"/>
    </contour>
  </outline>
</glyph>
<glyph name="less" format="1">
  <advance width="952"/>
  <unicode hex="003c"/>
  <outline>
    <contour>
      <point x="977" y="-14" type="line" smooth="no"/>
      <point x="-30" y="537" type="line" smooth="no"/>
      <point x="-30" y="607" type="line" smooth="no"/>
      <point x="977" y="1155" type="line" smooth="no"/>
      <point x="977" y="1044" type="line" smooth="no"/>
      <point x="11" y="566" type="line" smooth="no"/>
      <point x="977" y="82" type="line" smooth="no"/>
    </contour>
  </outline>
</glyph>
<glyph name="equal" format="1">
  <advance width="1090"/>
  <unicode hex="003d"/>
  <outline>
    <contour>
      <point x="106" y="875" type="line" smooth="no"/>
      <point x="106" y="916" type="line" smooth="no"/>
      <point x="984" y="916" type="line" smooth="no"/>
      <point x="984" y="875" type="line" smooth="no"/>
    </contour>
    <contour>
      <point x="106" y="436" type="line" smooth="no"/>
      <point x="106" y="475" type="line" smooth="no"/>
      <point x="984" y="475" type="line" smooth="no"/>
      <point x="984" y="436" type="line" smooth="no"/>
    </contour>
  </outline>
</glyph>
<glyph name="greater" format="1">
  <advance width="952"/>
  <unicode hex="003e"/>
  <outline>
    <contour>
      <point x="-24" y="-14" type="line" smooth="no"/>
      <point x="-24" y="100" type="line" smooth="no"/>
      <point x="942" y="577" type="line" smooth="no"/>
      <point x="-24" y="1062" type="line" smooth="no"/>
      <point x="-24" y="1155" type="line" smooth="no"/>
      <point x="983" y="606" type="line" smooth="no"/>
      <point x="983" y="534" type="line" smooth="no"/>
    </contour>
  </outline>
</glyph>
<glyph name="at" format="1">
  <advance width="1668"/>
  <unicode hex="0040"/>
  <outline>
    <contour>
      <point x="782" y="255" type="curve" smooth="yes"/>
      <point x="941" y="255"/>
      <point x="1015" y="363"/>
      <point x="1011" y="375" type="curve" smooth="no"/>
      <point x="1060" y="818" type="line" smooth="no"/>
      <point x="1021" y="874"/>
      <point x="939" y="935"/>
      <point x="814" y="935" type="curve" smooth="yes"/>
      <point x="655" y="935"/>
      <point x="538" y="862"/>
      <point x="538" y="581" type="curve" smooth="yes"/>
      <point x="538" y="428"/>
      <point x="584" y="255"/>
    </contour>
    <contour>
      <point x="805" y="-117" type="curve" smooth="yes"/>
      <point x="352" y="-117"/>
      <point x="93" y="171"/>
      <point x="93" y="593" type="curve" smooth="yes"/>
      <point x="93" y="1023"/>
      <point x="417" y="1330"/>
      <point x="861" y="1330" type="curve" smooth="yes"/>
      <point x="1278" y="1330"/>
      <point x="1574" y="1049"/>
      <point x="1574" y="664" type="curve" smooth="yes"/>
      <point x="1574" y="380"/>
      <point x="1447" y="166"/>
      <point x="1239" y="166" type="curve" smooth="yes"/>
      <point x="1129" y="166"/>
      <point x="1046" y="249"/>
      <point x="1033" y="322" type="curve" smooth="no"/>
      <point x="979" y="196"/>
      <point x="834" y="187"/>
      <point x="733" y="187" type="curve" smooth="yes"/>
      <point x="510" y="187"/>
      <point x="414" y="383"/>
      <point x="414" y="583" type="curve" smooth="yes"/>
      <point x="414" y="826"/>
      <point x="549" y="1021"/>
      <point x="802" y="1021" type="curve" smooth="yes"/>
      <point x="936" y="1021"/>
      <point x="1040" y="939"/>
      <point x="1074" y="885" type="curve" smooth="no"/>
      <point x="1097" y="990" type="line" smooth="no"/>
      <point x="1176" y="990" type="line" smooth="no"/>
      <point x="1117" y="459" type="line" smooth="yes"/>
      <point x="1114" y="436"/>
      <point x="1113" y="416"/>
      <point x="1113" y="401" type="curve" smooth="yes"/>
      <point x="1113" y="241"/>
      <point x="1195" y="231"/>
      <point x="1247" y="231" type="curve" smooth="yes"/>
      <point x="1357" y="231"/>
      <point x="1478" y="374"/>
      <point x="1478" y="646" type="curve" smooth="yes"/>
      <point x="1478" y="958"/>
      <point x="1288" y="1243"/>
      <point x="865" y="1243" type="curve" smooth="yes"/>
      <point x="424" y="1243"/>
      <point x="226" y="922"/>
      <point x="226" y="592" type="curve" smooth="yes"/>
      <point x="226" y="127"/>
      <point x="537" y="-16"/>
      <point x="801" y="-16" type="curve" smooth="yes"/>
      <point x="954" y="-16"/>
      <point x="1084" y="10"/>
      <point x="1212" y="81" type="curve" smooth="no"/>
      <point x="1253" y="-3" type="line" smooth="no"/>
      <point x="1129" y="-74"/>
      <point x="946" y="-117"/>
    </contour>
  </outline>
</glyph>
<glyph name="A" format="1">
  <advance width="1296"/>
  <unicode hex="0041"/>
  <outline>
    <contour>
      <point x="349" y="524" type="line"/>
      <point x="942" y="524" type="line"/>
      <point x="637" y="1426" type="line"/>
    </contour>
    <contour>
      <point x="36" y="0" type="line"/>
      <point x="539" y="1481" type="line"/>
      <point x="736" y="1481" type="line"/>
      <point x="1260" y="0" type="line"/>
      <point x="1124" y="0" type="line"/>
      <point x="984" y="428" type="line"/>
      <point x="316" y="428" type="line"/>
      <point x="171" y="0" type="line"/>
    </contour>
  </outline>
</glyph>
<glyph name="B" format="1">
  <advance width="1250"/>
  <unicode hex="0042"/>
  <outline>
    <contour>
      <point x="253" y="851" type="line" smooth="no"/>
      <point x="607" y="851" type="line" smooth="yes"/>
      <point x="828" y="851"/>
      <point x="924" y="989"/>
      <point x="924" y="1131" type="curve" smooth="yes"/>
      <point x="924" y="1266"/>
      <point x="808" y="1386"/>
      <point x="600" y="1386" type="curve" smooth="yes"/>
      <point x="253" y="1386" type="line" smooth="no"/>
    </contour>
    <contour>
      <point x="253" y="95" type="line" smooth="no"/>
      <point x="640" y="95" type="line" smooth="yes"/>
      <point x="1012" y="95"/>
      <point x="1025" y="329"/>
      <point x="1025" y="450" type="curve" smooth="yes"/>
      <point x="1025" y="615"/>
      <point x="860" y="771"/>
      <point x="676" y="771" type="curve" smooth="yes"/>
      <point x="253" y="771" type="line" smooth="no"/>
    </contour>
    <contour>
      <point x="124" y="0" type="line" smooth="no"/>
      <point x="124" y="1481" type="line" smooth="no"/>
      <point x="549" y="1481" type="line" smooth="yes"/>
      <point x="872" y="1481"/>
      <point x="1052" y="1386"/>
      <point x="1052" y="1116" type="curve" smooth="yes"/>
      <point x="1052" y="993"/>
      <point x="963" y="862"/>
      <point x="802" y="825" type="curve" smooth="no"/>
      <point x="802" y="817" type="line" smooth="no"/>
      <point x="1009" y="796"/>
      <point x="1154" y="635"/>
      <point x="1154" y="453" type="curve" smooth="yes"/>
      <point x="1154" y="131"/>
      <point x="943" y="0"/>
      <point x="603" y="0" type="curve" smooth="yes"/>
    </contour>
  </outline>
</glyph>
<glyph name="C" format="1">
  <advance width="1194"/>
  <unicode hex="0043"/>
  <outline>
    <contour>
      <point x="705" y="-22" type="curve" smooth="yes"/>
      <point x="258" y="-22"/>
      <point x="92" y="258"/>
      <point x="92" y="748" type="curve" smooth="yes"/>
      <point x="92" y="1241"/>
      <point x="345" y="1505"/>
      <point x="712" y="1505" type="curve" smooth="yes"/>
      <point x="908" y="1505"/>
      <point x="1095" y="1418"/>
      <point x="1118" y="1389" type="curve"/>
      <point x="1084" y="1301" type="line"/>
      <point x="1084" y="1301"/>
      <point x="966" y="1404"/>
      <point x="702" y="1404" type="curve" smooth="yes"/>
      <point x="434" y="1404"/>
      <point x="211" y="1222"/>
      <point x="211" y="744" type="curve" smooth="yes"/>
      <point x="211" y="244"/>
      <point x="407" y="82"/>
      <point x="700" y="82" type="curve" smooth="yes"/>
      <point x="949" y="82"/>
      <point x="1090" y="194"/>
      <point x="1090" y="194" type="curve"/>
      <point x="1114" y="106" type="line"/>
      <point x="1054" y="45"/>
      <point x="907" y="-22"/>
    </contour>
  </outline>
</glyph>
<glyph name="D" format="1">
  <advance width="1438"/>
  <unicode hex="0044"/>
  <outline>
    <contour>
      <point x="164" y="0" type="line"/>
      <point x="164" y="1481" type="line"/>
      <point x="585" y="1481" type="line" smooth="yes"/>
      <point x="1056" y="1481"/>
      <point x="1339" y="1234"/>
      <point x="1339" y="740" type="curve" smooth="yes"/>
      <point x="1339" y="266"/>
      <point x="1125" y="0"/>
      <point x="572" y="0" type="curve" smooth="yes"/>
    </contour>
    <contour>
      <point x="293" y="95" type="line"/>
      <point x="590" y="95" type="line" smooth="yes"/>
      <point x="989" y="95"/>
      <point x="1210" y="305"/>
      <point x="1210" y="740" type="curve" smooth="yes"/>
      <point x="1210" y="1153"/>
      <point x="1006" y="1381"/>
      <point x="587" y="1381" type="curve" smooth="yes"/>
      <point x="293" y="1381" type="line"/>
    </contour>
  </outline>
</glyph>
<glyph name="E" format="1">
  <advance width="1027"/>
  <unicode hex="0045"/>
  <outline>
    <contour>
      <point x="124" y="0" type="line" smooth="no"/>
      <point x="124" y="1481" type="line" smooth="no"/>
      <point x="915" y="1481" type="line" smooth="no"/>
      <point x="915" y="1386" type="line" smooth="no"/>
      <point x="253" y="1386" type="line" smooth="no"/>
      <point x="253" y="828" type="line" smooth="no"/>
      <point x="865" y="828" type="line" smooth="no"/>
      <point x="865" y="735" type="line" smooth="no"/>
      <point x="253" y="735" type="line" smooth="no"/>
      <point x="253" y="95" type="line" smooth="no"/>
      <point x="955" y="95" type="line" smooth="no"/>
      <point x="955" y="0" type="line" smooth="no"/>
    </contour>
  </outline>
</glyph>
<glyph name="F" format="1">
  <advance width="925"/>
  <unicode hex="0046"/>
  <outline>
    <contour>
      <point x="124" y="0" type="line" smooth="no"/>
      <point x="124" y="1481" type="line" smooth="no"/>
      <point x="898" y="1481" type="line" smooth="no"/>
      <point x="898" y="1383" type="line" smooth="no"/>
      <point x="253" y="1383" type="line" smooth="no"/>
      <point x="253" y="843" type="line" smooth="no"/>
      <point x="837" y="843" type="line" smooth="no"/>
      <point x="837" y="745" type="line" smooth="no"/>
      <point x="253" y="745" type="line" smooth="no"/>
      <point x="253" y="0" type="line" smooth="no"/>
    </contour>
  </outline>
</glyph>
<glyph name="G" format="1">
  <advance width="1415"/>
  <unicode hex="0047"/>
  <outline>
    <contour>
      <point x="772" y="-22" type="curve" smooth="yes"/>
      <point x="284" y="-22"/>
      <point x="99" y="277"/>
      <point x="99" y="749" type="curve" smooth="yes"/>
      <point x="99" y="1242"/>
      <point x="373" y="1502"/>
      <point x="798" y="1502" type="curve" smooth="yes"/>
      <point x="976" y="1502"/>
      <point x="1127" y="1463"/>
      <point x="1243" y="1414" type="curve"/>
      <point x="1206" y="1316" type="line" smooth="yes"/>
      <point x="1206" y="1316"/>
      <point x="1001" y="1398"/>
      <point x="802" y="1398" type="curve" smooth="yes"/>
      <point x="478" y="1398"/>
      <point x="225" y="1210"/>
      <point x="225" y="746" type="curve" smooth="yes"/>
      <point x="225" y="288"/>
      <point x="391" y="82"/>
      <point x="769" y="82" type="curve" smooth="yes"/>
      <point x="1047" y="82"/>
      <point x="1169" y="161"/>
      <point x="1167" y="162" type="curve"/>
      <point x="1167" y="695" type="line"/>
      <point x="740" y="695" type="line"/>
      <point x="740" y="782" type="line"/>
      <point x="1276" y="782" type="line"/>
      <point x="1276" y="109" type="line"/>
      <point x="1276" y="106"/>
      <point x="1111" y="-22"/>
    </contour>
  </outline>
</glyph>
<glyph name="H" format="1">
  <advance width="1360"/>
  <unicode hex="0048"/>
  <outline>
    <contour>
      <point x="125" y="0" type="line"/>
      <point x="125" y="1481" type="line"/>
      <point x="254" y="1481" type="line"/>
      <point x="254" y="808" type="line"/>
      <point x="1106" y="808" type="line"/>
      <point x="1106" y="1481" type="line"/>
      <point x="1235" y="1481" type="line"/>
      <point x="1235" y="0" type="line"/>
      <point x="1106" y="0" type="line"/>
      <point x="1106" y="721" type="line"/>
      <point x="254" y="721" type="line"/>
      <point x="254" y="0" type="line"/>
    </contour>
  </outline>
</glyph>
<glyph name="I" format="1">
  <advance width="825"/>
  <unicode hex="0049"/>
  <outline>
    <contour>
      <point x="105" y="0" type="line"/>
      <point x="105" y="71" type="line"/>
      <point x="348" y="71" type="line"/>
      <point x="348" y="1406" type="line"/>
      <point x="105" y="1406" type="line"/>
      <point x="105" y="1481" type="line"/>
      <point x="720" y="1481" type="line"/>
      <point x="720" y="1406" type="line"/>
      <point x="476" y="1406" type="line"/>
      <point x="476" y="71" type="line"/>
      <point x="720" y="71" type="line"/>
      <point x="720" y="0" type="line"/>
    </contour>
  </outline>
</glyph>
<glyph name="J" format="1">
  <advance width="853"/>
  <unicode hex="004A"/>
  <outline>
    <contour>
      <point x="82" y="42" type="line"/>
      <point x="106" y="30"/>
      <point x="244" y="-19"/>
      <point x="366" y="-19" type="curve" smooth="yes"/>
      <point x="594" y="-19"/>
      <point x="689" y="95"/>
      <point x="689" y="409" type="curve" smooth="yes"/>
      <point x="689" y="1481" type="line"/>
      <point x="218" y="1481" type="line"/>
      <point x="218" y="1386" type="line"/>
      <point x="561" y="1386" type="line"/>
      <point x="561" y="401" type="line" smooth="yes"/>
      <point x="561" y="142"/>
      <point x="508" y="82"/>
      <point x="371" y="82" type="curve" smooth="yes"/>
      <point x="246" y="82"/>
      <point x="136" y="130"/>
      <point x="115" y="138" type="curve"/>
    </contour>
  </outline>
</glyph>
<glyph name="K" format="1">
  <advance width="1268"/>
  <unicode hex="004B"/>
  <outline>
    <contour>
      <point x="164" y="0" type="line"/>
      <point x="164" y="1481" type="line"/>
      <point x="293" y="1481" type="line"/>
      <point x="293" y="670" type="line"/>
      <point x="294" y="670" type="line"/>
      <point x="657" y="1029" type="line"/>
      <point x="657" y="1029"/>
      <point x="1063" y="1481"/>
      <point x="1063" y="1481" type="curve"/>
      <point x="1229" y="1481" type="line"/>
      <point x="708" y="912" type="line"/>
      <point x="1257" y="0" type="line"/>
      <point x="1109" y="0" type="line"/>
      <point x="1109" y="0"/>
      <point x="777" y="559"/>
      <point x="688" y="708" type="curve"/>
      <point x="622" y="824" type="line"/>
      <point x="293" y="517" type="line"/>
      <point x="293" y="0" type="line"/>
    </contour>
  </outline>
</glyph>
<glyph name="L" format="1">
  <advance width="1029"/>
  <unicode hex="004C"/>
  <outline>
    <contour>
      <point x="164" y="0" type="line"/>
      <point x="164" y="1481" type="line"/>
      <point x="293" y="1481" type="line"/>
      <point x="293" y="95" type="line"/>
      <point x="967" y="95" type="line"/>
      <point x="967" y="0" type="line"/>
    </contour>
  </outline>
</glyph>
<glyph name="M" format="1">
  <advance width="1572"/>
  <unicode hex="004D"/>
  <outline>
    <contour>
      <point x="164" y="0" type="line"/>
      <point x="164" y="1481" type="line"/>
      <point x="280" y="1481" type="line"/>
      <point x="788" y="620" type="line"/>
      <point x="1294" y="1481" type="line"/>
      <point x="1408" y="1481" type="line"/>
      <point x="1408" y="0" type="line"/>
      <point x="1281" y="0" type="line"/>
      <point x="1281" y="1044" type="line"/>
      <point x="1290" y="1279" type="line"/>
      <point x="850" y="492" type="line"/>
      <point x="744" y="492" type="line"/>
      <point x="282" y="1279" type="line"/>
      <point x="292" y="1044" type="line"/>
      <point x="292" y="0" type="line"/>
    </contour>
  </outline>
</glyph>
<glyph name="N" format="1">
  <advance width="1487"/>
  <unicode hex="004E"/>
  <outline>
    <contour>
      <point x="164" y="0" type="line"/>
      <point x="164" y="1481" type="line"/>
      <point x="237" y="1481" type="line"/>
      <point x="1205" y="194" type="line"/>
      <point x="1197" y="501" type="line"/>
      <point x="1197" y="1481" type="line"/>
      <point x="1323" y="1481" type="line"/>
      <point x="1323" y="0" type="line"/>
      <point x="1207" y="0" type="line"/>
      <point x="286" y="1237" type="line"/>
      <point x="291" y="1041" type="line"/>
      <point x="291" y="0" type="line"/>
    </contour>
  </outline>
</glyph>
<glyph name="O" format="1">
  <advance width="1556"/>
  <unicode hex="004F"/>
  <outline>
    <contour>
      <point x="777" y="-22" type="curve" smooth="yes"/>
      <point x="314" y="-22"/>
      <point x="92.0" y="286.0"/>
      <point x="92.0" y="740.0" type="curve" smooth="yes"/>
      <point x="92.0" y="1197.0"/>
      <point x="315" y="1502"/>
      <point x="777" y="1502" type="curve" smooth="yes"/>
      <point x="1239" y="1502"/>
      <point x="1464.0" y="1198.0"/>
      <point x="1464.0" y="740.0" type="curve" smooth="yes"/>
      <point x="1464.0" y="289.0"/>
      <point x="1240" y="-22"/>
    </contour>
    <contour>
      <point x="777.0" y="82.0" type="curve" smooth="yes"/>
      <point x="1200.0" y="82.0"/>
      <point x="1332.0" y="399.0"/>
      <point x="1332.0" y="740.0" type="curve" smooth="yes"/>
      <point x="1332.0" y="1069.0"/>
      <point x="1203.0" y="1398.0"/>
      <point x="777.0" y="1398.0" type="curve" smooth="yes"/>
      <point x="336.0" y="1398.0"/>
      <point x="220.0" y="1041.0"/>
      <point x="220.0" y="740.0" type="curve" smooth="yes"/>
      <point x="220.0" y="406.0"/>
      <point x="340.0" y="82.0"/>
    </contour>
  </outline>
</glyph>
<glyph name="P" format="1">
  <advance width="1132"/>
  <unicode hex="0050"/>
  <outline>
    <contour>
      <point x="293" y="738" type="line"/>
      <point x="369" y="738" type="line" smooth="yes"/>
      <point x="758" y="738"/>
      <point x="944" y="881"/>
      <point x="944" y="1093" type="curve" smooth="yes"/>
      <point x="944" y="1282"/>
      <point x="860" y="1386"/>
      <point x="548" y="1386" type="curve" smooth="yes"/>
      <point x="293" y="1386" type="line"/>
    </contour>
    <contour>
      <point x="164" y="0" type="line"/>
      <point x="164" y="1481" type="line"/>
      <point x="545" y="1481" type="line" smooth="yes"/>
      <point x="916" y="1481"/>
      <point x="1071" y="1361"/>
      <point x="1071" y="1090" type="curve" smooth="yes"/>
      <point x="1071" y="791"/>
      <point x="782" y="641"/>
      <point x="389" y="641" type="curve" smooth="yes"/>
      <point x="293" y="641" type="line"/>
      <point x="293" y="0" type="line"/>
    </contour>
  </outline>
</glyph>
<glyph name="Q" format="1">
  <advance width="1570"/>
  <unicode hex="0051"/>
  <outline>
    <contour>
      <point x="784" y="-23" type="curve" smooth="yes"/>
      <point x="321" y="-23"/>
      <point x="99" y="286"/>
      <point x="99" y="740" type="curve" smooth="yes"/>
      <point x="99" y="1197"/>
      <point x="322" y="1503"/>
      <point x="784" y="1503" type="curve" smooth="yes"/>
      <point x="1246" y="1503"/>
      <point x="1471" y="1198"/>
      <point x="1471" y="740" type="curve" smooth="yes"/>
      <point x="1471" y="358"/>
      <point x="1310" y="75"/>
      <point x="979" y="-2" type="curve"/>
      <point x="1091" y="-373" type="line"/>
      <point x="985" y="-411" type="line"/>
      <point x="871" y="-20" type="line"/>
      <point x="847" y="-22"/>
      <point x="809" y="-23"/>
    </contour>
    <contour>
      <point x="948" y="100" type="line"/>
      <point x="1242" y="173"/>
      <point x="1339" y="448"/>
      <point x="1339" y="740" type="curve" smooth="yes"/>
      <point x="1339" y="1069"/>
      <point x="1210" y="1398"/>
      <point x="784" y="1398" type="curve" smooth="yes"/>
      <point x="343" y="1398"/>
      <point x="227" y="1041"/>
      <point x="227" y="740" type="curve" smooth="yes"/>
      <point x="227" y="406"/>
      <point x="347" y="81"/>
      <point x="784" y="81" type="curve" smooth="yes"/>
      <point x="799" y="81"/>
      <point x="828" y="81"/>
      <point x="842" y="82" type="curve"/>
      <point x="758" y="369" type="line"/>
      <point x="758" y="369"/>
      <point x="868" y="370"/>
      <point x="869" y="369" type="curve"/>
    </contour>
  </outline>
</glyph>
<glyph name="R" format="1">
  <advance width="1189"/>
  <unicode hex="0052"/>
  <outline>
    <contour>
      <point x="253" y="815" type="line" smooth="no"/>
      <point x="616" y="815" type="line" smooth="yes"/>
      <point x="877" y="815"/>
      <point x="964" y="969"/>
      <point x="964" y="1134" type="curve" smooth="yes"/>
      <point x="964" y="1283"/>
      <point x="856" y="1386"/>
      <point x="643" y="1386" type="curve" smooth="yes"/>
      <point x="253" y="1386" type="line" smooth="no"/>
    </contour>
    <contour>
      <point x="124" y="0" type="line" smooth="no"/>
      <point x="124" y="1481" type="line" smooth="no"/>
      <point x="618" y="1481" type="line" smooth="yes"/>
      <point x="890" y="1481"/>
      <point x="1082" y="1409"/>
      <point x="1082" y="1118" type="curve" smooth="yes"/>
      <point x="1082" y="921"/>
      <point x="955" y="795"/>
      <point x="773" y="738" type="curve" smooth="no"/>
      <point x="1162" y="40" type="line" smooth="no"/>
      <point x="1162" y="0" type="line" smooth="no"/>
      <point x="1050" y="0" type="line" smooth="no"/>
      <point x="642" y="720" type="line" smooth="no"/>
      <point x="253" y="720" type="line" smooth="no"/>
      <point x="253" y="0" type="line" smooth="no"/>
    </contour>
  </outline>
</glyph>
<glyph name="S" format="1">
  <advance width="1188"/>
  <unicode hex="0053"/>
  <outline>
    <contour>
      <point x="597" y="-22" type="curve" smooth="yes"/>
      <point x="401" y="-22"/>
      <point x="221" y="37"/>
      <point x="97" y="126" type="curve"/>
      <point x="156" y="213" type="line"/>
      <point x="163" y="213" type="line"/>
      <point x="275" y="129"/>
      <point x="455" y="82"/>
      <point x="585" y="82" type="curve" smooth="yes"/>
      <point x="894" y="82"/>
      <point x="993" y="227"/>
      <point x="993" y="366" type="curve" smooth="yes"/>
      <point x="993" y="573"/>
      <point x="942" y="617"/>
      <point x="512" y="722" type="curve"/>
      <point x="243" y="790"/>
      <point x="115" y="902"/>
      <point x="126" y="1131" type="curve" smooth="yes"/>
      <point x="137" y="1364"/>
      <point x="351" y="1503"/>
      <point x="626" y="1503" type="curve" smooth="yes"/>
      <point x="782" y="1503"/>
      <point x="938" y="1481"/>
      <point x="1055" y="1409" type="curve"/>
      <point x="1002" y="1324" type="line"/>
      <point x="996" y="1324" type="line"/>
      <point x="964" y="1340"/>
      <point x="837" y="1398"/>
      <point x="670" y="1398" type="curve" smooth="yes"/>
      <point x="360" y="1398"/>
      <point x="252" y="1259"/>
      <point x="246" y="1128" type="curve" smooth="yes"/>
      <point x="240" y="993"/>
      <point x="255" y="892"/>
      <point x="607" y="810" type="curve"/>
      <point x="952" y="731"/>
      <point x="1107" y="662"/>
      <point x="1107" y="367" type="curve" smooth="yes"/>
      <point x="1107" y="95"/>
      <point x="879" y="-22"/>
    </contour>
  </outline>
</glyph>
<glyph name="T" format="1">
  <advance width="1108"/>
  <unicode hex="0054"/>
  <outline>
    <contour>
      <point x="491" y="0" type="line"/>
      <point x="491" y="1386" type="line"/>
      <point x="41" y="1386" type="line"/>
      <point x="41" y="1481" type="line"/>
      <point x="1067" y="1481" type="line"/>
      <point x="1067" y="1386" type="line"/>
      <point x="619" y="1386" type="line"/>
      <point x="619" y="0" type="line"/>
    </contour>
  </outline>
</glyph>
<glyph name="U" format="1">
  <advance width="1472"/>
  <unicode hex="0055"/>
  <outline>
    <contour>
      <point x="734" y="-22" type="curve" smooth="yes"/>
      <point x="396" y="-22"/>
      <point x="129" y="130"/>
      <point x="129" y="480" type="curve" smooth="yes"/>
      <point x="129" y="1481" type="line"/>
      <point x="256" y="1481" type="line"/>
      <point x="256" y="485" type="line" smooth="yes"/>
      <point x="256" y="211"/>
      <point x="414" y="82"/>
      <point x="732" y="82" type="curve" smooth="yes"/>
      <point x="1052" y="82"/>
      <point x="1216" y="210"/>
      <point x="1216" y="484" type="curve" smooth="yes"/>
      <point x="1216" y="1481" type="line"/>
      <point x="1343" y="1481" type="line"/>
      <point x="1343" y="480" type="line" smooth="yes"/>
      <point x="1343" y="126"/>
      <point x="1084" y="-22"/>
    </contour>
  </outline>
</glyph>
<glyph name="V" format="1">
  <advance width="1304"/>
  <unicode hex="0056"/>
  <outline>
    <contour>
      <point x="573" y="0" type="line"/>
      <point x="-3" y="1481" type="line"/>
      <point x="121" y="1481" type="line"/>
      <point x="341" y="874"/>
      <point x="473" y="582"/>
      <point x="473" y="582" type="curve"/>
      <point x="473" y="582"/>
      <point x="579" y="298"/>
      <point x="657" y="88" type="curve"/>
      <point x="736" y="296"/>
      <point x="839" y="584"/>
      <point x="839" y="584" type="curve" smooth="yes"/>
      <point x="839" y="584"/>
      <point x="963" y="876"/>
      <point x="1178" y="1481" type="curve"/>
      <point x="1307" y="1481" type="line"/>
      <point x="742" y="0" type="line"/>
    </contour>
  </outline>
</glyph>
<glyph name="W" format="1">
  <advance width="1940"/>
  <unicode hex="0057"/>
  <outline>
    <contour>
      <point x="418" y="0" type="line"/>
      <point x="18" y="1481" type="line"/>
      <point x="132" y="1481" type="line"/>
      <point x="285" y="910"/>
      <point x="276" y="967"/>
      <point x="429" y="396" type="curve"/>
      <point x="465" y="257"/>
      <point x="443" y="350"/>
      <point x="481" y="211" type="curve"/>
      <point x="484" y="211" type="line"/>
      <point x="525" y="350"/>
      <point x="498" y="261"/>
      <point x="539" y="399" type="curve" smooth="yes"/>
      <point x="710" y="972"/>
      <point x="693" y="910"/>
      <point x="864" y="1481" type="curve"/>
      <point x="1092" y="1481" type="line"/>
      <point x="1262" y="908"/>
      <point x="1249" y="960"/>
      <point x="1417" y="383" type="curve"/>
      <point x="1455" y="248"/>
      <point x="1425" y="347"/>
      <point x="1463" y="212" type="curve"/>
      <point x="1499" y="347"/>
      <point x="1476" y="259"/>
      <point x="1512" y="394" type="curve" smooth="yes"/>
      <point x="1667" y="968"/>
      <point x="1655" y="906"/>
      <point x="1810" y="1481" type="curve"/>
      <point x="1922" y="1481" type="line"/>
      <point x="1506" y="0" type="line"/>
      <point x="1393" y="0" type="line"/>
      <point x="985" y="1476" type="line"/>
      <point x="531" y="0" type="line"/>
    </contour>
  </outline>
</glyph>
<glyph name="X" format="1">
  <advance width="1391"/>
  <unicode hex="0058"/>
  <outline>
    <contour>
      <point x="18" y="0" type="line"/>
      <point x="620" y="737" type="line"/>
      <point x="52" y="1481" type="line"/>
      <point x="173" y="1481" type="line"/>
      <point x="173" y="1481"/>
      <point x="319" y="1281"/>
      <point x="535" y="997" type="curve" smooth="yes"/>
      <point x="607" y="901"/>
      <point x="618" y="882"/>
      <point x="692" y="790" type="curve"/>
      <point x="766" y="882"/>
      <point x="785" y="901"/>
      <point x="857" y="997" type="curve" smooth="yes"/>
      <point x="1073" y="1281"/>
      <point x="1010" y="1196"/>
      <point x="1228" y="1481" type="curve"/>
      <point x="1373" y="1481" type="line"/>
      <point x="760" y="711" type="line"/>
      <point x="1330" y="0" type="line"/>
      <point x="1208" y="0" type="line"/>
      <point x="1013" y="263"/>
      <point x="1058" y="172"/>
      <point x="864" y="433" type="curve" smooth="yes"/>
      <point x="781" y="544"/>
      <point x="771" y="547"/>
      <point x="690" y="659" type="curve"/>
      <point x="601" y="549"/>
      <point x="590" y="540"/>
      <point x="504" y="429" type="curve" smooth="yes"/>
      <point x="302" y="169"/>
      <point x="365" y="261"/>
      <point x="164" y="0" type="curve"/>
    </contour>
  </outline>
</glyph>
<glyph name="Y" format="1">
  <advance width="1295"/>
  <unicode hex="0059"/>
  <outline>
    <contour>
      <point x="572" y="0" type="line"/>
      <point x="572" y="706" type="line"/>
      <point x="-35" y="1481" type="line"/>
      <point x="94" y="1481" type="line"/>
      <point x="636" y="803" type="line"/>
      <point x="1193" y="1481" type="line"/>
      <point x="1330" y="1481" type="line"/>
      <point x="698" y="702" type="line"/>
      <point x="698" y="0" type="line"/>
    </contour>
  </outline>
</glyph>
<glyph name="Z" format="1">
  <advance width="1065"/>
  <unicode hex="005a"/>
  <outline>
    <contour>
      <point x="82" y="0" type="line" smooth="no"/>
      <point x="82" y="109" type="line" smooth="no"/>
      <point x="892" y="1386" type="line" smooth="no"/>
      <point x="63" y="1386" type="line" smooth="no"/>
      <point x="63" y="1481" type="line" smooth="no"/>
      <point x="997" y="1481" type="line" smooth="no"/>
      <point x="997" y="1387" type="line" smooth="no"/>
      <point x="195" y="95" type="line" smooth="no"/>
      <point x="1011" y="95" type="line" smooth="no"/>
      <point x="1011" y="0" type="line" smooth="no"/>
    </contour>
  </outline>
</glyph>
<glyph name="bracketleft" format="1">
  <advance width="573"/>
  <unicode hex="005b"/>
  <outline>
    <contour>
      <point x="103" y="-167" type="line" smooth="no"/>
      <point x="103" y="1481" type="line" smooth="no"/>
      <point x="485" y="1481" type="line" smooth="no"/>
      <point x="485" y="1386" type="line" smooth="no"/>
      <point x="229" y="1386" type="line" smooth="no"/>
      <point x="229" y="-74" type="line" smooth="no"/>
      <point x="485" y="-74" type="line" smooth="no"/>
      <point x="485" y="-167" type="line" smooth="no"/>
    </contour>
  </outline>
</glyph>
<glyph name="backslash" format="1">
  <advance width="872"/>
  <unicode hex="005C"/>
  <outline>
    <contour>
      <point x="752" y="0" type="line"/>
      <point x="45" y="1481" type="line"/>
      <point x="125" y="1481" type="line"/>
      <point x="830" y="0" type="line"/>
    </contour>
  </outline>
</glyph>
<glyph name="bracketright" format="1">
  <advance width="574"/>
  <unicode hex="005d"/>
  <outline>
    <contour>
      <point x="88" y="-167" type="line" smooth="no"/>
      <point x="88" y="-74" type="line" smooth="no"/>
      <point x="344" y="-74" type="line" smooth="no"/>
      <point x="344" y="1386" type="line" smooth="no"/>
      <point x="88" y="1386" type="line" smooth="no"/>
      <point x="88" y="1481" type="line" smooth="no"/>
      <point x="472" y="1481" type="line" smooth="no"/>
      <point x="472" y="-167" type="line" smooth="no"/>
    </contour>
  </outline>
</glyph>
<glyph name="asciicircum" format="1">
  <advance width="1389"/>
  <unicode hex="005e"/>
  <outline>
    <contour>
      <point x="91" y="596" type="line" smooth="no"/>
      <point x="565" y="1384" type="line" smooth="no"/>
      <point x="796" y="1384" type="line" smooth="no"/>
      <point x="1299" y="599" type="line" smooth="no"/>
      <point x="1095" y="599" type="line" smooth="no"/>
      <point x="681" y="1320" type="line" smooth="no"/>
      <point x="276" y="596" type="line" smooth="no"/>
    </contour>
  </outline>
</glyph>
<glyph name="underscore" format="1">
  <advance width="774"/>
  <unicode hex="005f"/>
  <outline>
    <contour>
      <point x="6" y="-113" type="line" smooth="no"/>
      <point x="6" y="0" type="line" smooth="no"/>
      <point x="768" y="0" type="line" smooth="no"/>
      <point x="768" y="-113" type="line" smooth="no"/>
    </contour>
  </outline>
</glyph>
<glyph name="grave" format="1">
  <advance width="286"/>
  <unicode hex="0060"/>
  <outline>
    <contour>
      <point x="212" y="1110" type="line"/>
      <point x="-25" y="1452" type="line"/>
      <point x="140" y="1452" type="line"/>
      <point x="303" y="1110" type="line"/>
    </contour>
  </outline>
</glyph>
<glyph name="a" format="1">
  <advance width="1024"/>
  <unicode hex="0061"/>
  <outline>
    <contour>
      <point x="400" y="82" type="curve" smooth="yes"/>
      <point x="639" y="82"/>
      <point x="768" y="299"/>
      <point x="768" y="529" type="curve"/>
      <point x="241" y="538"/>
      <point x="182" y="401"/>
      <point x="189" y="258" type="curve" smooth="yes"/>
      <point x="194" y="148"/>
      <point x="271" y="82"/>
    </contour>
    <contour>
      <point x="400" y="-19" type="curve" smooth="yes"/>
      <point x="212" y="-19"/>
      <point x="84" y="89"/>
      <point x="80" y="264" type="curve"/>
      <point x="80" y="551"/>
      <point x="309" y="619"/>
      <point x="768" y="618" type="curve"/>
      <point x="768" y="881"/>
      <point x="698" y="956"/>
      <point x="522" y="956" type="curve" smooth="yes"/>
      <point x="342" y="956"/>
      <point x="210" y="899"/>
      <point x="180" y="885" type="curve"/>
      <point x="142" y="977" type="line"/>
      <point x="164" y="985"/>
      <point x="318" y="1057"/>
      <point x="523" y="1057" type="curve" smooth="yes"/>
      <point x="854" y="1057"/>
      <point x="897" y="836"/>
      <point x="897" y="584" type="curve" smooth="yes"/>
      <point x="897" y="0" type="line"/>
      <point x="768" y="0" type="line"/>
      <point x="768" y="276" type="line"/>
      <point x="701" y="92"/>
      <point x="593" y="-19"/>
    </contour>
  </outline>
</glyph>
<glyph name="b" format="1">
  <advance width="1153"/>
  <unicode hex="0062"/>
  <outline>
    <contour>
      <point x="568" y="82" type="curve" smooth="yes"/>
      <point x="806" y="82"/>
      <point x="924" y="267"/>
      <point x="924" y="515" type="curve" smooth="yes"/>
      <point x="924" y="783"/>
      <point x="810" y="956"/>
      <point x="613" y="956" type="curve" smooth="yes"/>
      <point x="425" y="956"/>
      <point x="261" y="793"/>
      <point x="254" y="726" type="curve" smooth="no"/>
      <point x="254" y="195" type="line" smooth="no"/>
      <point x="341" y="135"/>
      <point x="440" y="82"/>
    </contour>
    <contour>
      <point x="556" y="-19" type="curve" smooth="yes"/>
      <point x="438" y="-19"/>
      <point x="319" y="27"/>
      <point x="254" y="123" type="curve" smooth="no"/>
      <point x="254" y="0" type="line" smooth="no"/>
      <point x="126" y="0" type="line" smooth="no"/>
      <point x="126" y="1481" type="line" smooth="no"/>
      <point x="254" y="1481" type="line" smooth="no"/>
      <point x="254" y="862" type="line" smooth="no"/>
      <point x="301" y="976"/>
      <point x="498" y="1057"/>
      <point x="601" y="1057" type="curve" smooth="yes"/>
      <point x="826" y="1057"/>
      <point x="1045" y="921"/>
      <point x="1045" y="540" type="curve" smooth="yes"/>
      <point x="1045" y="171"/>
      <point x="830" y="-19"/>
    </contour>
  </outline>
</glyph>
<glyph name="c" format="1">
  <advance width="997"/>
  <unicode hex="0063"/>
  <outline>
    <contour>
      <point x="628" y="-19" type="curve" smooth="yes"/>
      <point x="348" y="-19"/>
      <point x="105" y="146"/>
      <point x="105" y="511" type="curve" smooth="yes"/>
      <point x="105" y="858"/>
      <point x="339" y="1057"/>
      <point x="605" y="1057" type="curve" smooth="yes"/>
      <point x="716" y="1057"/>
      <point x="817" y="1037"/>
      <point x="925" y="971" type="curve"/>
      <point x="894" y="879" type="line"/>
      <point x="894" y="879"/>
      <point x="781" y="956"/>
      <point x="610" y="956" type="curve" smooth="yes"/>
      <point x="393" y="956"/>
      <point x="226" y="774"/>
      <point x="226" y="510" type="curve" smooth="yes"/>
      <point x="226" y="249"/>
      <point x="398" y="82"/>
      <point x="623" y="82" type="curve" smooth="yes"/>
      <point x="752" y="82"/>
      <point x="871" y="146"/>
      <point x="886" y="156" type="curve"/>
      <point x="913" y="65" type="line"/>
      <point x="864" y="23"/>
      <point x="757" y="-19"/>
    </contour>
  </outline>
</glyph>
<glyph name="d" format="1">
  <advance width="1156"/>
  <unicode hex="0064"/>
  <outline>
    <contour>
      <point x="566" y="82" type="curve" smooth="yes"/>
      <point x="782" y="82"/>
      <point x="902" y="215"/>
      <point x="902" y="283" type="curve" smooth="no"/>
      <point x="902" y="778" type="line" smooth="no"/>
      <point x="902" y="831"/>
      <point x="781" y="956"/>
      <point x="582" y="956" type="curve" smooth="yes"/>
      <point x="414" y="956"/>
      <point x="226" y="848"/>
      <point x="226" y="531" type="curve" smooth="yes"/>
      <point x="226" y="268"/>
      <point x="325" y="82"/>
    </contour>
    <contour>
      <point x="557" y="-19" type="curve" smooth="no"/>
      <point x="345" y="-19"/>
      <point x="105" y="120"/>
      <point x="105" y="513" type="curve" smooth="yes"/>
      <point x="105" y="870"/>
      <point x="331" y="1057"/>
      <point x="542" y="1057" type="curve" smooth="yes"/>
      <point x="646" y="1057"/>
      <point x="822" y="1039"/>
      <point x="902" y="870" type="curve" smooth="no"/>
      <point x="902" y="1481" type="line" smooth="no"/>
      <point x="1028" y="1481" type="line" smooth="no"/>
      <point x="1028" y="0" type="line" smooth="no"/>
      <point x="902" y="0" type="line" smooth="no"/>
      <point x="902" y="175" type="line" smooth="no"/>
      <point x="854" y="53"/>
      <point x="691" y="-6"/>
    </contour>
  </outline>
</glyph>
<glyph name="e" format="1">
  <advance width="1099"/>
  <unicode hex="0065"/>
  <outline>
    <contour>
      <point x="225" y="576" type="curve"/>
      <point x="886" y="576" type="line"/>
      <point x="881" y="700"/>
      <point x="818" y="956"/>
      <point x="578" y="956" type="curve" smooth="yes"/>
      <point x="391" y="956"/>
      <point x="244" y="797"/>
    </contour>
    <contour>
      <point x="600" y="-20" type="curve" smooth="yes"/>
      <point x="351" y="-20"/>
      <point x="105" y="147"/>
      <point x="105" y="509" type="curve" smooth="yes"/>
      <point x="105" y="850"/>
      <point x="328" y="1057"/>
      <point x="578" y="1057" type="curve" smooth="yes"/>
      <point x="879" y="1057"/>
      <point x="999" y="811"/>
      <point x="999" y="506" type="curve" smooth="yes"/>
      <point x="999" y="494" type="line"/>
      <point x="222" y="494" type="line"/>
      <point x="234" y="228"/>
      <point x="394" y="82"/>
      <point x="606" y="82" type="curve" smooth="yes"/>
      <point x="785" y="82"/>
      <point x="862" y="148"/>
      <point x="913" y="186" type="curve"/>
      <point x="971" y="113" type="line"/>
      <point x="950" y="89"/>
      <point x="836" y="-20"/>
    </contour>
  </outline>
</glyph>
<glyph name="f" format="1">
  <advance width="655"/>
  <unicode hex="0066"/>
  <outline>
    <contour>
      <point x="195" y="0" type="line" smooth="no"/>
      <point x="195" y="945" type="line" smooth="no"/>
      <point x="2" y="945" type="line" smooth="no"/>
      <point x="2" y="1032" type="line" smooth="no"/>
      <point x="195" y="1032" type="line" smooth="no"/>
      <point x="195" y="1068" type="line" smooth="yes"/>
      <point x="195" y="1317"/>
      <point x="250" y="1428"/>
      <point x="516" y="1428" type="curve" smooth="yes"/>
      <point x="590" y="1428"/>
      <point x="552" y="1424"/>
      <point x="605" y="1418" type="curve" smooth="no"/>
      <point x="605" y="1309" type="line" smooth="no"/>
      <point x="605" y="1309"/>
      <point x="554" y="1319"/>
      <point x="530" y="1319" type="curve" smooth="yes"/>
      <point x="366" y="1319"/>
      <point x="331" y="1281"/>
      <point x="331" y="1032" type="curve" smooth="no"/>
      <point x="615" y="1032" type="line" smooth="no"/>
      <point x="615" y="945" type="line" smooth="no"/>
      <point x="323" y="945" type="line" smooth="no"/>
      <point x="323" y="0" type="line" smooth="no"/>
    </contour>
  </outline>
</glyph>
<glyph name="g" format="1">
  <advance width="1162"/>
  <unicode hex="0067"/>
  <outline>
    <contour>
      <point x="544" y="82" type="curve" smooth="yes"/>
      <point x="660" y="82"/>
      <point x="799" y="112"/>
      <point x="902" y="238" type="curve" smooth="no"/>
      <point x="902" y="758" type="line" smooth="no"/>
      <point x="812" y="915"/>
      <point x="684" y="956"/>
      <point x="580" y="956" type="curve" smooth="yes"/>
      <point x="241" y="956"/>
      <point x="226" y="673"/>
      <point x="226" y="499" type="curve" smooth="yes"/>
      <point x="226" y="286"/>
      <point x="322" y="82"/>
    </contour>
    <contour>
      <point x="594" y="-391" type="curve" smooth="yes"/>
      <point x="391" y="-391"/>
      <point x="267" y="-314"/>
      <point x="267" y="-314" type="curve" smooth="no"/>
      <point x="296" y="-222" type="line" smooth="no"/>
      <point x="296" y="-222"/>
      <point x="427" y="-296"/>
      <point x="579" y="-296" type="curve" smooth="yes"/>
      <point x="808" y="-296"/>
      <point x="899" y="-207"/>
      <point x="896" y="25" type="curve" smooth="no"/>
      <point x="896" y="136" type="line" smooth="no"/>
      <point x="817" y="25"/>
      <point x="684" y="-19"/>
      <point x="549" y="-19" type="curve" smooth="yes"/>
      <point x="296" y="-19"/>
      <point x="105" y="177"/>
      <point x="105" y="496" type="curve" smooth="yes"/>
      <point x="105" y="858"/>
      <point x="283" y="1057"/>
      <point x="554" y="1057" type="curve" smooth="yes"/>
      <point x="732" y="1057"/>
      <point x="840" y="970"/>
      <point x="902" y="866" type="curve" smooth="no"/>
      <point x="902" y="1032" type="line" smooth="no"/>
      <point x="1031" y="1032" type="line" smooth="no"/>
      <point x="1031" y="163" type="line" smooth="yes"/>
      <point x="1031" y="-259"/>
      <point x="920" y="-391"/>
    </contour>
  </outline>
</glyph>
<glyph name="h" format="1">
  <advance width="1150"/>
  <unicode hex="0068"/>
  <outline>
    <contour>
      <point x="166" y="0" type="line"/>
      <point x="166" y="1481" type="line"/>
      <point x="294" y="1481" type="line"/>
      <point x="294" y="854" type="line"/>
      <point x="389" y="986"/>
      <point x="567" y="1057"/>
      <point x="694" y="1057" type="curve" smooth="yes"/>
      <point x="888" y="1057"/>
      <point x="1032" y="935"/>
      <point x="1032" y="692" type="curve" smooth="yes"/>
      <point x="1032" y="2" type="line"/>
      <point x="904" y="2" type="line"/>
      <point x="904" y="694" type="line" smooth="yes"/>
      <point x="904" y="922"/>
      <point x="771" y="956"/>
      <point x="688" y="956" type="curve" smooth="yes"/>
      <point x="478" y="956"/>
      <point x="294" y="772"/>
      <point x="294" y="731" type="curve" smooth="yes"/>
      <point x="294" y="0" type="line"/>
    </contour>
  </outline>
</glyph>
<glyph name="i" format="1">
  <advance width="476"/>
  <unicode hex="0069"/>
  <outline>
    <contour>
      <point x="239" y="1221" type="curve" smooth="yes"/>
      <point x="168" y="1221"/>
      <point x="136" y="1272"/>
      <point x="136" y="1323" type="curve" smooth="yes"/>
      <point x="136" y="1375"/>
      <point x="166" y="1426"/>
      <point x="239" y="1426" type="curve" smooth="yes"/>
      <point x="309" y="1426"/>
      <point x="340" y="1374"/>
      <point x="340" y="1323" type="curve" smooth="yes"/>
      <point x="340" y="1272"/>
      <point x="310" y="1221"/>
    </contour>
    <contour>
      <point x="163" y="0" type="line"/>
      <point x="163" y="1032" type="line"/>
      <point x="292" y="1032" type="line"/>
      <point x="292" y="0" type="line"/>
    </contour>
  </outline>
</glyph>
<glyph name="j" format="1">
  <advance width="494"/>
  <unicode hex="006a"/>
  <outline>
    <contour>
      <point x="275" y="1221" type="curve" smooth="yes"/>
      <point x="204" y="1221"/>
      <point x="171" y="1276"/>
      <point x="171" y="1323" type="curve" smooth="yes"/>
      <point x="171" y="1377"/>
      <point x="201" y="1428"/>
      <point x="275" y="1428" type="curve" smooth="yes"/>
      <point x="345" y="1428"/>
      <point x="377" y="1376"/>
      <point x="377" y="1325" type="curve" smooth="yes"/>
      <point x="377" y="1274"/>
      <point x="344" y="1221"/>
    </contour>
    <contour>
      <point x="102" y="-368" type="curve" smooth="yes"/>
      <point x="0" y="-368"/>
      <point x="-40" y="-362"/>
      <point x="-40" y="-362" type="curve" smooth="no"/>
      <point x="-40" y="-254" type="line" smooth="no"/>
      <point x="-69" y="-252"/>
      <point x="31" y="-256"/>
      <point x="62" y="-256" type="curve" smooth="yes"/>
      <point x="148" y="-256"/>
      <point x="197" y="-246"/>
      <point x="197" y="-34" type="curve" smooth="yes"/>
      <point x="197" y="1032" type="line" smooth="no"/>
      <point x="326" y="1032" type="line" smooth="no"/>
      <point x="326" y="26" type="line" smooth="yes"/>
      <point x="326" y="-190"/>
      <point x="332" y="-368"/>
    </contour>
  </outline>
</glyph>
<glyph name="k" format="1">
  <advance width="1047"/>
  <unicode hex="006B"/>
  <outline>
    <contour>
      <point x="126" y="0" type="line"/>
      <point x="126" y="1481" type="line"/>
      <point x="254" y="1481" type="line"/>
      <point x="254" y="570" type="line"/>
      <point x="807" y="1032" type="line"/>
      <point x="960" y="1032" type="line"/>
      <point x="960" y="1009" type="line"/>
      <point x="515" y="633" type="line"/>
      <point x="1020" y="28" type="line"/>
      <point x="1020" y="0" type="line"/>
      <point x="887" y="0" type="line"/>
      <point x="419" y="577" type="line"/>
      <point x="254" y="451" type="line"/>
      <point x="254" y="0" type="line"/>
    </contour>
  </outline>
</glyph>
<glyph name="l" format="1">
  <advance width="567"/>
  <unicode hex="006C"/>
  <outline>
    <contour>
      <point x="435" y="-11" type="line" smooth="yes"/>
      <point x="191" y="-11"/>
      <point x="150" y="75"/>
      <point x="150" y="285" type="curve" smooth="yes"/>
      <point x="150" y="1481" type="line"/>
      <point x="279" y="1481" type="line"/>
      <point x="279" y="319" type="line" smooth="yes"/>
      <point x="279" y="152"/>
      <point x="258" y="93"/>
      <point x="496" y="93" type="curve"/>
      <point x="496" y="-11" type="line"/>
    </contour>
  </outline>
</glyph>
<glyph name="m" format="1">
  <advance width="1662"/>
  <unicode hex="006d"/>
  <outline>
    <contour>
      <point x="126" y="0" type="line" smooth="no"/>
      <point x="126" y="1032" type="line" smooth="no"/>
      <point x="254" y="1032" type="line" smooth="no"/>
      <point x="254" y="867" type="line" smooth="no"/>
      <point x="318" y="960"/>
      <point x="453" y="1057"/>
      <point x="606" y="1057" type="curve" smooth="yes"/>
      <point x="721" y="1057"/>
      <point x="831" y="1026"/>
      <point x="876" y="887" type="curve" smooth="no"/>
      <point x="965" y="1007"/>
      <point x="1120" y="1057"/>
      <point x="1240" y="1057" type="curve" smooth="yes"/>
      <point x="1415" y="1057"/>
      <point x="1548" y="939"/>
      <point x="1550" y="681" type="curve" smooth="no"/>
      <point x="1550" y="0" type="line" smooth="no"/>
      <point x="1421" y="0" type="line" smooth="no"/>
      <point x="1421" y="692" type="line" smooth="yes"/>
      <point x="1421" y="870"/>
      <point x="1350" y="956"/>
      <point x="1227" y="956" type="curve" smooth="yes"/>
      <point x="1069" y="956"/>
      <point x="902" y="816"/>
      <point x="902" y="780" type="curve" smooth="yes"/>
      <point x="902" y="0" type="line" smooth="no"/>
      <point x="774" y="0" type="line" smooth="no"/>
      <point x="774" y="716" type="line" smooth="yes"/>
      <point x="774" y="870"/>
      <point x="684" y="956"/>
      <point x="587" y="956" type="curve" smooth="yes"/>
      <point x="428" y="956"/>
      <point x="297" y="819"/>
      <point x="254" y="756" type="curve" smooth="no"/>
      <point x="254" y="0" type="line" smooth="no"/>
    </contour>
  </outline>
</glyph>
<glyph name="n" format="1">
  <advance width="1143"/>
  <unicode hex="006E"/>
  <outline>
    <contour>
      <point x="126" y="0" type="line"/>
      <point x="126" y="1032" type="line"/>
      <point x="254" y="1032" type="line"/>
      <point x="254" y="854" type="line"/>
      <point x="358" y="987"/>
      <point x="524" y="1057"/>
      <point x="666" y="1057" type="curve" smooth="yes"/>
      <point x="885" y="1057"/>
      <point x="1030" y="933"/>
      <point x="1030" y="690" type="curve" smooth="yes"/>
      <point x="1030" y="0" type="line"/>
      <point x="902" y="0" type="line"/>
      <point x="902" y="752" type="line" smooth="yes"/>
      <point x="902" y="908"/>
      <point x="754" y="956"/>
      <point x="665" y="956" type="curve" smooth="yes"/>
      <point x="423" y="956"/>
      <point x="254" y="790"/>
      <point x="254" y="749" type="curve" smooth="yes"/>
      <point x="254" y="0" type="line"/>
    </contour>
  </outline>
</glyph>
<glyph name="o" format="1">
  <advance width="1194"/>
  <unicode hex="006F"/>
  <outline>
    <contour>
      <point x="594" y="-19" type="curve" smooth="yes"/>
      <point x="366" y="-19"/>
      <point x="105" y="122"/>
      <point x="105" y="524" type="curve" smooth="yes"/>
      <point x="105" y="924"/>
      <point x="382" y="1057"/>
      <point x="594" y="1057" type="curve" smooth="yes"/>
      <point x="826" y="1057"/>
      <point x="1089" y="926"/>
      <point x="1089" y="524" type="curve" smooth="yes"/>
      <point x="1089" y="127"/>
      <point x="826" y="-19"/>
    </contour>
    <contour>
      <point x="595" y="82" type="curve" smooth="yes"/>
      <point x="832" y="82"/>
      <point x="964" y="285"/>
      <point x="964" y="527" type="curve" smooth="yes"/>
      <point x="964" y="789"/>
      <point x="817" y="956"/>
      <point x="594" y="956" type="curve" smooth="yes"/>
      <point x="394" y="956"/>
      <point x="226" y="791"/>
      <point x="226" y="525" type="curve" smooth="yes"/>
      <point x="226" y="274"/>
      <point x="351.6" y="82"/>
    </contour>
  </outline>
</glyph>
<glyph name="p" format="1">
  <advance width="1164"/>
  <unicode hex="0070"/>
  <outline>
    <contour>
      <point x="587" y="82" type="curve" smooth="yes"/>
      <point x="775" y="82"/>
      <point x="928" y="204"/>
      <point x="928" y="514" type="curve" smooth="yes"/>
      <point x="928" y="725"/>
      <point x="872" y="956"/>
      <point x="622" y="956" type="curve" smooth="yes"/>
      <point x="509" y="956"/>
      <point x="351" y="894"/>
      <point x="264" y="763" type="curve"/>
      <point x="264" y="251" type="line"/>
      <point x="370" y="99"/>
      <point x="539" y="82"/>
    </contour>
    <contour>
      <point x="136" y="-386" type="line"/>
      <point x="136" y="1032" type="line"/>
      <point x="264" y="1032" type="line"/>
      <point x="264" y="853" type="line"/>
      <point x="346" y="988"/>
      <point x="485" y="1057"/>
      <point x="611" y="1057" type="curve" smooth="yes"/>
      <point x="881" y="1057"/>
      <point x="1059" y="882"/>
      <point x="1059" y="512" type="curve" smooth="yes"/>
      <point x="1059" y="157"/>
      <point x="853" y="-24"/>
      <point x="614" y="-19" type="curve" smooth="yes"/>
      <point x="480" y="-16"/>
      <point x="348" y="26"/>
      <point x="264" y="151" type="curve"/>
      <point x="264" y="-386" type="line"/>
    </contour>
  </outline>
</glyph>
<glyph name="q" format="1">
  <advance width="1165"/>
  <unicode hex="0071"/>
  <outline>
    <contour>
      <point x="562" y="82" type="curve" smooth="yes"/>
      <point x="616" y="82"/>
      <point x="782" y="92"/>
      <point x="901" y="238" type="curve"/>
      <point x="901" y="758" type="line"/>
      <point x="826" y="912"/>
      <point x="660" y="956"/>
      <point x="573" y="956" type="curve" smooth="yes"/>
      <point x="283" y="956"/>
      <point x="225" y="730"/>
      <point x="225" y="506" type="curve" smooth="yes"/>
      <point x="225" y="246"/>
      <point x="340" y="82"/>
    </contour>
    <contour>
      <point x="901" y="-386" type="line"/>
      <point x="901" y="139" type="line"/>
      <point x="821" y="36"/>
      <point x="699" y="-19"/>
      <point x="557" y="-19" type="curve" smooth="yes"/>
      <point x="316" y="-19"/>
      <point x="104" y="155"/>
      <point x="104" y="506" type="curve" smooth="yes"/>
      <point x="104" y="874"/>
      <point x="288" y="1057"/>
      <point x="563" y="1057" type="curve" smooth="yes"/>
      <point x="688" y="1057"/>
      <point x="825" y="1011"/>
      <point x="901" y="869" type="curve"/>
      <point x="901" y="1032" type="line"/>
      <point x="1030" y="1032" type="line"/>
      <point x="1030" y="-386" type="line"/>
    </contour>
  </outline>
</glyph>
<glyph name="r" format="1">
  <advance width="658"/>
  <unicode hex="0072"/>
  <outline>
    <contour>
      <point x="136" y="0" type="line"/>
      <point x="136" y="1032" type="line"/>
      <point x="264" y="1032" type="line"/>
      <point x="264" y="854" type="line"/>
      <point x="265" y="854" type="line"/>
      <point x="319" y="931"/>
      <point x="409" y="1035"/>
      <point x="536" y="1035" type="curve" smooth="yes"/>
      <point x="572" y="1035"/>
      <point x="596" y="1031"/>
      <point x="619" y="1020" type="curve"/>
      <point x="619" y="921" type="line"/>
      <point x="619" y="921"/>
      <point x="592" y="927"/>
      <point x="542" y="927" type="curve" smooth="yes"/>
      <point x="450" y="927"/>
      <point x="350" y="874"/>
      <point x="264" y="784" type="curve"/>
      <point x="264" y="0" type="line"/>
    </contour>
  </outline>
</glyph>
<glyph name="s" format="1">
  <advance width="932"/>
  <unicode hex="0073"/>
  <outline>
    <contour>
      <point x="465" y="-19" type="curve" smooth="yes"/>
      <point x="338" y="-19"/>
      <point x="200" y="10"/>
      <point x="100" y="74" type="curve"/>
      <point x="143" y="161" type="line"/>
      <point x="154" y="161" type="line"/>
      <point x="268" y="108"/>
      <point x="335" y="82"/>
      <point x="481" y="82" type="curve" smooth="yes"/>
      <point x="623" y="82"/>
      <point x="733" y="132"/>
      <point x="733" y="276" type="curve" smooth="yes"/>
      <point x="733" y="380"/>
      <point x="694" y="445"/>
      <point x="479" y="491" type="curve" smooth="yes"/>
      <point x="278" y="534"/>
      <point x="95" y="578"/>
      <point x="95" y="781" type="curve" smooth="yes"/>
      <point x="95" y="962"/>
      <point x="234" y="1057"/>
      <point x="466" y="1057" type="curve" smooth="yes"/>
      <point x="606" y="1057"/>
      <point x="706" y="1015"/>
      <point x="784" y="977" type="curve"/>
      <point x="739" y="889" type="line"/>
      <point x="728" y="889" type="line"/>
      <point x="680" y="918"/>
      <point x="587" y="956"/>
      <point x="473" y="956" type="curve" smooth="yes"/>
      <point x="379" y="956"/>
      <point x="209" y="937"/>
      <point x="209" y="794" type="curve" smooth="yes"/>
      <point x="209" y="689"/>
      <point x="247" y="645"/>
      <point x="504" y="591" type="curve" smooth="yes"/>
      <point x="746" y="540"/>
      <point x="836" y="457"/>
      <point x="836" y="278" type="curve" smooth="yes"/>
      <point x="836" y="87"/>
      <point x="720" y="-19"/>
    </contour>
  </outline>
</glyph>
<glyph name="t" format="1">
  <advance width="734"/>
  <unicode hex="0074"/>
  <outline>
    <contour>
      <point x="506" y="-13" type="curve" smooth="yes"/>
      <point x="259" y="-13"/>
      <point x="189" y="91"/>
      <point x="189" y="328" type="curve" smooth="yes"/>
      <point x="189" y="941" type="line" smooth="no"/>
      <point x="31" y="941" type="line" smooth="no"/>
      <point x="31" y="1032" type="line" smooth="no"/>
      <point x="189" y="1032" type="line" smooth="no"/>
      <point x="189" y="1316" type="line" smooth="no"/>
      <point x="317" y="1349" type="line" smooth="no"/>
      <point x="317" y="1032" type="line" smooth="no"/>
      <point x="657" y="1032" type="line" smooth="no"/>
      <point x="657" y="941" type="line" smooth="no"/>
      <point x="317" y="941" type="line" smooth="no"/>
      <point x="317" y="319" type="line" smooth="yes"/>
      <point x="317" y="154"/>
      <point x="374" y="79"/>
      <point x="503" y="79" type="curve" smooth="yes"/>
      <point x="552" y="79"/>
      <point x="657" y="94"/>
      <point x="657" y="93" type="curve" smooth="yes"/>
      <point x="657" y="5" type="line" smooth="no"/>
      <point x="590" y="-8"/>
      <point x="551" y="-13"/>
    </contour>
  </outline>
</glyph>
<glyph name="u" format="1">
  <advance width="1143.0"/>
  <unicode hex="0075"/>
  <outline>
    <contour>
      <point x="1017.0" y="1032.0" type="line"/>
      <point x="889.0" y="1032.0" type="line"/>
      <point x="889.0" y="283.0" type="line" smooth="yes"/>
      <point x="889.0" y="242.0"/>
      <point x="720.0" y="76.0"/>
      <point x="478.0" y="76.0" type="curve" smooth="yes"/>
      <point x="389.0" y="76.0"/>
      <point x="241.0" y="124.0"/>
      <point x="241.0" y="280.0" type="curve" smooth="yes"/>
      <point x="241.0" y="1032.0" type="line"/>
      <point x="113.0" y="1032.0" type="line"/>
      <point x="113.0" y="342.0" type="line" smooth="yes"/>
      <point x="113.0" y="99.0"/>
      <point x="258.0" y="-25.0"/>
      <point x="477.0" y="-25.0" type="curve" smooth="yes"/>
      <point x="619.0" y="-25.0"/>
      <point x="785.0" y="45.0"/>
      <point x="889.0" y="178.0" type="curve"/>
      <point x="889.0" y="0.0" type="line"/>
      <point x="1017.0" y="0.0" type="line"/>
    </contour>
  </outline>
</glyph>
<glyph name="v" format="1">
  <advance width="1058"/>
  <unicode hex="0076"/>
  <outline>
    <contour>
      <point x="443" y="0" type="line"/>
      <point x="21" y="1032" type="line"/>
      <point x="154" y="1032" type="line"/>
      <point x="488" y="179" type="line" smooth="yes"/>
      <point x="520" y="95"/>
      <point x="506" y="134"/>
      <point x="538" y="49" type="curve"/>
      <point x="541" y="49" type="line"/>
      <point x="571" y="134"/>
      <point x="558" y="95"/>
      <point x="589" y="179" type="curve" smooth="yes"/>
      <point x="894" y="1032" type="line"/>
      <point x="1037" y="1032" type="line"/>
      <point x="627" y="0" type="line"/>
    </contour>
  </outline>
</glyph>
<glyph name="w" format="1">
  <advance width="1568"/>
  <unicode hex="0077"/>
  <outline>
    <contour>
      <point x="364" y="0" type="line"/>
      <point x="68" y="1032" type="line"/>
      <point x="173" y="1032" type="line"/>
      <point x="286" y="619"/>
      <point x="275" y="714"/>
      <point x="390" y="289" type="curve" smooth="yes"/>
      <point x="417" y="182"/>
      <point x="412" y="198"/>
      <point x="439" y="93" type="curve"/>
      <point x="440" y="93" type="line"/>
      <point x="465" y="198"/>
      <point x="462" y="184"/>
      <point x="489" y="291" type="curve" smooth="yes"/>
      <point x="601" y="716"/>
      <point x="694" y="1032"/>
      <point x="694" y="1032" type="curve"/>
      <point x="884" y="1032" type="line"/>
      <point x="884" y="1032"/>
      <point x="976" y="727"/>
      <point x="1088" y="303" type="curve" smooth="yes"/>
      <point x="1115" y="198"/>
      <point x="1111" y="208"/>
      <point x="1136" y="105" type="curve"/>
      <point x="1163" y="208"/>
      <point x="1161" y="197"/>
      <point x="1188" y="302" type="curve"/>
      <point x="1297" y="722"/>
      <point x="1272" y="625"/>
      <point x="1382" y="1032" type="curve"/>
      <point x="1500" y="1032" type="line"/>
      <point x="1203" y="0" type="line"/>
      <point x="1051" y="0" type="line"/>
      <point x="800" y="983" type="line"/>
      <point x="797" y="983" type="line"/>
      <point x="527" y="0" type="line"/>
    </contour>
  </outline>
</glyph>
<glyph name="x" format="1">
  <advance width="1144"/>
  <unicode hex="0078"/>
  <outline>
    <contour>
      <point x="63" y="0" type="line"/>
      <point x="493" y="511" type="line"/>
      <point x="56" y="1032" type="line"/>
      <point x="208" y="1032" type="line"/>
      <point x="353" y="850"/>
      <point x="326" y="879"/>
      <point x="474" y="699" type="curve" smooth="yes"/>
      <point x="521" y="639"/>
      <point x="517" y="649"/>
      <point x="564" y="588" type="curve"/>
      <point x="611" y="646"/>
      <point x="613" y="646"/>
      <point x="660" y="707" type="curve" smooth="yes"/>
      <point x="808" y="887"/>
      <point x="774" y="850"/>
      <point x="920" y="1032" type="curve"/>
      <point x="1088" y="1032" type="line"/>
      <point x="646" y="507" type="line"/>
      <point x="1081" y="0" type="line"/>
      <point x="929" y="0" type="line"/>
      <point x="767" y="202"/>
      <point x="783" y="167"/>
      <point x="622" y="368" type="curve"/>
      <point x="589" y="408"/>
      <point x="602" y="393"/>
      <point x="568" y="433" type="curve"/>
      <point x="517" y="368" type="line"/>
      <point x="219" y="0" type="line"/>
    </contour>
  </outline>
</glyph>
<glyph name="y" format="1">
  <advance width="1064"/>
  <unicode hex="0079"/>
  <outline>
    <contour>
      <point x="320" y="-391" type="line" smooth="no"/>
      <point x="372" y="-302"/>
      <point x="417" y="-182"/>
      <point x="464" y="-63" type="curve" smooth="no"/>
      <point x="21" y="1032" type="line" smooth="no"/>
      <point x="160" y="1032" type="line" smooth="no"/>
      <point x="533" y="66" type="line" smooth="no"/>
      <point x="906" y="1032" type="line" smooth="no"/>
      <point x="1049" y="1032" type="line" smooth="no"/>
      <point x="588" y="-102" type="line" smooth="no"/>
      <point x="531" y="-230"/>
      <point x="455" y="-389"/>
      <point x="457" y="-391" type="curve" smooth="no"/>
    </contour>
  </outline>
</glyph>
<glyph name="z" format="1">
  <advance width="941"/>
  <unicode hex="007a"/>
  <outline>
    <contour>
      <point x="105" y="0" type="line" smooth="no"/>
      <point x="105" y="108" type="line" smooth="no"/>
      <point x="707" y="941" type="line" smooth="no"/>
      <point x="131" y="941" type="line" smooth="no"/>
      <point x="131" y="1032" type="line" smooth="no"/>
      <point x="860" y="1032" type="line" smooth="no"/>
      <point x="860" y="934" type="line" smooth="no"/>
      <point x="249" y="91" type="line" smooth="no"/>
      <point x="866" y="91" type="line" smooth="no"/>
      <point x="866" y="0" type="line" smooth="no"/>
    </contour>
  </outline>
</glyph>
<glyph name="braceleft" format="1">
  <advance width="670"/>
  <unicode hex="007b"/>
  <outline>
    <contour>
      <point x="576" y="-50" type="line" smooth="yes"/>
      <point x="376" y="-50"/>
      <point x="271" y="-11"/>
      <point x="271" y="209" type="curve" smooth="yes"/>
      <point x="271" y="404" type="line" smooth="yes"/>
      <point x="271" y="614"/>
      <point x="190" y="726"/>
      <point x="-31" y="726" type="curve" smooth="no"/>
      <point x="-31" y="845" type="line" smooth="no"/>
      <point x="188" y="845"/>
      <point x="271" y="963"/>
      <point x="271" y="1166" type="curve" smooth="yes"/>
      <point x="271" y="1328" type="line" smooth="yes"/>
      <point x="271" y="1585"/>
      <point x="378" y="1622"/>
      <point x="628" y="1622" type="curve" smooth="yes"/>
      <point x="696" y="1622" type="line" smooth="no"/>
      <point x="696" y="1527" type="line" smooth="no"/>
      <point x="517" y="1527" type="line" smooth="yes"/>
      <point x="423" y="1527"/>
      <point x="407" y="1476"/>
      <point x="407" y="1441" type="curve" smooth="yes"/>
      <point x="407" y="1174" type="line" smooth="yes"/>
      <point x="407" y="955"/>
      <point x="337" y="834"/>
      <point x="181" y="787" type="curve" smooth="no"/>
      <point x="181" y="782" type="line" smooth="no"/>
      <point x="360" y="728"/>
      <point x="407" y="603"/>
      <point x="407" y="358" type="curve" smooth="yes"/>
      <point x="407" y="88" type="line" smooth="yes"/>
      <point x="407" y="81"/>
      <point x="435" y="45"/>
      <point x="524" y="45" type="curve" smooth="yes"/>
      <point x="696" y="45" type="line" smooth="no"/>
      <point x="696" y="-50" type="line" smooth="no"/>
    </contour>
  </outline>
</glyph>
<glyph name="bar" format="1">
  <advance width="340"/>
  <unicode hex="007c"/>
  <outline>
    <contour>
      <point x="106" y="-272" type="line" smooth="no"/>
      <point x="106" y="1481" type="line" smooth="no"/>
      <point x="234" y="1481" type="line" smooth="no"/>
      <point x="234" y="-272" type="line" smooth="no"/>
    </contour>
  </outline>
</glyph>
<glyph name="braceright" format="1">
  <advance width="670"/>
  <unicode hex="007d"/>
  <outline>
    <contour>
      <point x="-25" y="-50" type="line" smooth="no"/>
      <point x="-25" y="43" type="line" smooth="no"/>
      <point x="151" y="43" type="line" smooth="yes"/>
      <point x="245" y="43"/>
      <point x="262" y="92"/>
      <point x="262" y="127" type="curve" smooth="yes"/>
      <point x="262" y="398" type="line" smooth="yes"/>
      <point x="262" y="617"/>
      <point x="332" y="735"/>
      <point x="488" y="782" type="curve" smooth="no"/>
      <point x="488" y="787" type="line" smooth="no"/>
      <point x="309" y="841"/>
      <point x="262" y="969"/>
      <point x="262" y="1215" type="curve" smooth="yes"/>
      <point x="262" y="1482" type="line" smooth="yes"/>
      <point x="262" y="1489"/>
      <point x="234" y="1524"/>
      <point x="145" y="1524" type="curve" smooth="yes"/>
      <point x="-25" y="1524" type="line" smooth="no"/>
      <point x="-25" y="1622" type="line" smooth="no"/>
      <point x="96" y="1622" type="line" smooth="yes"/>
      <point x="297" y="1622"/>
      <point x="400" y="1578"/>
      <point x="400" y="1358" type="curve" smooth="yes"/>
      <point x="400" y="1166" type="line" smooth="yes"/>
      <point x="400" y="956"/>
      <point x="481" y="845"/>
      <point x="702" y="845" type="curve" smooth="no"/>
      <point x="702" y="726" type="line" smooth="no"/>
      <point x="483" y="726"/>
      <point x="400" y="606"/>
      <point x="400" y="403" type="curve" smooth="yes"/>
      <point x="400" y="241" type="line" smooth="yes"/>
      <point x="400" y="-17"/>
      <point x="295" y="-50"/>
      <point x="46" y="-50" type="curve" smooth="yes"/>
    </contour>
  </outline>
</glyph>
<glyph name="asciitilde" format="1">
  <advance width="1343"/>
  <unicode hex="007E"/>
  <outline>
    <contour>
      <point x="981" y="308" type="curve" smooth="yes"/>
      <point x="702" y="308"/>
      <point x="431" y="629"/>
      <point x="346" y="629" type="curve" smooth="yes"/>
      <point x="261" y="629"/>
      <point x="226" y="536"/>
      <point x="226" y="324" type="curve"/>
      <point x="78" y="364" type="line"/>
      <point x="94" y="696"/>
      <point x="208" y="788"/>
      <point x="336" y="788" type="curve" smooth="yes"/>
      <point x="534" y="788"/>
      <point x="814" y="463"/>
      <point x="993" y="463" type="curve" smooth="yes"/>
      <point x="1085" y="463"/>
      <point x="1117" y="557"/>
      <point x="1117" y="771" type="curve"/>
      <point x="1267" y="746" type="line"/>
      <point x="1250" y="473"/>
      <point x="1208" y="308"/>
    </contour>
  </outline>
</glyph>
<glyph name="exclamdown" format="1">
  <advance width="469"/>
  <unicode hex="00a1"/>
  <outline>
    <contour>
      <point x="379" y="582" type="line" smooth="no"/>
      <point x="444" y="-430" type="line" smooth="no"/>
      <point x="275" y="-430" type="line" smooth="no"/>
      <point x="337" y="582" type="line" smooth="no"/>
    </contour>
    <contour>
      <point x="360" y="1048" type="curve" smooth="yes"/>
      <point x="433" y="1048"/>
      <point x="496" y="990"/>
      <point x="496" y="915" type="curve" smooth="yes"/>
      <point x="496" y="841"/>
      <point x="433" y="782"/>
      <point x="360" y="782" type="curve" smooth="yes"/>
      <point x="287" y="782"/>
      <point x="223" y="841"/>
      <point x="223" y="915" type="curve" smooth="yes"/>
      <point x="223" y="990"/>
      <point x="287" y="1048"/>
    </contour>
  </outline>
</glyph>
<glyph name="cent" format="1">
  <advance width="912"/>
  <unicode hex="00a2"/>
  <outline>
    <contour>
      <point x="514" y="-19" type="line" smooth="no"/>
      <point x="644" y="-15"/>
      <point x="751" y="24"/>
      <point x="801" y="64" type="curve" smooth="no"/>
      <point x="772" y="155" type="line" smooth="no"/>
      <point x="760" y="150"/>
      <point x="642" y="92"/>
      <point x="514" y="83" type="curve" smooth="no"/>
    </contour>
    <contour>
      <point x="514" y="-19" type="line" smooth="no"/>
      <point x="514" y="-289" type="line" smooth="no"/>
      <point x="444" y="-289" type="line" smooth="no"/>
      <point x="444" y="-18" type="line" smooth="no"/>
      <point x="459" y="-19"/>
      <point x="474" y="-19"/>
      <point x="490" y="-19" type="curve" smooth="yes"/>
    </contour>
    <contour>
      <point x="514" y="83" type="line" smooth="no"/>
      <point x="503" y="82"/>
      <point x="491" y="82"/>
      <point x="480" y="82" type="curve" smooth="yes"/>
      <point x="468" y="82"/>
      <point x="456" y="82"/>
      <point x="444" y="83" type="curve" smooth="no"/>
      <point x="444" y="954" type="line" smooth="no"/>
      <point x="453" y="955"/>
      <point x="461" y="955"/>
      <point x="470" y="955" type="curve" smooth="yes"/>
      <point x="485" y="955"/>
      <point x="500" y="954"/>
      <point x="514" y="953" type="curve" smooth="no"/>
    </contour>
    <contour>
      <point x="514" y="953" type="line" smooth="no"/>
      <point x="677" y="941"/>
      <point x="787" y="869"/>
      <point x="781" y="879" type="curve" smooth="no"/>
      <point x="814" y="971" type="line" smooth="no"/>
      <point x="713" y="1026"/>
      <point x="616" y="1049"/>
      <point x="514" y="1054" type="curve" smooth="no"/>
    </contour>
    <contour>
      <point x="514" y="1054" type="line" smooth="no"/>
      <point x="498" y="1055"/>
      <point x="482" y="1055"/>
      <point x="465" y="1055" type="curve" smooth="yes"/>
      <point x="444" y="1055" type="line" smooth="no"/>
      <point x="444" y="1302" type="line" smooth="no"/>
      <point x="514" y="1302" type="line" smooth="no"/>
    </contour>
    <contour>
      <point x="444" y="83" type="line" smooth="no"/>
      <point x="220" y="100"/>
      <point x="86" y="280"/>
      <point x="86" y="510" type="curve" smooth="yes"/>
      <point x="86" y="754"/>
      <point x="223" y="940"/>
      <point x="444" y="954" type="curve" smooth="no"/>
      <point x="444" y="1055" type="line" smooth="no"/>
      <point x="179" y="1045"/>
      <point x="-35" y="844"/>
      <point x="-35" y="511" type="curve" smooth="yes"/>
      <point x="-35" y="165"/>
      <point x="162" y="-2"/>
      <point x="444" y="-18" type="curve" smooth="no"/>
    </contour>
  </outline>
</glyph>
<glyph name="sterling" format="1">
  <advance width="1219"/>
  <unicode hex="00a3"/>
  <outline>
    <contour>
      <point x="817" y="-44" type="curve" smooth="yes"/>
      <point x="659" y="-44"/>
      <point x="461" y="10"/>
      <point x="300" y="10" type="curve" smooth="yes"/>
      <point x="231" y="10"/>
      <point x="163" y="-9"/>
      <point x="87" y="-19" type="curve" smooth="no"/>
      <point x="87" y="88" type="line" smooth="no"/>
      <point x="152" y="95"/>
      <point x="230" y="98"/>
      <point x="267" y="107" type="curve" smooth="no"/>
      <point x="400" y="413"/>
      <point x="400" y="563"/>
      <point x="400" y="616" type="curve" smooth="yes"/>
      <point x="400" y="738"/>
      <point x="384" y="740"/>
      <point x="384" y="740" type="curve" smooth="no"/>
      <point x="96" y="740" type="line" smooth="no"/>
      <point x="96" y="809" type="line" smooth="no"/>
      <point x="369" y="809" type="line" smooth="no"/>
      <point x="338" y="961"/>
      <point x="238" y="1102"/>
      <point x="238" y="1212" type="curve" smooth="yes"/>
      <point x="238" y="1392"/>
      <point x="455" y="1505"/>
      <point x="714" y="1505" type="curve" smooth="yes"/>
      <point x="865" y="1505"/>
      <point x="1014" y="1457"/>
      <point x="1071" y="1399" type="curve" smooth="no"/>
      <point x="1061" y="1292" type="line" smooth="no"/>
      <point x="1010" y="1292" type="line" smooth="no"/>
      <point x="932" y="1410"/>
      <point x="816" y="1409"/>
      <point x="727" y="1409" type="curve" smooth="yes"/>
      <point x="480" y="1409"/>
      <point x="387" y="1340"/>
      <point x="387" y="1181" type="curve" smooth="yes"/>
      <point x="387" y="1106"/>
      <point x="481" y="874"/>
      <point x="495" y="809" type="curve" smooth="no"/>
      <point x="971" y="809" type="line" smooth="no"/>
      <point x="971" y="740" type="line" smooth="no"/>
      <point x="516" y="740" type="line" smooth="no"/>
      <point x="516" y="730"/>
      <point x="523" y="580"/>
      <point x="523" y="570" type="curve" smooth="yes"/>
      <point x="523" y="470"/>
      <point x="419" y="219"/>
      <point x="351" y="112" type="curve" smooth="no"/>
      <point x="441" y="110"/>
      <point x="667" y="59"/>
      <point x="756" y="59" type="curve" smooth="yes"/>
      <point x="849" y="59"/>
      <point x="1023" y="110"/>
      <point x="1116" y="126" type="curve" smooth="no"/>
      <point x="1137" y="15" type="line" smooth="no"/>
      <point x="1029" y="-12"/>
      <point x="922" y="-44"/>
    </contour>
  </outline>
</glyph>
<glyph name="currency" format="1">
  <advance width="1063"/>
  <unicode hex="00a4"/>
  <outline>
    <contour>
      <point x="535" y="423" type="curve" smooth="yes"/>
      <point x="684" y="423"/>
      <point x="782" y="524"/>
      <point x="782" y="684" type="curve" smooth="yes"/>
      <point x="782" y="842"/>
      <point x="684" y="943"/>
      <point x="535" y="943" type="curve" smooth="yes"/>
      <point x="390" y="943"/>
      <point x="289" y="842"/>
      <point x="289" y="684" type="curve" smooth="yes"/>
      <point x="289" y="524"/>
      <point x="390" y="423"/>
    </contour>
    <contour>
      <point x="204" y="251" type="line" smooth="no"/>
      <point x="100" y="352" type="line" smooth="no"/>
      <point x="195" y="447" type="line" smooth="no"/>
      <point x="154" y="499"/>
      <point x="120" y="588"/>
      <point x="120" y="684" type="curve" smooth="yes"/>
      <point x="120" y="780"/>
      <point x="153" y="866"/>
      <point x="195" y="922" type="curve" smooth="no"/>
      <point x="100" y="1016" type="line" smooth="no"/>
      <point x="204" y="1115" type="line" smooth="no"/>
      <point x="297" y="1022" type="line" smooth="no"/>
      <point x="351" y="1064"/>
      <point x="440" y="1097"/>
      <point x="535" y="1097" type="curve" smooth="yes"/>
      <point x="631" y="1097"/>
      <point x="714" y="1065"/>
      <point x="771" y="1024" type="curve" smooth="no"/>
      <point x="865" y="1115" type="line" smooth="no"/>
      <point x="964" y="1016" type="line" smooth="no"/>
      <point x="872" y="922" type="line" smooth="no"/>
      <point x="914" y="866"/>
      <point x="947" y="780"/>
      <point x="947" y="684" type="curve" smooth="yes"/>
      <point x="947" y="588"/>
      <point x="914" y="499"/>
      <point x="872" y="445" type="curve" smooth="no"/>
      <point x="964" y="352" type="line" smooth="no"/>
      <point x="865" y="251" type="line" smooth="no"/>
      <point x="771" y="347" type="line" smooth="no"/>
      <point x="714" y="305"/>
      <point x="631" y="272"/>
      <point x="535" y="272" type="curve" smooth="yes"/>
      <point x="440" y="272"/>
      <point x="351" y="307"/>
      <point x="297" y="347" type="curve" smooth="no"/>
    </contour>
  </outline>
</glyph>
<glyph name="yen" format="1">
  <advance width="1418"/>
  <unicode hex="00a5"/>
  <outline>
    <contour>
      <point x="617" y="0" type="line" smooth="no"/>
      <point x="617" y="352" type="line" smooth="no"/>
      <point x="243" y="352" type="line" smooth="no"/>
      <point x="243" y="408" type="line" smooth="no"/>
      <point x="617" y="408" type="line" smooth="no"/>
      <point x="617" y="595" type="line" smooth="no"/>
      <point x="243" y="595" type="line" smooth="no"/>
      <point x="243" y="660" type="line" smooth="no"/>
      <point x="617" y="660" type="line" smooth="no"/>
      <point x="73" y="1481" type="line" smooth="no"/>
      <point x="193" y="1481" type="line" smooth="no"/>
      <point x="681" y="739.5" type="line" smooth="no"/>
      <point x="1212" y="1481" type="line" smooth="no"/>
      <point x="1345" y="1481" type="line" smooth="no"/>
      <point x="746" y="660" type="line" smooth="no"/>
      <point x="1129" y="660" type="line" smooth="no"/>
      <point x="1129" y="595" type="line" smooth="no"/>
      <point x="746" y="595" type="line" smooth="no"/>
      <point x="746" y="408" type="line" smooth="no"/>
      <point x="1129" y="408" type="line" smooth="no"/>
      <point x="1129" y="352" type="line" smooth="no"/>
      <point x="746" y="352" type="line" smooth="no"/>
      <point x="746" y="0" type="line" smooth="no"/>
    </contour>
  </outline>
</glyph>
<glyph name="brokenbar" format="1">
  <advance width="331"/>
  <unicode hex="00a6"/>
  <outline>
    <contour>
      <point x="106" y="623" type="line" smooth="no"/>
      <point x="106" y="1294" type="line" smooth="no"/>
      <point x="225" y="1294" type="line" smooth="no"/>
      <point x="225" y="623" type="line" smooth="no"/>
    </contour>
    <contour>
      <point x="106" y="-337" type="line" smooth="no"/>
      <point x="106" y="337" type="line" smooth="no"/>
      <point x="225" y="337" type="line" smooth="no"/>
      <point x="225" y="-337" type="line" smooth="no"/>
    </contour>
  </outline>
</glyph>
<glyph name="section" format="1">
  <advance width="977"/>
  <unicode hex="00a7"/>
  <outline>
    <contour>
      <point x="599" y="364" type="curve" smooth="no"/>
      <point x="600" y="363" type="line" smooth="no"/>
      <point x="694" y="391"/>
      <point x="750" y="443"/>
      <point x="750" y="575" type="curve" smooth="yes"/>
      <point x="750" y="638"/>
      <point x="729" y="707"/>
      <point x="505" y="756" type="curve" smooth="no"/>
      <point x="497" y="759"/>
      <point x="490" y="761"/>
      <point x="479" y="764" type="curve" smooth="no"/>
      <point x="298" y="761"/>
      <point x="203" y="691"/>
      <point x="203" y="575" type="curve" smooth="yes"/>
      <point x="203" y="476"/>
      <point x="252" y="433"/>
      <point x="548" y="375" type="curve" smooth="yes"/>
      <point x="571" y="370"/>
      <point x="577" y="369"/>
    </contour>
    <contour>
      <point x="491" y="-238" type="curve" smooth="no"/>
      <point x="359" y="-238"/>
      <point x="203" y="-213"/>
      <point x="99" y="-150" type="curve" smooth="no"/>
      <point x="121" y="-60" type="line" smooth="no"/>
      <point x="201" y="-95"/>
      <point x="320" y="-130"/>
      <point x="481" y="-130" type="curve" smooth="yes"/>
      <point x="678" y="-130"/>
      <point x="757" y="-90"/>
      <point x="757" y="60" type="curve" smooth="yes"/>
      <point x="757" y="153"/>
      <point x="729" y="234"/>
      <point x="505" y="283" type="curve" smooth="yes"/>
      <point x="297" y="329"/>
      <point x="94" y="360"/>
      <point x="94" y="563" type="curve" smooth="yes"/>
      <point x="94" y="697"/>
      <point x="145" y="786"/>
      <point x="273" y="821" type="curve" smooth="no"/>
      <point x="167" y="862"/>
      <point x="94" y="928"/>
      <point x="94" y="1051" type="curve" smooth="yes"/>
      <point x="94" y="1229"/>
      <point x="187" y="1323"/>
      <point x="429" y="1323" type="curve" smooth="yes"/>
      <point x="601" y="1323"/>
      <point x="725" y="1288"/>
      <point x="807" y="1252" type="curve" smooth="no"/>
      <point x="800" y="1134" type="line" smooth="no"/>
      <point x="776" y="1140"/>
      <point x="596" y="1209"/>
      <point x="453" y="1209" type="curve" smooth="yes"/>
      <point x="353" y="1209"/>
      <point x="224" y="1208"/>
      <point x="224" y="1056" type="curve" smooth="yes"/>
      <point x="224" y="946"/>
      <point x="270" y="915"/>
      <point x="541" y="842" type="curve" smooth="no"/>
      <point x="804" y="765"/>
      <point x="885" y="727"/>
      <point x="885" y="530" type="curve" smooth="yes"/>
      <point x="885" y="420"/>
      <point x="856" y="342"/>
      <point x="771" y="299" type="curve" smooth="no"/>
      <point x="852" y="251"/>
      <point x="885" y="174"/>
      <point x="885" y="55" type="curve" smooth="yes"/>
      <point x="885" y="-137"/>
      <point x="800" y="-233"/>
    </contour>
  </outline>
</glyph>
<glyph name="dieresis" format="1">
  <advance width="673"/>
  <unicode hex="00A8"/>
  <outline>
    <contour>
      <point x="135" y="1228" type="line"/>
      <point x="135" y="1365" type="line"/>
      <point x="261" y="1365" type="line"/>
      <point x="261" y="1228" type="line"/>
    </contour>
    <contour>
      <point x="412" y="1228" type="line"/>
      <point x="412" y="1365" type="line"/>
      <point x="538" y="1365" type="line"/>
      <point x="538" y="1228" type="line"/>
    </contour>
  </outline>
</glyph>
<glyph name="guillemotleft" format="1">
  <advance width="781"/>
  <unicode hex="00AB"/>
  <outline>
    <contour>
      <point x="805" y="184" type="line"/>
      <point x="805" y="184"/>
      <point x="515" y="396"/>
      <point x="331" y="533" type="curve"/>
      <point x="331" y="635" type="line"/>
      <point x="517" y="788"/>
      <point x="805" y="996"/>
      <point x="805" y="996" type="curve"/>
      <point x="805" y="857" type="line"/>
      <point x="394" y="580" type="line"/>
      <point x="394" y="580"/>
      <point x="756" y="329"/>
      <point x="805" y="300" type="curve"/>
    </contour>
    <contour>
      <point x="444" y="184" type="line"/>
      <point x="444" y="184"/>
      <point x="155" y="396"/>
      <point x="-28" y="533" type="curve"/>
      <point x="-28" y="635" type="line"/>
      <point x="157" y="788"/>
      <point x="444" y="996"/>
      <point x="444" y="996" type="curve"/>
      <point x="444" y="857" type="line"/>
      <point x="35" y="580" type="line"/>
      <point x="35" y="580"/>
      <point x="395" y="330"/>
      <point x="444" y="301" type="curve"/>
    </contour>
  </outline>
</glyph>
<glyph name="logicalnot" format="1">
  <advance width="1011"/>
  <unicode hex="00ac"/>
  <outline>
    <contour>
      <point x="900" y="412" type="line" smooth="no"/>
      <point x="900" y="753" type="line" smooth="no"/>
      <point x="101" y="753" type="line" smooth="no"/>
      <point x="101" y="775" type="line" smooth="no"/>
      <point x="906" y="775" type="line" smooth="no"/>
      <point x="906" y="412" type="line" smooth="no"/>
    </contour>
  </outline>
</glyph>
<glyph name="uni00AD" format="1">
  <advance width="790"/>
  <unicode hex="00ad"/>
  <outline>
    <contour>
      <point x="106" y="586" type="line" smooth="no"/>
      <point x="106" y="628" type="line" smooth="no"/>
      <point x="683" y="628" type="line" smooth="no"/>
      <point x="683" y="586" type="line" smooth="no"/>
    </contour>
  </outline>
</glyph>
<glyph name="macron" format="1">
  <advance width="764"/>
  <unicode hex="00af"/>
  <outline>
    <contour>
      <point x="97" y="1195" type="line" smooth="no"/>
      <point x="97" y="1262" type="line" smooth="no"/>
      <point x="658" y="1262" type="line" smooth="no"/>
      <point x="658" y="1195" type="line" smooth="no"/>
    </contour>
  </outline>
</glyph>
<glyph name="degree" format="1">
  <advance width="811"/>
  <unicode hex="00b0"/>
  <outline>
    <contour>
      <point x="406" y="760" type="curve" smooth="yes"/>
      <point x="229" y="760"/>
      <point x="98" y="897"/>
      <point x="98" y="1069" type="curve" smooth="yes"/>
      <point x="98" y="1239"/>
      <point x="231" y="1373"/>
      <point x="406" y="1373" type="curve" smooth="yes"/>
      <point x="585" y="1373"/>
      <point x="715" y="1239"/>
      <point x="715" y="1069" type="curve" smooth="yes"/>
      <point x="715" y="897"/>
      <point x="585" y="760"/>
    </contour>
    <contour>
      <point x="406" y="828" type="curve" smooth="yes"/>
      <point x="556" y="828"/>
      <point x="630" y="939"/>
      <point x="630" y="1069" type="curve" smooth="yes"/>
      <point x="630" y="1195"/>
      <point x="557" y="1304"/>
      <point x="406" y="1304" type="curve" smooth="yes"/>
      <point x="253" y="1304"/>
      <point x="181" y="1195"/>
      <point x="181" y="1069" type="curve" smooth="yes"/>
      <point x="181" y="940"/>
      <point x="257" y="828"/>
    </contour>
  </outline>
</glyph>
<glyph name="plusminus" format="1">
  <advance width="1225"/>
  <unicode hex="00b1"/>
  <outline>
    <contour>
      <point x="234" y="0" type="line" smooth="no"/>
      <point x="234" y="99" type="line" smooth="no"/>
      <point x="988" y="99" type="line" smooth="no"/>
      <point x="988" y="0" type="line" smooth="no"/>
    </contour>
    <contour>
      <point x="556" y="291" type="line" smooth="no"/>
      <point x="556" y="670" type="line" smooth="no"/>
      <point x="204" y="670" type="line" smooth="no"/>
      <point x="204" y="767" type="line" smooth="no"/>
      <point x="556" y="767" type="line" smooth="no"/>
      <point x="556" y="1120" type="line" smooth="no"/>
      <point x="648" y="1120" type="line" smooth="no"/>
      <point x="648" y="767" type="line" smooth="no"/>
      <point x="1022" y="767" type="line" smooth="no"/>
      <point x="1022" y="670" type="line" smooth="no"/>
      <point x="648" y="670" type="line" smooth="no"/>
      <point x="648" y="291" type="line" smooth="no"/>
    </contour>
  </outline>
</glyph>
<glyph name="uni00B2" format="1">
  <advance width="1523"/>
  <unicode hex="00b2"/>
  <outline>
    <contour>
      <point x="19" y="552" type="line" smooth="no"/>
      <point x="19" y="653" type="line" smooth="no"/>
      <point x="160" y="653" type="line" smooth="no"/>
      <point x="160" y="1240" type="line" smooth="no"/>
      <point x="5" y="1194" type="line" smooth="no"/>
      <point x="5" y="1277" type="line" smooth="no"/>
      <point x="86" y="1296"/>
      <point x="123" y="1332"/>
      <point x="144" y="1373" type="curve" smooth="no"/>
      <point x="294" y="1373" type="line" smooth="no"/>
      <point x="294" y="653" type="line" smooth="no"/>
      <point x="434" y="653" type="line" smooth="no"/>
      <point x="434" y="552" type="line" smooth="no"/>
    </contour>
    <contour>
      <point x="921" y="0" type="line" smooth="no"/>
      <point x="921" y="98" type="line" smooth="no"/>
      <point x="1085" y="258"/>
      <point x="1286" y="475"/>
      <point x="1286" y="601" type="curve" smooth="yes"/>
      <point x="1286" y="681"/>
      <point x="1254" y="727"/>
      <point x="1140" y="727" type="curve" smooth="yes"/>
      <point x="1084" y="727"/>
      <point x="988" y="689"/>
      <point x="957" y="661" type="curve" smooth="no"/>
      <point x="933" y="755" type="line" smooth="no"/>
      <point x="969" y="791"/>
      <point x="1078" y="829"/>
      <point x="1160" y="829" type="curve" smooth="yes"/>
      <point x="1319" y="829"/>
      <point x="1403" y="741"/>
      <point x="1403" y="603" type="curve" smooth="yes"/>
      <point x="1403" y="442"/>
      <point x="1267" y="294"/>
      <point x="1071" y="100" type="curve" smooth="no"/>
      <point x="1406" y="100" type="line" smooth="no"/>
      <point x="1406" y="0" type="line" smooth="no"/>
    </contour>
    <contour>
      <point x="256" y="0" type="line" smooth="no"/>
      <point x="1088" y="1430" type="line" smooth="no"/>
      <point x="1215" y="1430" type="line" smooth="no"/>
      <point x="383" y="0" type="line" smooth="no"/>
    </contour>
  </outline>
</glyph>
<glyph name="acute" format="1">
  <advance width="340"/>
  <unicode hex="00b4"/>
  <outline>
    <contour>
      <point x="-20" y="1110" type="line" smooth="no"/>
      <point x="172" y="1452" type="line" smooth="no"/>
      <point x="358" y="1452" type="line" smooth="no"/>
      <point x="73" y="1110" type="line" smooth="no"/>
    </contour>
  </outline>
</glyph>
<glyph name="paragraph" format="1">
  <advance width="1080"/>
  <unicode hex="00b6"/>
  <outline>
    <contour>
      <point x="588" y="-257" type="line" smooth="no"/>
      <point x="588" y="880" type="line" smooth="no"/>
      <point x="226" y="880"/>
      <point x="88" y="945"/>
      <point x="88" y="1184" type="curve" smooth="yes"/>
      <point x="88" y="1421"/>
      <point x="228" y="1481"/>
      <point x="595" y="1481" type="curve" smooth="yes"/>
      <point x="979" y="1481" type="line" smooth="no"/>
      <point x="979" y="-257" type="line" smooth="no"/>
      <point x="877" y="-257" type="line" smooth="no"/>
      <point x="877" y="1388" type="line" smooth="no"/>
      <point x="687" y="1388" type="line" smooth="no"/>
      <point x="687" y="-257" type="line" smooth="no"/>
    </contour>
  </outline>
</glyph>
<glyph name="periodcentered" format="1">
  <advance width="473"/>
  <unicode hex="00b7"/>
  <outline>
    <contour>
      <point x="238" y="489" type="curve" smooth="yes"/>
      <point x="163" y="489"/>
      <point x="100" y="548"/>
      <point x="100" y="623" type="curve" smooth="yes"/>
      <point x="100" y="696"/>
      <point x="163" y="756"/>
      <point x="238" y="756" type="curve" smooth="yes"/>
      <point x="311" y="756"/>
      <point x="372" y="696"/>
      <point x="372" y="623" type="curve" smooth="yes"/>
      <point x="372" y="548"/>
      <point x="311" y="489"/>
    </contour>
  </outline>
</glyph>
<glyph name="cedilla" format="1">
  <advance width="522"/>
  <unicode hex="00B8"/>
  <outline>
    <contour>
      <point x="125" y="-490"/>
      <point x="41" y="-439"/>
      <point x="41" y="-439" type="curve"/>
      <point x="56" y="-390" type="line"/>
      <point x="93" y="-390" type="line"/>
      <point x="121" y="-421"/>
      <point x="171" y="-438"/>
      <point x="241" y="-438" type="curve" smooth="yes"/>
      <point x="308" y="-438"/>
      <point x="402" y="-411"/>
      <point x="402" y="-288" type="curve" smooth="yes"/>
      <point x="402" y="-241"/>
      <point x="375" y="-180"/>
      <point x="296" y="-180" type="curve" smooth="yes"/>
      <point x="247" y="-180"/>
      <point x="216" y="-206"/>
      <point x="216" y="-206" type="curve"/>
      <point x="199" y="-201"/>
      <point x="170" y="-191"/>
      <point x="170" y="-191" type="curve"/>
      <point x="230" y="2" type="line"/>
      <point x="287" y="2" type="line"/>
      <point x="237" y="-142" type="line"/>
      <point x="261" y="-134"/>
      <point x="285" y="-131"/>
      <point x="307" y="-131" type="curve" smooth="yes"/>
      <point x="402" y="-131"/>
      <point x="471" y="-205"/>
      <point x="471" y="-286" type="curve" smooth="yes"/>
      <point x="471" y="-380"/>
      <point x="427" y="-490"/>
      <point x="230" y="-490" type="curve" smooth="yes"/>
    </contour>
  </outline>
</glyph>
<glyph name="ordmasculine" format="1">
  <advance width="868"/>
  <unicode hex="00ba"/>
  <outline>
    <contour>
      <point x="434" y="644" type="curve" smooth="yes"/>
      <point x="229" y="644"/>
      <point x="97" y="783"/>
      <point x="97" y="1037" type="curve" smooth="yes"/>
      <point x="97" y="1294"/>
      <point x="233" y="1428"/>
      <point x="434" y="1428" type="curve" smooth="yes"/>
      <point x="640" y="1428"/>
      <point x="770" y="1294"/>
      <point x="770" y="1037" type="curve" smooth="yes"/>
      <point x="770" y="783"/>
      <point x="640" y="644"/>
    </contour>
    <contour>
      <point x="434" y="762" type="curve" smooth="yes"/>
      <point x="581" y="762"/>
      <point x="652" y="833"/>
      <point x="652" y="1037" type="curve" smooth="yes"/>
      <point x="652" y="1261"/>
      <point x="579" y="1331"/>
      <point x="434" y="1331" type="curve" smooth="yes"/>
      <point x="309" y="1331"/>
      <point x="211" y="1288"/>
      <point x="211" y="1037" type="curve" smooth="yes"/>
      <point x="211" y="817"/>
      <point x="283" y="762"/>
    </contour>
  </outline>
</glyph>
<glyph name="guillemotright" format="1">
  <advance width="950"/>
  <unicode hex="00BB"/>
  <outline>
    <contour>
      <point x="425" y="183" type="curve"/>
      <point x="425" y="325" type="line"/>
      <point x="836" y="602" type="line"/>
      <point x="836" y="602"/>
      <point x="474" y="853"/>
      <point x="425" y="882" type="curve"/>
      <point x="425" y="996" type="line"/>
      <point x="425" y="996"/>
      <point x="715" y="785"/>
      <point x="898" y="648" type="curve"/>
      <point x="898" y="544" type="line"/>
      <point x="713" y="391"/>
      <point x="425" y="183"/>
    </contour>
    <contour>
      <point x="65" y="183" type="curve"/>
      <point x="65" y="325" type="line"/>
      <point x="478" y="602" type="line"/>
      <point x="478" y="602"/>
      <point x="114" y="854"/>
      <point x="65" y="883" type="curve"/>
      <point x="65" y="996" type="line"/>
      <point x="65" y="996"/>
      <point x="358" y="785"/>
      <point x="541" y="648" type="curve"/>
      <point x="541" y="544" type="line"/>
      <point x="356" y="391"/>
      <point x="65" y="183"/>
    </contour>
  </outline>
</glyph>
<glyph name="onequarter" format="1">
  <advance width="1302"/>
  <unicode hex="00bc"/>
  <outline>
    <contour>
      <point x="-49" y="552" type="line" smooth="no"/>
      <point x="-49" y="653" type="line" smooth="no"/>
      <point x="92" y="653" type="line" smooth="no"/>
      <point x="92" y="1240" type="line" smooth="no"/>
      <point x="-63" y="1194" type="line" smooth="no"/>
      <point x="-63" y="1277" type="line" smooth="no"/>
      <point x="18" y="1296"/>
      <point x="55" y="1332"/>
      <point x="76" y="1373" type="curve" smooth="no"/>
      <point x="226" y="1373" type="line" smooth="no"/>
      <point x="226" y="653" type="line" smooth="no"/>
      <point x="366" y="653" type="line" smooth="no"/>
      <point x="366" y="552" type="line" smooth="no"/>
    </contour>
    <contour>
      <point x="845" y="224" type="line" smooth="no"/>
      <point x="1137" y="224" type="line" smooth="no"/>
      <point x="1137" y="728" type="line" smooth="no"/>
    </contour>
    <contour>
      <point x="217" y="0" type="line" smooth="no"/>
      <point x="1049" y="1428" type="line" smooth="no"/>
      <point x="1176" y="1428" type="line" smooth="no"/>
      <point x="344" y="0" type="line" smooth="no"/>
    </contour>
    <contour>
      <point x="1137" y="0" type="line" smooth="no"/>
      <point x="1137" y="120" type="line" smooth="no"/>
      <point x="727" y="120" type="line" smooth="no"/>
      <point x="727" y="224" type="line" smooth="no"/>
      <point x="1073" y="817" type="line" smooth="no"/>
      <point x="1244" y="817" type="line" smooth="no"/>
      <point x="1244" y="224" type="line" smooth="no"/>
      <point x="1332" y="224" type="line" smooth="no"/>
      <point x="1332" y="120" type="line" smooth="no"/>
      <point x="1244" y="120" type="line" smooth="no"/>
      <point x="1244" y="0" type="line" smooth="no"/>
    </contour>
  </outline>
</glyph>
<glyph name="onehalf" format="1">
  <advance width="1554"/>
  <unicode hex="00bd"/>
  <outline>
    <contour>
      <point x="34" y="552" type="line" smooth="no"/>
      <point x="34" y="653" type="line" smooth="no"/>
      <point x="175" y="653" type="line" smooth="no"/>
      <point x="175" y="1240" type="line" smooth="no"/>
      <point x="20" y="1194" type="line" smooth="no"/>
      <point x="20" y="1277" type="line" smooth="no"/>
      <point x="101" y="1296"/>
      <point x="138" y="1332"/>
      <point x="159" y="1373" type="curve" smooth="no"/>
      <point x="309" y="1373" type="line" smooth="no"/>
      <point x="309" y="653" type="line" smooth="no"/>
      <point x="449" y="653" type="line" smooth="no"/>
      <point x="449" y="552" type="line" smooth="no"/>
    </contour>
    <contour>
      <point x="936" y="0" type="line" smooth="no"/>
      <point x="936" y="98" type="line" smooth="no"/>
      <point x="1100" y="258"/>
      <point x="1301" y="475"/>
      <point x="1301" y="601" type="curve" smooth="yes"/>
      <point x="1301" y="681"/>
      <point x="1269" y="727"/>
      <point x="1155" y="727" type="curve" smooth="yes"/>
      <point x="1099" y="727"/>
      <point x="1003" y="689"/>
      <point x="972" y="661" type="curve" smooth="no"/>
      <point x="948" y="755" type="line" smooth="no"/>
      <point x="984" y="791"/>
      <point x="1093" y="829"/>
      <point x="1175" y="829" type="curve" smooth="yes"/>
      <point x="1334" y="829"/>
      <point x="1418" y="741"/>
      <point x="1418" y="603" type="curve" smooth="yes"/>
      <point x="1418" y="442"/>
      <point x="1282" y="294"/>
      <point x="1086" y="100" type="curve" smooth="no"/>
      <point x="1421" y="100" type="line" smooth="no"/>
      <point x="1421" y="0" type="line" smooth="no"/>
    </contour>
    <contour>
      <point x="271" y="0" type="line" smooth="no"/>
      <point x="1103" y="1428" type="line" smooth="no"/>
      <point x="1230" y="1428" type="line" smooth="no"/>
      <point x="398" y="0" type="line" smooth="no"/>
    </contour>
  </outline>
</glyph>
<glyph name="threequarters" format="1">
  <advance width="1376"/>
  <unicode hex="00be"/>
  <outline>
    <contour>
      <point x="274" y="544" type="curve" smooth="yes"/>
      <point x="152" y="544"/>
      <point x="63" y="584"/>
      <point x="30" y="607" type="curve" smooth="no"/>
      <point x="30" y="704" type="line" smooth="no"/>
      <point x="63" y="704" type="line" smooth="no"/>
      <point x="63" y="704"/>
      <point x="112" y="645"/>
      <point x="260" y="645" type="curve" smooth="yes"/>
      <point x="385" y="645"/>
      <point x="457" y="695"/>
      <point x="457" y="784" type="curve" smooth="yes"/>
      <point x="457" y="860"/>
      <point x="396" y="949"/>
      <point x="241" y="949" type="curve" smooth="yes"/>
      <point x="175" y="949" type="line" smooth="no"/>
      <point x="175" y="1032" type="line" smooth="no"/>
      <point x="241" y="1032" type="line" smooth="yes"/>
      <point x="383" y="1032"/>
      <point x="425" y="1091"/>
      <point x="425" y="1167" type="curve" smooth="yes"/>
      <point x="425" y="1234"/>
      <point x="370" y="1279"/>
      <point x="255" y="1279" type="curve" smooth="yes"/>
      <point x="132" y="1279"/>
      <point x="63" y="1226"/>
      <point x="63" y="1226" type="curve" smooth="no"/>
      <point x="30" y="1226" type="line" smooth="no"/>
      <point x="30" y="1321" type="line" smooth="no"/>
      <point x="80" y="1357"/>
      <point x="174" y="1381"/>
      <point x="269" y="1381" type="curve" smooth="yes"/>
      <point x="471" y="1381"/>
      <point x="558" y="1279"/>
      <point x="558" y="1167" type="curve" smooth="yes"/>
      <point x="558" y="1063"/>
      <point x="492" y="1018"/>
      <point x="425" y="988" type="curve" smooth="no"/>
      <point x="500" y="965"/>
      <point x="586" y="894"/>
      <point x="586" y="784" type="curve" smooth="yes"/>
      <point x="586" y="643"/>
      <point x="471" y="544"/>
    </contour>
    <contour>
      <point x="916" y="224" type="line" smooth="no"/>
      <point x="1207" y="224" type="line" smooth="no"/>
      <point x="1207" y="728" type="line" smooth="no"/>
    </contour>
    <contour>
      <point x="288" y="0" type="line" smooth="no"/>
      <point x="1121" y="1428" type="line" smooth="no"/>
      <point x="1247" y="1428" type="line" smooth="no"/>
      <point x="416" y="0" type="line" smooth="no"/>
    </contour>
    <contour>
      <point x="1207" y="0" type="line" smooth="no"/>
      <point x="1207" y="120" type="line" smooth="no"/>
      <point x="798" y="120" type="line" smooth="no"/>
      <point x="798" y="224" type="line" smooth="no"/>
      <point x="1145" y="817" type="line" smooth="no"/>
      <point x="1314" y="817" type="line" smooth="no"/>
      <point x="1314" y="224" type="line" smooth="no"/>
      <point x="1401" y="224" type="line" smooth="no"/>
      <point x="1401" y="120" type="line" smooth="no"/>
      <point x="1314" y="120" type="line" smooth="no"/>
      <point x="1314" y="0" type="line" smooth="no"/>
    </contour>
  </outline>
</glyph>
<glyph name="questiondown" format="1">
  <advance width="980"/>
  <unicode hex="00bf"/>
  <outline>
    <contour>
      <point x="723" y="1046" type="curve" smooth="yes"/>
      <point x="792" y="1046"/>
      <point x="851" y="991"/>
      <point x="851" y="922" type="curve" smooth="yes"/>
      <point x="851" y="852"/>
      <point x="792" y="794"/>
      <point x="723" y="794" type="curve" smooth="yes"/>
      <point x="653" y="794"/>
      <point x="601" y="852"/>
      <point x="601" y="922" type="curve" smooth="yes"/>
      <point x="601" y="991"/>
      <point x="653" y="1046"/>
    </contour>
    <contour>
      <point x="747" y="624" type="curve" smooth="no"/>
      <point x="793" y="599" type="line" smooth="no"/>
      <point x="634" y="374"/>
      <point x="368" y="40"/>
      <point x="368" y="-154" type="curve" smooth="yes"/>
      <point x="368" y="-245"/>
      <point x="410" y="-355"/>
      <point x="606" y="-355" type="curve" smooth="yes"/>
      <point x="738" y="-355"/>
      <point x="854" y="-319"/>
      <point x="988" y="-237" type="curve" smooth="no"/>
      <point x="988" y="-337" type="line" smooth="no"/>
      <point x="929" y="-373"/>
      <point x="784" y="-454"/>
      <point x="607" y="-454" type="curve" smooth="yes"/>
      <point x="369" y="-454"/>
      <point x="267" y="-307"/>
      <point x="267" y="-159" type="curve" smooth="yes"/>
      <point x="267" y="91"/>
      <point x="545" y="411"/>
    </contour>
  </outline>
</glyph>
<glyph name="AE" format="1">
  <advance width="1801"/>
  <unicode hex="00c6"/>
  <outline>
    <contour>
      <point x="428" y="461" type="line" smooth="no"/>
      <point x="973" y="461" type="line" smooth="no"/>
      <point x="973" y="1341" type="line" smooth="no"/>
    </contour>
    <contour>
      <point x="-19" y="0" type="line" smooth="no"/>
      <point x="939" y="1481" type="line" smooth="no"/>
      <point x="1658" y="1481" type="line" smooth="no"/>
      <point x="1658" y="1386" type="line" smooth="no"/>
      <point x="1099" y="1386" type="line" smooth="no"/>
      <point x="1099" y="826" type="line" smooth="no"/>
      <point x="1576" y="826" type="line" smooth="no"/>
      <point x="1576" y="731" type="line" smooth="no"/>
      <point x="1099" y="731" type="line" smooth="no"/>
      <point x="1099" y="95" type="line" smooth="no"/>
      <point x="1655" y="95" type="line" smooth="no"/>
      <point x="1655" y="0" type="line" smooth="no"/>
      <point x="973" y="0" type="line" smooth="no"/>
      <point x="973" y="367" type="line" smooth="no"/>
      <point x="361" y="367" type="line" smooth="no"/>
      <point x="125" y="0" type="line" smooth="no"/>
    </contour>
  </outline>
</glyph>
<glyph name="Eth" format="1">
  <advance width="1554"/>
  <unicode hex="00d0"/>
  <outline>
    <contour>
      <point x="253" y="95" type="line" smooth="no"/>
      <point x="550" y="95" type="line" smooth="yes"/>
      <point x="949" y="95"/>
      <point x="1170" y="305"/>
      <point x="1170" y="740" type="curve" smooth="yes"/>
      <point x="1170" y="1153"/>
      <point x="966" y="1381"/>
      <point x="547" y="1381" type="curve" smooth="yes"/>
      <point x="253" y="1381" type="line" smooth="no"/>
      <point x="253" y="803" type="line" smooth="no"/>
      <point x="660" y="803" type="line" smooth="no"/>
      <point x="660" y="706" type="line" smooth="no"/>
      <point x="253" y="706" type="line" smooth="no"/>
    </contour>
    <contour>
      <point x="0" y="706" type="line" smooth="no"/>
      <point x="0" y="803" type="line" smooth="no"/>
      <point x="124" y="803" type="line" smooth="no"/>
      <point x="124" y="1481" type="line" smooth="no"/>
      <point x="545" y="1481" type="line" smooth="yes"/>
      <point x="1016" y="1481"/>
      <point x="1299" y="1234"/>
      <point x="1299" y="740" type="curve" smooth="yes"/>
      <point x="1299" y="266"/>
      <point x="1085" y="0"/>
      <point x="532" y="0" type="curve" smooth="yes"/>
      <point x="124" y="0" type="line" smooth="no"/>
      <point x="124" y="706" type="line" smooth="no"/>
    </contour>
  </outline>
</glyph>
<glyph name="multiply" format="1">
  <advance width="1064"/>
  <unicode hex="00d7"/>
  <outline>
    <contour>
      <point x="189" y="40" type="line" smooth="no"/>
      <point x="83" y="145" type="line" smooth="no"/>
      <point x="428" y="486" type="line" smooth="no"/>
      <point x="83" y="828" type="line" smooth="no"/>
      <point x="189" y="935" type="line" smooth="no"/>
      <point x="531" y="592" type="line" smooth="no"/>
      <point x="871" y="935" type="line" smooth="no"/>
      <point x="978" y="828" type="line" smooth="no"/>
      <point x="635" y="486" type="line" smooth="no"/>
      <point x="978" y="145" type="line" smooth="no"/>
      <point x="871" y="40" type="line" smooth="no"/>
      <point x="531" y="384" type="line" smooth="no"/>
    </contour>
  </outline>
</glyph>
<glyph name="Oslash" format="1">
  <advance width="1578"/>
  <unicode hex="00D8"/>
  <outline>
    <contour>
      <point x="229" y="0" type="line"/>
      <point x="85" y="0" type="line"/>
      <point x="1313" y="1481" type="line"/>
      <point x="1460" y="1481" type="line"/>
    </contour>
    <component base="O"/>
  </outline>
</glyph>
<glyph name="germandbls" format="1">
  <advance width="1237"/>
  <unicode hex="00DF"/>
  <outline>
    <contour>
      <point x="125" y="0" type="line"/>
      <point x="125" y="1034" type="line" smooth="yes"/>
      <point x="125" y="1334"/>
      <point x="277" y="1503"/>
      <point x="587" y="1503" type="curve" smooth="yes"/>
      <point x="778" y="1503"/>
      <point x="984" y="1393"/>
      <point x="984" y="1195" type="curve" smooth="yes"/>
      <point x="984" y="1054"/>
      <point x="917" y="954"/>
      <point x="756" y="917" type="curve"/>
      <point x="1037" y="859"/>
      <point x="1153" y="670"/>
      <point x="1153" y="438" type="curve" smooth="yes"/>
      <point x="1153" y="244"/>
      <point x="1019" y="0"/>
      <point x="594" y="0" type="curve" smooth="yes"/>
      <point x="579" y="0"/>
      <point x="423" y="0"/>
      <point x="423" y="0" type="curve"/>
      <point x="423" y="84" type="line"/>
      <point x="423" y="84"/>
      <point x="574" y="84"/>
      <point x="595" y="84" type="curve" smooth="yes"/>
      <point x="901" y="84"/>
      <point x="1033" y="267"/>
      <point x="1033" y="450" type="curve" smooth="yes"/>
      <point x="1033" y="668"/>
      <point x="886" y="870"/>
      <point x="539" y="870" type="curve"/>
      <point x="539" y="954" type="line"/>
      <point x="805" y="954"/>
      <point x="868" y="1059"/>
      <point x="868" y="1175" type="curve" smooth="yes"/>
      <point x="868.0" y="1289.30724536"/>
      <point x="765.470389484" y="1409.0"/>
      <point x="573" y="1409" type="curve" smooth="yes"/>
      <point x="421" y="1409"/>
      <point x="253" y="1332"/>
      <point x="253" y="1055" type="curve" smooth="yes"/>
      <point x="253" y="0" type="line"/>
    </contour>
  </outline>
</glyph>
<glyph name="ae" format="1">
  <advance width="1758"/>
  <unicode hex="00E6"/>
  <outline>
    <contour>
      <point x="896" y="604" type="curve"/>
      <point x="1545" y="604" type="line"/>
      <point x="1542" y="786"/>
      <point x="1454" y="956"/>
      <point x="1229" y="956" type="curve" smooth="yes"/>
      <point x="1003" y="956"/>
      <point x="903" y="754"/>
    </contour>
    <contour>
      <point x="405.0" y="82.0" type="curve" smooth="yes"/>
      <point x="691.0" y="82.0"/>
      <point x="773" y="203"/>
      <point x="778" y="520" type="curve"/>
      <point x="201" y="520"/>
      <point x="195" y="387"/>
      <point x="195" y="272" type="curve" smooth="yes"/>
      <point x="195" y="126"/>
      <point x="289.0" y="82.0"/>
    </contour>
    <contour>
      <point x="400.0" y="-19.0" type="curve" smooth="yes"/>
      <point x="283.0" y="-19.0"/>
      <point x="80" y="25"/>
      <point x="80" y="283" type="curve" smooth="yes"/>
      <point x="80" y="426"/>
      <point x="127" y="551"/>
      <point x="512" y="592" type="curve"/>
      <point x="601" y="600"/>
      <point x="617" y="604"/>
      <point x="779" y="604" type="curve"/>
      <point x="779" y="747"/>
      <point x="765" y="956"/>
      <point x="500" y="956" type="curve" smooth="yes"/>
      <point x="365" y="956"/>
      <point x="257" y="929"/>
      <point x="162" y="886" type="curve"/>
      <point x="139.0" y="987.0" type="line"/>
      <point x="206.0" y="1033.0"/>
      <point x="377" y="1057"/>
      <point x="481" y="1057" type="curve" smooth="yes"/>
      <point x="656" y="1057"/>
      <point x="833" y="1008"/>
      <point x="861" y="803" type="curve"/>
      <point x="903" y="968"/>
      <point x="1089" y="1057"/>
      <point x="1211" y="1057" type="curve" smooth="yes"/>
      <point x="1526" y="1057"/>
      <point x="1655" y="835"/>
      <point x="1655" y="534" type="curve" smooth="yes"/>
      <point x="1655" y="520" type="line"/>
      <point x="891" y="520" type="line"/>
      <point x="884" y="318"/>
      <point x="1016" y="82"/>
      <point x="1261" y="82" type="curve" smooth="yes"/>
      <point x="1435" y="82"/>
      <point x="1540.0" y="166.0"/>
      <point x="1586.0" y="208.0" type="curve"/>
      <point x="1628.0" y="102.0" type="line"/>
      <point x="1544.0" y="47.0"/>
      <point x="1444" y="-19"/>
      <point x="1262" y="-19" type="curve" smooth="yes"/>
      <point x="1006" y="-19"/>
      <point x="884" y="147"/>
      <point x="845" y="274" type="curve"/>
      <point x="811" y="103"/>
      <point x="647.0" y="-19.0"/>
    </contour>
  </outline>
</glyph>
<glyph name="divide" format="1">
  <advance width="1017"/>
  <unicode hex="00f7"/>
  <outline>
    <contour>
      <point x="481" y="654" type="curve" smooth="yes"/>
      <point x="420" y="654"/>
      <point x="372" y="706"/>
      <point x="372" y="767" type="curve" smooth="yes"/>
      <point x="372" y="827"/>
      <point x="420" y="875"/>
      <point x="481" y="875" type="curve" smooth="yes"/>
      <point x="542" y="875"/>
      <point x="592" y="827"/>
      <point x="592" y="767" type="curve" smooth="yes"/>
      <point x="592" y="706"/>
      <point x="542" y="654"/>
    </contour>
    <contour>
      <point x="109" y="403" type="line" smooth="no"/>
      <point x="109" y="486" type="line" smooth="no"/>
      <point x="909" y="486" type="line" smooth="no"/>
      <point x="909" y="403" type="line" smooth="no"/>
    </contour>
    <contour>
      <point x="481" y="0" type="curve" smooth="yes"/>
      <point x="420" y="0"/>
      <point x="372" y="50"/>
      <point x="372" y="109" type="curve" smooth="yes"/>
      <point x="372" y="170"/>
      <point x="420" y="219"/>
      <point x="481" y="219" type="curve" smooth="yes"/>
      <point x="542" y="219"/>
      <point x="592" y="170"/>
      <point x="592" y="109" type="curve" smooth="yes"/>
      <point x="592" y="50"/>
      <point x="542" y="0"/>
    </contour>
  </outline>
</glyph>
<glyph name="oslash" format="1">
  <advance width="1197"/>
  <unicode hex="00F8"/>
  <outline>
    <contour>
      <point x="200" y="0" type="line"/>
      <point x="75" y="0" type="line"/>
      <point x="994" y="1032" type="line"/>
      <point x="1121" y="1032" type="line"/>
    </contour>
    <component base="o"/>
  </outline>
</glyph>
<glyph name="thorn" format="1">
  <advance width="1172"/>
  <unicode hex="00fe"/>
  <outline>
    <contour>
      <point x="611" y="78" type="curve" smooth="yes"/>
      <point x="799" y="78"/>
      <point x="946" y="199"/>
      <point x="946" y="508" type="curve" smooth="yes"/>
      <point x="946" y="723"/>
      <point x="927" y="942"/>
      <point x="647" y="942" type="curve" smooth="yes"/>
      <point x="534" y="942"/>
      <point x="361" y="893"/>
      <point x="274" y="757" type="curve" smooth="no"/>
      <point x="274" y="245" type="line" smooth="no"/>
      <point x="356" y="100"/>
      <point x="563" y="78"/>
    </contour>
    <contour>
      <point x="147" y="-386" type="line" smooth="no"/>
      <point x="147" y="1428" type="line" smooth="no"/>
      <point x="274" y="1428" type="line" smooth="no"/>
      <point x="274" y="847" type="line" smooth="no"/>
      <point x="356" y="982"/>
      <point x="474" y="1051"/>
      <point x="599" y="1051" type="curve" smooth="yes"/>
      <point x="869" y="1051"/>
      <point x="1073" y="876"/>
      <point x="1073" y="506" type="curve" smooth="yes"/>
      <point x="1073" y="156"/>
      <point x="872" y="-17"/>
      <point x="632" y="-17" type="curve" smooth="yes"/>
      <point x="499" y="-17"/>
      <point x="376" y="1"/>
      <point x="274" y="135" type="curve" smooth="no"/>
      <point x="274" y="-386" type="line" smooth="no"/>
    </contour>
  </outline>
</glyph>
<glyph name="Dcroat" format="1">
  <advance width="1374"/>
  <unicode hex="0110"/>
  <outline>
    <contour>
      <point x="124" y="0" type="line" smooth="no"/>
      <point x="124" y="1481" type="line" smooth="no"/>
      <point x="545" y="1481" type="line" smooth="yes"/>
      <point x="559" y="1481" type="line" smooth="no"/>
      <point x="583" y="1450" type="line" smooth="no"/>
      <point x="600" y="1450" type="line" smooth="no"/>
      <point x="625" y="1479" type="line" smooth="no"/>
      <point x="1048" y="1452"/>
      <point x="1299" y="1205"/>
      <point x="1299" y="740" type="curve" smooth="yes"/>
      <point x="1299" y="266"/>
      <point x="1085" y="0"/>
      <point x="532" y="0" type="curve" smooth="yes"/>
    </contour>
    <contour>
      <point x="253" y="95" type="line" smooth="no"/>
      <point x="550" y="95" type="line" smooth="yes"/>
      <point x="949" y="95"/>
      <point x="1170" y="305"/>
      <point x="1170" y="740" type="curve" smooth="yes"/>
      <point x="1170" y="1153"/>
      <point x="966" y="1381"/>
      <point x="547" y="1381" type="curve" smooth="yes"/>
      <point x="253" y="1381" type="line" smooth="no"/>
    </contour>
    <contour>
      <point x="559" y="1481" type="line" smooth="no"/>
      <point x="581" y="1481"/>
      <point x="603" y="1480"/>
      <point x="625" y="1479" type="curve" smooth="no"/>
      <point x="902" y="1793" type="line" smooth="no"/>
      <point x="858" y="1793" type="line" smooth="no"/>
      <point x="593" y="1517" type="line" smooth="no"/>
      <point x="374" y="1793" type="line" smooth="no"/>
      <point x="316" y="1793" type="line" smooth="no"/>
    </contour>
  </outline>
</glyph>
<glyph name="Hbar" format="1">
  <advance width="1319"/>
  <unicode hex="0126"/>
  <outline>
    <contour>
      <point x="124" y="0" type="line" smooth="no"/>
      <point x="124" y="1481" type="line" smooth="no"/>
      <point x="253" y="1481" type="line" smooth="no"/>
      <point x="253" y="808" type="line" smooth="no"/>
      <point x="1105" y="808" type="line" smooth="no"/>
      <point x="1105" y="1481" type="line" smooth="no"/>
      <point x="1234" y="1481" type="line" smooth="no"/>
      <point x="1234" y="0" type="line" smooth="no"/>
      <point x="1105" y="0" type="line" smooth="no"/>
      <point x="1105" y="721" type="line" smooth="no"/>
      <point x="253" y="721" type="line" smooth="no"/>
      <point x="253" y="0" type="line" smooth="no"/>
    </contour>
    <contour>
      <point x="308" y="1588" type="line" smooth="no"/>
      <point x="595" y="1930" type="line" smooth="no"/>
      <point x="696" y="1930" type="line" smooth="no"/>
      <point x="984" y="1588" type="line" smooth="no"/>
      <point x="875" y="1588" type="line" smooth="no"/>
      <point x="644" y="1848" type="line" smooth="no"/>
      <point x="415" y="1588" type="line" smooth="no"/>
    </contour>
  </outline>
</glyph>
<glyph name="hbar" format="1">
  <advance width="1133"/>
  <unicode hex="0127"/>
  <outline>
    <contour>
      <point x="126" y="0" type="line" smooth="no"/>
      <point x="126" y="1389" type="line" smooth="no"/>
      <point x="254" y="1389" type="line" smooth="no"/>
      <point x="254" y="854" type="line" smooth="no"/>
      <point x="358" y="986"/>
      <point x="524" y="1057"/>
      <point x="666" y="1057" type="curve" smooth="yes"/>
      <point x="885" y="1057"/>
      <point x="1030" y="933"/>
      <point x="1030" y="690" type="curve" smooth="yes"/>
      <point x="1030" y="0" type="line" smooth="no"/>
      <point x="902" y="0" type="line" smooth="no"/>
      <point x="902" y="752" type="line" smooth="yes"/>
      <point x="902" y="913"/>
      <point x="748" y="963"/>
      <point x="655" y="963" type="curve" smooth="yes"/>
      <point x="419" y="963"/>
      <point x="254" y="791"/>
      <point x="254" y="749" type="curve" smooth="yes"/>
      <point x="254" y="0" type="line" smooth="no"/>
    </contour>
    <contour>
      <point x="231" y="1456" type="line" smooth="no"/>
      <point x="518" y="1798" type="line" smooth="no"/>
      <point x="619" y="1798" type="line" smooth="no"/>
      <point x="907" y="1456" type="line" smooth="no"/>
      <point x="798" y="1456" type="line" smooth="no"/>
      <point x="567" y="1716" type="line" smooth="no"/>
      <point x="338" y="1456" type="line" smooth="no"/>
    </contour>
  </outline>
</glyph>
<glyph name="dotlessi" format="1">
  <advance width="500"/>
  <unicode hex="0131"/>
  <outline>
    <contour>
      <point x="181" y="0" type="line" smooth="no"/>
      <point x="181" y="1032" type="line" smooth="no"/>
      <point x="309" y="1032" type="line" smooth="no"/>
      <point x="309" y="0" type="line" smooth="no"/>
    </contour>
  </outline>
</glyph>
<glyph name="kgreenlandic" format="1">
  <advance width="1036"/>
  <unicode hex="0138"/>
  <outline>
    <contour>
      <point x="115" y="0" type="line" smooth="no"/>
      <point x="115.106" y="1032.01" type="line" smooth="no"/>
      <point x="243.106" y="1032.01" type="line" smooth="no"/>
      <point x="243" y="503" type="line" smooth="no"/>
      <point x="244" y="503" type="line" smooth="no"/>
      <point x="837" y="1032" type="line" smooth="no"/>
      <point x="990" y="1032" type="line" smooth="no"/>
      <point x="990" y="988" type="line" smooth="no"/>
      <point x="511" y="580" type="line" smooth="no"/>
      <point x="1037" y="42" type="line" smooth="no"/>
      <point x="1037" y="0" type="line" smooth="no"/>
      <point x="897" y="0" type="line" smooth="no"/>
      <point x="416" y="521" type="line" smooth="no"/>
      <point x="243" y="378" type="line" smooth="no"/>
      <point x="243" y="0" type="line" smooth="no"/>
    </contour>
  </outline>
</glyph>
<glyph name="Lslash" format="1">
  <advance width="1087"/>
  <unicode hex="0141"/>
  <outline>
    <contour>
      <point x="249" y="0" type="line" smooth="no"/>
      <point x="249" y="554" type="line" smooth="no"/>
      <point x="85" y="437" type="line" smooth="no"/>
      <point x="85" y="569" type="line" smooth="no"/>
      <point x="249" y="684" type="line" smooth="no"/>
      <point x="249" y="1481" type="line" smooth="no"/>
      <point x="375" y="1481" type="line" smooth="no"/>
      <point x="375" y="775" type="line" smooth="no"/>
      <point x="732" y="1033" type="line" smooth="no"/>
      <point x="732" y="902" type="line" smooth="no"/>
      <point x="375" y="645" type="line" smooth="no"/>
      <point x="375" y="95" type="line" smooth="no"/>
      <point x="1050" y="95" type="line" smooth="no"/>
      <point x="1050" y="0" type="line" smooth="no"/>
    </contour>
  </outline>
</glyph>
<glyph name="lslash" format="1">
  <advance width="549"/>
  <unicode hex="0142"/>
  <outline>
    <contour>
      <point x="436" y="-11" type="line" smooth="yes"/>
      <point x="191" y="-11"/>
      <point x="151" y="75"/>
      <point x="151" y="285" type="curve" smooth="yes"/>
      <point x="151" y="629" type="line" smooth="no"/>
      <point x="50" y="544" type="line" smooth="no"/>
      <point x="50" y="685" type="line" smooth="no"/>
      <point x="151" y="771" type="line" smooth="no"/>
      <point x="151" y="1428" type="line" smooth="no"/>
      <point x="280" y="1428" type="line" smooth="no"/>
      <point x="279" y="889" type="line" smooth="no"/>
      <point x="446" y="1034" type="line" smooth="no"/>
      <point x="446" y="892" type="line" smooth="no"/>
      <point x="279" y="746" type="line" smooth="no"/>
      <point x="279" y="319" type="line" smooth="yes"/>
      <point x="279" y="152"/>
      <point x="244" y="100"/>
      <point x="518" y="100" type="curve" smooth="no"/>
      <point x="518" y="-11" type="line" smooth="no"/>
    </contour>
  </outline>
</glyph>
<glyph name="oe" format="1">
  <advance width="1924"/>
  <unicode hex="0153"/>
  <outline>
    <contour>
      <point x="1656" y="-19"/>
      <point x="1777" y="80"/>
      <point x="1795" y="104" type="curve"/>
      <point x="1756" y="192" type="line"/>
      <point x="1756" y="192"/>
      <point x="1652" y="82"/>
      <point x="1429" y="82" type="curve" smooth="yes"/>
      <point x="1212" y="82"/>
      <point x="1086" y="239"/>
      <point x="1073" y="489" type="curve"/>
      <point x="1821" y="489" type="line"/>
      <point x="1821" y="501" type="line" smooth="yes"/>
      <point x="1821" y="775"/>
      <point x="1711" y="1057"/>
      <point x="1402" y="1057" type="curve" smooth="yes"/>
      <point x="1217" y="1057"/>
      <point x="1070" y="949"/>
      <point x="1007" y="759" type="curve"/>
      <point x="941" y="979"/>
      <point x="764" y="1057"/>
      <point x="585" y="1057" type="curve" smooth="yes"/>
      <point x="373" y="1057"/>
      <point x="105" y="924"/>
      <point x="105" y="524" type="curve" smooth="yes"/>
      <point x="105" y="122"/>
      <point x="357" y="-19"/>
      <point x="585" y="-19" type="curve" smooth="yes"/>
      <point x="760" y="-19"/>
      <point x="931" y="64"/>
      <point x="1000" y="277" type="curve"/>
      <point x="1065" y="75"/>
      <point x="1238" y="-19"/>
      <point x="1414" y="-19" type="curve" smooth="yes"/>
    </contour>
    <contour>
      <point x="343" y="82"/>
      <point x="226" y="274"/>
      <point x="226" y="525" type="curve" smooth="yes"/>
      <point x="226" y="791"/>
      <point x="385" y="956"/>
      <point x="585" y="956" type="curve" smooth="yes"/>
      <point x="808" y="956"/>
      <point x="942" y="789"/>
      <point x="942" y="527" type="curve" smooth="yes"/>
      <point x="942" y="285"/>
      <point x="823" y="82"/>
      <point x="586" y="82" type="curve" smooth="yes"/>
    </contour>
    <contour>
      <point x="1095" y="800"/>
      <point x="1211" y="956"/>
      <point x="1402" y="956" type="curve" smooth="yes"/>
      <point x="1648" y="956"/>
      <point x="1683" y="702"/>
      <point x="1688" y="578" type="curve"/>
      <point x="1076" y="578" type="line"/>
    </contour>
  </outline>
</glyph>
<glyph name="uni0237" format="1">
  <advance width="494"/>
  <unicode hex="0237"/>
  <outline>
    <contour>
      <point x="102" y="-368" type="curve" smooth="yes"/>
      <point x="0" y="-368"/>
      <point x="-10" y="-365"/>
      <point x="-40" y="-362" type="curve" smooth="no"/>
      <point x="-40" y="-247" type="line" smooth="no"/>
      <point x="-4" y="-250"/>
      <point x="2" y="-249"/>
      <point x="33" y="-249" type="curve" smooth="yes"/>
      <point x="135" y="-249"/>
      <point x="199" y="-237"/>
      <point x="199" y="-34" type="curve" smooth="yes"/>
      <point x="199" y="1028" type="line" smooth="no"/>
      <point x="326" y="1028" type="line" smooth="no"/>
      <point x="326" y="26" type="line" smooth="yes"/>
      <point x="326" y="-190"/>
      <point x="332" y="-368"/>
    </contour>
  </outline>
</glyph>
<glyph name="circumflex" format="1">
  <advance width="842"/>
  <unicode hex="02c6"/>
  <outline>
    <contour>
      <point x="83" y="1162" type="line" smooth="no"/>
      <point x="370" y="1504" type="line" smooth="no"/>
      <point x="471" y="1504" type="line" smooth="no"/>
      <point x="759" y="1162" type="line" smooth="no"/>
      <point x="650" y="1162" type="line" smooth="no"/>
      <point x="419" y="1422" type="line" smooth="no"/>
      <point x="190" y="1162" type="line" smooth="no"/>
    </contour>
  </outline>
</glyph>
<glyph name="caron" format="1">
  <advance width="842"/>
  <unicode hex="02c7"/>
  <outline>
    <contour>
      <point x="83" y="1504" type="line" smooth="no"/>
      <point x="190" y="1504" type="line" smooth="no"/>
      <point x="419" y="1244" type="line" smooth="no"/>
      <point x="650" y="1504" type="line" smooth="no"/>
      <point x="759" y="1504" type="line" smooth="no"/>
      <point x="471" y="1162" type="line" smooth="no"/>
      <point x="370" y="1162" type="line" smooth="no"/>
    </contour>
  </outline>
</glyph>
<glyph name="uni02C9" format="1">
  <advance width="1230"/>
  <unicode hex="02c9"/>
  <outline>
    <contour>
      <point x="353" y="1153" type="line" smooth="no"/>
      <point x="353" y="1244" type="line" smooth="no"/>
      <point x="880" y="1244" type="line" smooth="no"/>
      <point x="880" y="1153" type="line" smooth="no"/>
    </contour>
  </outline>
</glyph>
<glyph name="breve" format="1">
  <advance width="814"/>
  <unicode hex="02d8"/>
  <outline>
    <contour>
      <point x="408" y="1243" type="curve" smooth="yes"/>
      <point x="489" y="1243"/>
      <point x="569" y="1291"/>
      <point x="569" y="1382" type="curve" smooth="no"/>
      <point x="669" y="1382" type="line" smooth="no"/>
      <point x="669" y="1226"/>
      <point x="537" y="1147"/>
      <point x="408" y="1147" type="curve" smooth="yes"/>
      <point x="279" y="1147"/>
      <point x="147" y="1226"/>
      <point x="147" y="1382" type="curve" smooth="no"/>
      <point x="247" y="1382" type="line" smooth="no"/>
      <point x="247" y="1291"/>
      <point x="327" y="1243"/>
    </contour>
  </outline>
</glyph>
<glyph name="dotaccent" format="1">
  <advance width="429"/>
  <unicode hex="02d9"/>
  <outline>
    <contour>
      <point x="321" y="2018" type="curve" smooth="yes"/>
      <point x="246" y="2018"/>
      <point x="187" y="2078"/>
      <point x="187" y="2153" type="curve" smooth="yes"/>
      <point x="187" y="2227"/>
      <point x="246" y="2288"/>
      <point x="321" y="2288" type="curve" smooth="yes"/>
      <point x="395" y="2288"/>
      <point x="457" y="2227"/>
      <point x="457" y="2153" type="curve" smooth="yes"/>
      <point x="457" y="2078"/>
      <point x="395" y="2018"/>
    </contour>
  </outline>
</glyph>
<glyph name="ring" format="1">
  <advance width="416"/>
  <unicode hex="02da"/>
  <outline>
    <contour>
      <point x="201" y="1727" type="curve" smooth="yes"/>
      <point x="90" y="1727"/>
      <point x="4" y="1807"/>
      <point x="4" y="1910" type="curve" smooth="yes"/>
      <point x="4" y="2009"/>
      <point x="93" y="2089"/>
      <point x="201" y="2089" type="curve" smooth="yes"/>
      <point x="313" y="2089"/>
      <point x="400" y="2012"/>
      <point x="400" y="1908" type="curve" smooth="yes"/>
      <point x="400" y="1803"/>
      <point x="313" y="1727"/>
    </contour>
    <contour>
      <point x="201" y="1782" type="curve" smooth="yes"/>
      <point x="274" y="1782"/>
      <point x="322" y="1838"/>
      <point x="322" y="1906" type="curve" smooth="yes"/>
      <point x="322" y="1974"/>
      <point x="274" y="2033"/>
      <point x="201" y="2033" type="curve" smooth="yes"/>
      <point x="133" y="2033"/>
      <point x="82" y="1979"/>
      <point x="82" y="1906" type="curve" smooth="yes"/>
      <point x="82" y="1836"/>
      <point x="128" y="1782"/>
    </contour>
  </outline>
</glyph>
<glyph name="tilde" format="1">
  <advance width="772"/>
  <unicode hex="02DC"/>
  <outline>
    <contour>
      <point x="539" y="1932" type="curve" smooth="yes"/>
      <point x="424" y="1932"/>
      <point x="302" y="2013"/>
      <point x="235" y="2013" type="curve" smooth="yes"/>
      <point x="198" y="2013"/>
      <point x="184" y="1985"/>
      <point x="184" y="1934" type="curve"/>
      <point x="92" y="1934" type="line"/>
      <point x="92" y="2063"/>
      <point x="150" y="2103"/>
      <point x="241" y="2103" type="curve" smooth="yes"/>
      <point x="352" y="2103"/>
      <point x="474" y="2024"/>
      <point x="537" y="2024" type="curve" smooth="yes"/>
      <point x="574" y="2024"/>
      <point x="586" y="2047"/>
      <point x="586" y="2102" type="curve"/>
      <point x="682" y="2102" type="line"/>
      <point x="682" y="1965"/>
      <point x="623" y="1932"/>
    </contour>
  </outline>
</glyph>
<glyph name="hungarumlaut" format="1">
  <advance width="612"/>
  <unicode hex="02dd"/>
  <outline>
    <contour>
      <point x="16" y="1110" type="line" smooth="no"/>
      <point x="201" y="1452" type="line" smooth="no"/>
      <point x="344" y="1452" type="line" smooth="no"/>
      <point x="107" y="1110" type="line" smooth="no"/>
    </contour>
    <contour>
      <point x="250" y="1110" type="line" smooth="no"/>
      <point x="448" y="1452" type="line" smooth="no"/>
      <point x="628" y="1452" type="line" smooth="no"/>
      <point x="340" y="1110" type="line" smooth="no"/>
    </contour>
  </outline>
</glyph>
<glyph name="uni0307" format="1">
  <advance width="548"/>
  <unicode hex="0307"/>
  <outline>
    <contour>
      <point x="272" y="104" type="curve" smooth="yes"/>
      <point x="201" y="104"/>
      <point x="169" y="155"/>
      <point x="169" y="206" type="curve" smooth="yes"/>
      <point x="169" y="258"/>
      <point x="199" y="309"/>
      <point x="272" y="309" type="curve" smooth="yes"/>
      <point x="342" y="309"/>
      <point x="373" y="257"/>
      <point x="373" y="206" type="curve" smooth="yes"/>
      <point x="373" y="155"/>
      <point x="343" y="104"/>
    </contour>
  </outline>
</glyph>
<glyph name="uni030F" format="1">
  <advance width="612"/>
  <unicode hex="030F"/>
  <outline>
    <contour>
      <point x="612" y="1110" type="line"/>
      <point x="537" y="1110" type="line"/>
      <point x="294" y="1452" type="line"/>
      <point x="436" y="1452" type="line"/>
    </contour>
    <contour>
      <point x="378" y="1110" type="line"/>
      <point x="299" y="1110" type="line"/>
      <point x="22" y="1452" type="line"/>
      <point x="180" y="1452" type="line"/>
    </contour>
  </outline>
</glyph>
<glyph name="uni0311" format="1">
  <advance width="814"/>
  <unicode hex="0311"/>
  <outline>
    <contour>
      <point x="407" y="1286" type="curve" smooth="yes"/>
      <point x="326" y="1286"/>
      <point x="246" y="1238"/>
      <point x="246" y="1147" type="curve" smooth="no"/>
      <point x="146" y="1147" type="line" smooth="no"/>
      <point x="146" y="1303"/>
      <point x="278" y="1382"/>
      <point x="407" y="1382" type="curve" smooth="yes"/>
      <point x="536" y="1382"/>
      <point x="668" y="1303"/>
      <point x="668" y="1147" type="curve" smooth="no"/>
      <point x="568" y="1147" type="line" smooth="no"/>
      <point x="568" y="1238"/>
      <point x="488" y="1286"/>
    </contour>
  </outline>
</glyph>
<glyph name="uni0326" format="1">
  <advance width="470"/>
  <unicode hex="0326"/>
  <outline>
    <contour>
      <point x="102" y="-186" type="line" smooth="no"/>
      <point x="131" y="304" type="line" smooth="no"/>
      <point x="293" y="304" type="line" smooth="no"/>
      <point x="180" y="-186" type="line" smooth="no"/>
    </contour>
  </outline>
</glyph>
<glyph name="Delta" format="1">
  <advance width="1160"/>
  <unicode hex="0394"/>
  <outline>
    <contour>
      <point x="1075.0" y="0.0" type="line"/>
      <point x="1075" y="48" type="line"/>
      <point x="655" y="1368" type="line"/>
      <point x="520" y="1368" type="line"/>
      <point x="84" y="45" type="line"/>
      <point x="84.0" y="0.0" type="line"/>
    </contour>
    <contour>
      <point x="215" y="82"/>
      <point x="585" y="1279"/>
      <point x="585" y="1279" type="curve"/>
      <point x="591" y="1279" type="line"/>
      <point x="591" y="1279"/>
      <point x="941" y="82"/>
      <point x="941" y="82" type="curve"/>
      <point x="215" y="82" type="line"/>
    </contour>
  </outline>
</glyph>
<glyph name="endash" format="1">
  <advance width="1484"/>
  <unicode hex="2013"/>
  <outline>
    <contour>
      <point x="106" y="672" type="line" smooth="no"/>
      <point x="106" y="713" type="line" smooth="no"/>
      <point x="1378" y="713" type="line" smooth="no"/>
      <point x="1378" y="672" type="line" smooth="no"/>
    </contour>
  </outline>
</glyph>
<glyph name="emdash" format="1">
  <advance width="2129"/>
  <unicode hex="2014"/>
  <outline>
    <contour>
      <point x="106" y="672" type="line" smooth="no"/>
      <point x="106" y="713" type="line" smooth="no"/>
      <point x="2023" y="713" type="line" smooth="no"/>
      <point x="2023" y="672" type="line" smooth="no"/>
    </contour>
  </outline>
</glyph>
<glyph name="quoteleft" format="1">
  <advance width="352"/>
  <unicode hex="2018"/>
  <outline>
    <contour>
      <point x="210" y="1027" type="line" smooth="no"/>
      <point x="47" y="1481" type="line" smooth="no"/>
      <point x="205" y="1481" type="line" smooth="no"/>
      <point x="300" y="1027" type="line" smooth="no"/>
    </contour>
  </outline>
</glyph>
<glyph name="quoteright" format="1">
  <advance width="357"/>
  <unicode hex="2019"/>
  <outline>
    <contour>
      <point x="52" y="995" type="line" smooth="no"/>
      <point x="152" y="1481" type="line" smooth="no"/>
      <point x="311" y="1481" type="line" smooth="no"/>
      <point x="155" y="995" type="line" smooth="no"/>
    </contour>
  </outline>
</glyph>
<glyph name="quotesinglbase" format="1">
  <advance width="416"/>
  <unicode hex="201A"/>
  <outline>
    <contour>
      <point x="86" y="-245" type="line"/>
      <point x="183" y="241" type="line"/>
      <point x="373" y="241" type="line"/>
      <point x="184" y="-245" type="line"/>
    </contour>
  </outline>
</glyph>
<glyph name="quotedblleft" format="1">
  <advance width="655"/>
  <unicode hex="201c"/>
  <outline>
    <contour>
      <point x="505" y="1027" type="line" smooth="no"/>
      <point x="332" y="1481" type="line" smooth="no"/>
      <point x="490" y="1481" type="line" smooth="no"/>
      <point x="584" y="1027" type="line" smooth="no"/>
    </contour>
    <contour>
      <point x="226" y="1027" type="line" smooth="no"/>
      <point x="53" y="1481" type="line" smooth="no"/>
      <point x="210" y="1481" type="line" smooth="no"/>
      <point x="306" y="1027" type="line" smooth="no"/>
    </contour>
  </outline>
</glyph>
<glyph name="quotedblright" format="1">
  <advance width="657"/>
  <unicode hex="201d"/>
  <outline>
    <contour>
      <point x="364" y="995" type="line" smooth="no"/>
      <point x="449" y="1481" type="line" smooth="no"/>
      <point x="610" y="1481" type="line" smooth="no"/>
      <point x="450" y="995" type="line" smooth="no"/>
    </contour>
    <contour>
      <point x="68" y="995" type="line" smooth="no"/>
      <point x="152" y="1481" type="line" smooth="no"/>
      <point x="311" y="1481" type="line" smooth="no"/>
      <point x="155" y="995" type="line" smooth="no"/>
    </contour>
  </outline>
</glyph>
<glyph name="quotedblbase" format="1">
  <advance width="844"/>
  <unicode hex="201E"/>
  <outline>
    <contour>
      <point x="446" y="-245" type="line"/>
      <point x="531" y="241" type="line"/>
      <point x="692" y="241" type="line"/>
      <point x="532" y="-245" type="line"/>
    </contour>
    <contour>
      <point x="150" y="-245" type="line"/>
      <point x="234" y="241" type="line"/>
      <point x="393" y="241" type="line"/>
      <point x="237" y="-245" type="line"/>
    </contour>
  </outline>
</glyph>
<glyph name="dagger" format="1">
  <advance width="1053"/>
  <unicode hex="2020"/>
  <outline>
    <contour>
      <point x="477" y="-48" type="line" smooth="no"/>
      <point x="477" y="907" type="line" smooth="no"/>
      <point x="94" y="907" type="line" smooth="no"/>
      <point x="94" y="980" type="line" smooth="no"/>
      <point x="481" y="980" type="line" smooth="no"/>
      <point x="481" y="1426" type="line" smooth="no"/>
      <point x="593" y="1426" type="line" smooth="no"/>
      <point x="593" y="978" type="line" smooth="no"/>
      <point x="959" y="978" type="line" smooth="no"/>
      <point x="959" y="903" type="line" smooth="no"/>
      <point x="590" y="903" type="line" smooth="no"/>
      <point x="590" y="-48" type="line" smooth="no"/>
    </contour>
  </outline>
</glyph>
<glyph name="bullet" format="1">
  <advance width="1061"/>
  <unicode hex="2022"/>
  <outline>
    <contour>
      <point x="534" y="219" type="curve" smooth="yes"/>
      <point x="278" y="219"/>
      <point x="95" y="405"/>
      <point x="95" y="651" type="curve" smooth="yes"/>
      <point x="95" y="895"/>
      <point x="281" y="1078"/>
      <point x="534" y="1078" type="curve" smooth="yes"/>
      <point x="788" y="1078"/>
      <point x="966" y="895"/>
      <point x="966" y="651" type="curve" smooth="yes"/>
      <point x="966" y="404"/>
      <point x="786" y="219"/>
    </contour>
  </outline>
</glyph>
<glyph name="ellipsis" format="1">
  <advance width="1418"/>
  <unicode hex="2026"/>
  <outline>
    <contour>
      <point x="1984" y="6" type="curve" smooth="yes"/>
      <point x="1912" y="6"/>
      <point x="1853" y="61"/>
      <point x="1853" y="133" type="curve" smooth="yes"/>
      <point x="1853" y="201"/>
      <point x="1912" y="258"/>
      <point x="1984" y="258" type="curve" smooth="yes"/>
      <point x="2053" y="258"/>
      <point x="2110" y="201"/>
      <point x="2110" y="133" type="curve" smooth="yes"/>
      <point x="2110" y="61"/>
      <point x="2053" y="6"/>
    </contour>
    <contour>
      <point x="717" y="6" type="curve" smooth="yes"/>
      <point x="645" y="6"/>
      <point x="586" y="61"/>
      <point x="586" y="133" type="curve" smooth="yes"/>
      <point x="586" y="201"/>
      <point x="645" y="258"/>
      <point x="717" y="258" type="curve" smooth="yes"/>
      <point x="786" y="258"/>
      <point x="843" y="201"/>
      <point x="843" y="133" type="curve" smooth="yes"/>
      <point x="843" y="61"/>
      <point x="786" y="6"/>
    </contour>
    <contour>
      <point x="-551" y="6" type="curve" smooth="yes"/>
      <point x="-623" y="6"/>
      <point x="-682" y="61"/>
      <point x="-682" y="133" type="curve" smooth="yes"/>
      <point x="-682" y="201"/>
      <point x="-623" y="258"/>
      <point x="-551" y="258" type="curve" smooth="yes"/>
      <point x="-482" y="258"/>
      <point x="-425" y="201"/>
      <point x="-425" y="133" type="curve" smooth="yes"/>
      <point x="-425" y="61"/>
      <point x="-482" y="6"/>
    </contour>
  </outline>
</glyph>
<glyph name="guilsinglleft" format="1">
  <advance width="516"/>
  <unicode hex="2039"/>
  <outline>
    <contour>
      <point x="514" y="183" type="line"/>
      <point x="514" y="183"/>
      <point x="100" y="457"/>
      <point x="-2" y="533" type="curve"/>
      <point x="-2" y="633" type="line"/>
      <point x="100" y="719"/>
      <point x="514" y="996"/>
      <point x="514" y="996" type="curve"/>
      <point x="514" y="856" type="line"/>
      <point x="52" y="577" type="line"/>
      <point x="106" y="548"/>
      <point x="470" y="319"/>
      <point x="514" y="298" type="curve"/>
    </contour>
  </outline>
</glyph>
<glyph name="guilsinglright" format="1">
  <advance width="683"/>
  <unicode hex="203A"/>
  <outline>
    <contour>
      <point x="87" y="183" type="curve"/>
      <point x="87" y="325" type="line"/>
      <point x="547" y="608" type="line"/>
      <point x="493" y="637"/>
      <point x="131" y="862"/>
      <point x="87" y="883" type="curve"/>
      <point x="87" y="996" type="line"/>
      <point x="87" y="996"/>
      <point x="501" y="724"/>
      <point x="603" y="648" type="curve"/>
      <point x="603" y="544" type="line"/>
      <point x="501" y="458"/>
      <point x="87" y="183"/>
    </contour>
  </outline>
</glyph>
<glyph name="fraction" format="1">
  <advance width="776"/>
  <unicode hex="2044"/>
  <outline>
    <contour>
      <point x="30" y="10" type="line" smooth="no"/>
      <point x="658" y="1450" type="line" smooth="no"/>
      <point x="746" y="1450" type="line" smooth="no"/>
      <point x="123" y="10" type="line" smooth="no"/>
    </contour>
  </outline>
</glyph>
<glyph name="Euro" format="1">
  <advance width="1312"/>
  <unicode hex="20ac"/>
  <outline>
    <contour>
      <point x="879" y="-23" type="curve" smooth="yes"/>
      <point x="491" y="-23"/>
      <point x="265" y="197"/>
      <point x="185" y="619" type="curve" smooth="no"/>
      <point x="20" y="619" type="line" smooth="no"/>
      <point x="43" y="706" type="line" smooth="no"/>
      <point x="188" y="706" type="line" smooth="no"/>
      <point x="186" y="737"/>
      <point x="187" y="762"/>
      <point x="187" y="778" type="curve" smooth="yes"/>
      <point x="187" y="801"/>
      <point x="188" y="813"/>
      <point x="188" y="819" type="curve" smooth="no"/>
      <point x="24" y="819" type="line" smooth="no"/>
      <point x="35" y="905" type="line" smooth="no"/>
      <point x="191" y="905" type="line" smooth="no"/>
      <point x="286" y="1333"/>
      <point x="549" y="1503"/>
      <point x="871" y="1503" type="curve" smooth="yes"/>
      <point x="1011" y="1503"/>
      <point x="1162" y="1473"/>
      <point x="1280" y="1353" type="curve" smooth="no"/>
      <point x="1280" y="1143" type="line" smooth="no"/>
      <point x="1231" y="1143" type="line" smooth="no"/>
      <point x="1168" y="1319"/>
      <point x="1045" y="1421"/>
      <point x="825" y="1421" type="curve" smooth="yes"/>
      <point x="657" y="1421"/>
      <point x="365" y="1335"/>
      <point x="304" y="905" type="curve" smooth="no"/>
      <point x="1097" y="905" type="line" smooth="no"/>
      <point x="1071" y="819" type="line" smooth="no"/>
      <point x="293" y="819" type="line" smooth="no"/>
      <point x="291" y="803"/>
      <point x="288" y="789"/>
      <point x="288" y="720" type="curve" smooth="yes"/>
      <point x="288" y="712"/>
      <point x="289" y="708"/>
      <point x="289" y="706" type="curve" smooth="no"/>
      <point x="1056" y="706" type="line" smooth="no"/>
      <point x="1032" y="619" type="line" smooth="no"/>
      <point x="296" y="619" type="line" smooth="no"/>
      <point x="339" y="321"/>
      <point x="525" y="82"/>
      <point x="842" y="82" type="curve" smooth="yes"/>
      <point x="942" y="82"/>
      <point x="1179" y="88"/>
      <point x="1204" y="336" type="curve" smooth="no"/>
      <point x="1280" y="336" type="line" smooth="no"/>
      <point x="1280" y="128" type="line" smooth="no"/>
      <point x="1153" y="-4"/>
      <point x="976" y="-23"/>
    </contour>
  </outline>
</glyph>
<glyph name="trademark" format="1">
  <advance width="1391"/>
  <unicode hex="2122"/>
  <outline>
    <contour>
      <point x="275" y="769" type="line" smooth="no"/>
      <point x="275" y="1416" type="line" smooth="no"/>
      <point x="86" y="1416" type="line" smooth="no"/>
      <point x="86" y="1481" type="line" smooth="no"/>
      <point x="540" y="1481" type="line" smooth="no"/>
      <point x="540" y="1416" type="line" smooth="no"/>
      <point x="351" y="1416" type="line" smooth="no"/>
      <point x="351" y="769" type="line" smooth="no"/>
    </contour>
    <contour>
      <point x="650" y="769" type="line" smooth="no"/>
      <point x="650" y="1481" type="line" smooth="no"/>
      <point x="782" y="1481" type="line" smooth="no"/>
      <point x="973" y="1006" type="line" smooth="no"/>
      <point x="1169" y="1481" type="line" smooth="no"/>
      <point x="1292" y="1481" type="line" smooth="no"/>
      <point x="1292" y="769" type="line" smooth="no"/>
      <point x="1201" y="769" type="line" smooth="no"/>
      <point x="1201" y="1380" type="line" smooth="no"/>
      <point x="1197" y="1380" type="line" smooth="no"/>
      <point x="999" y="918" type="line" smooth="no"/>
      <point x="943" y="918" type="line" smooth="no"/>
      <point x="737" y="1383" type="line" smooth="no"/>
      <point x="735" y="1383" type="line" smooth="no"/>
      <point x="735" y="769" type="line" smooth="no"/>
    </contour>
  </outline>
</glyph>
<glyph name="uni2206" format="1">
  <advance width="1100"/>
  <unicode hex="2206"/>
  <outline>
    <contour>
      <point x="871" y="249" type="line"/>
      <point x="553" y="1300" type="line"/>
      <point x="233" y="249" type="line"/>
    </contour>
    <contour>
      <point x="131" y="154" type="line"/>
      <point x="131" y="245" type="line"/>
      <point x="488" y="1376" type="line"/>
      <point x="616" y="1376" type="line"/>
      <point x="969" y="247" type="line"/>
      <point x="969" y="154" type="line"/>
    </contour>
  </outline>
</glyph>
<glyph name="product" format="1">
  <advance width="1258"/>
  <unicode hex="220f"/>
  <outline>
    <contour>
      <point x="106" y="-265" type="line" smooth="no"/>
      <point x="106" y="1428" type="line" smooth="no"/>
      <point x="1152" y="1428" type="line" smooth="no"/>
      <point x="1152" y="-265" type="line" smooth="no"/>
      <point x="1025" y="-265" type="line" smooth="no"/>
      <point x="1025" y="1372" type="line" smooth="no"/>
      <point x="232" y="1372" type="line" smooth="no"/>
      <point x="232" y="-265" type="line" smooth="no"/>
    </contour>
  </outline>
</glyph>
<glyph name="summation" format="1">
  <advance width="1092"/>
  <unicode hex="2211"/>
  <outline>
    <contour>
      <point x="90" y="0" type="line" smooth="no"/>
      <point x="90" y="23" type="line" smooth="no"/>
      <point x="650" y="739" type="line" smooth="no"/>
      <point x="113" y="1424" type="line" smooth="no"/>
      <point x="113" y="1481" type="line" smooth="no"/>
      <point x="964" y="1481" type="line" smooth="no"/>
      <point x="964" y="1421" type="line" smooth="no"/>
      <point x="190" y="1421" type="line" smooth="no"/>
      <point x="715" y="736" type="line" smooth="no"/>
      <point x="192" y="63" type="line" smooth="no"/>
      <point x="998" y="63" type="line" smooth="no"/>
      <point x="998" y="0" type="line" smooth="no"/>
    </contour>
  </outline>
</glyph>
<glyph name="minus" format="1">
  <advance width="1184"/>
  <unicode hex="2212"/>
  <outline>
    <contour>
      <point x="106" y="411" type="line" smooth="no"/>
      <point x="106" y="527" type="line" smooth="no"/>
      <point x="1078" y="527" type="line" smooth="no"/>
      <point x="1078" y="411" type="line" smooth="no"/>
    </contour>
  </outline>
</glyph>
<glyph name="uni2215" format="1">
  <advance width="-131"/>
  <unicode hex="2215"/>
  <outline>
    <contour>
      <point x="-385" y="0" type="line" smooth="no"/>
      <point x="69" y="1478" type="line" smooth="no"/>
      <point x="308" y="1478" type="line" smooth="no"/>
      <point x="-146" y="0" type="line" smooth="no"/>
    </contour>
  </outline>
</glyph>
<glyph name="radical" format="1">
  <advance width="1095"/>
  <unicode hex="221a"/>
  <outline>
    <contour>
      <point x="505" y="-100" type="line" smooth="no"/>
      <point x="292" y="700" type="line" smooth="no"/>
      <point x="48" y="664" type="line" smooth="no"/>
      <point x="35" y="771" type="line" smooth="no"/>
      <point x="356" y="813" type="line" smooth="no"/>
      <point x="525" y="173" type="line" smooth="no"/>
      <point x="540" y="128"/>
      <point x="583" y="-31"/>
      <point x="591" y="-76" type="curve" smooth="no"/>
      <point x="653" y="180" type="line" smooth="yes"/>
      <point x="744" y="552"/>
      <point x="850" y="1099"/>
      <point x="941" y="1471" type="curve" smooth="no"/>
      <point x="1064" y="1471" type="line" smooth="no"/>
      <point x="685" y="-100" type="line" smooth="no"/>
    </contour>
  </outline>
</glyph>
<glyph name="infinity" format="1">
  <advance width="1544"/>
  <unicode hex="221e"/>
  <outline>
    <contour>
      <point x="1169" y="299" type="curve" smooth="yes"/>
      <point x="1271" y="299"/>
      <point x="1370" y="382"/>
      <point x="1370" y="547" type="curve" smooth="yes"/>
      <point x="1370" y="718"/>
      <point x="1267" y="801"/>
      <point x="1165" y="801" type="curve" smooth="yes"/>
      <point x="1069" y="801"/>
      <point x="870" y="652"/>
      <point x="804" y="550" type="curve" smooth="no"/>
      <point x="887" y="429"/>
      <point x="1080" y="299"/>
    </contour>
    <contour>
      <point x="398" y="306" type="curve" smooth="yes"/>
      <point x="490" y="306"/>
      <point x="668" y="443"/>
      <point x="739" y="551" type="curve" smooth="no"/>
      <point x="667" y="666"/>
      <point x="491" y="807"/>
      <point x="393" y="807" type="curve" smooth="yes"/>
      <point x="291" y="807"/>
      <point x="190" y="701"/>
      <point x="190" y="556" type="curve" smooth="yes"/>
      <point x="190" y="407"/>
      <point x="296" y="306"/>
    </contour>
    <contour>
      <point x="1132" y="203" type="curve" smooth="yes"/>
      <point x="1001" y="203"/>
      <point x="875" y="341"/>
      <point x="773" y="495" type="curve" smooth="no"/>
      <point x="678" y="359"/>
      <point x="552" y="209"/>
      <point x="410" y="209" type="curve" smooth="yes"/>
      <point x="221" y="209"/>
      <point x="98" y="351"/>
      <point x="98" y="557" type="curve" smooth="yes"/>
      <point x="98" y="751"/>
      <point x="223" y="901"/>
      <point x="412" y="901" type="curve" smooth="yes"/>
      <point x="554" y="901"/>
      <point x="684" y="749"/>
      <point x="775" y="609" type="curve" smooth="no"/>
      <point x="864" y="736"/>
      <point x="989" y="897"/>
      <point x="1137" y="897" type="curve" smooth="yes"/>
      <point x="1330" y="897"/>
      <point x="1446" y="757"/>
      <point x="1446" y="550" type="curve" smooth="yes"/>
      <point x="1446" y="355"/>
      <point x="1313" y="203"/>
    </contour>
  </outline>
</glyph>
<glyph name="integral" format="1">
  <advance width="788"/>
  <unicode hex="222b"/>
  <outline>
    <contour>
      <point x="173" y="-408" type="curve" smooth="yes"/>
      <point x="116" y="-408"/>
      <point x="67" y="-397"/>
      <point x="32" y="-385" type="curve" smooth="no"/>
      <point x="25" y="-288" type="line" smooth="no"/>
      <point x="56" y="-301"/>
      <point x="124" y="-311"/>
      <point x="155" y="-311" type="curve" smooth="yes"/>
      <point x="241" y="-311"/>
      <point x="303" y="-275"/>
      <point x="303" y="2" type="curve" smooth="yes"/>
      <point x="303" y="1101" type="line" smooth="yes"/>
      <point x="303" y="1368"/>
      <point x="397" y="1515"/>
      <point x="622" y="1515" type="curve" smooth="yes"/>
      <point x="675" y="1515"/>
      <point x="722" y="1508"/>
      <point x="755" y="1498" type="curve" smooth="no"/>
      <point x="762" y="1417" type="line" smooth="no"/>
      <point x="732" y="1430"/>
      <point x="636" y="1439"/>
      <point x="605" y="1439" type="curve" smooth="yes"/>
      <point x="483" y="1439"/>
      <point x="443" y="1335"/>
      <point x="443" y="1110" type="curve" smooth="yes"/>
      <point x="443" y="-153" type="line" smooth="no"/>
      <point x="427" y="-281"/>
      <point x="341" y="-408"/>
    </contour>
  </outline>
</glyph>
<glyph name="approxequal" format="1">
  <advance width="1030"/>
  <unicode hex="2248"/>
  <outline>
    <contour>
      <point x="189" y="623" type="curve" smooth="no"/>
      <point x="83" y="643" type="line" smooth="no"/>
      <point x="106" y="815"/>
      <point x="162" y="858"/>
      <point x="322" y="858" type="curve" smooth="yes"/>
      <point x="399" y="858"/>
      <point x="473" y="828"/>
      <point x="542" y="788" type="curve" smooth="yes"/>
      <point x="605" y="752"/>
      <point x="740" y="730"/>
      <point x="706" y="728" type="curve" smooth="no"/>
      <point x="784" y="729"/>
      <point x="834" y="777"/>
      <point x="845" y="862" type="curve" smooth="no"/>
      <point x="948" y="841" type="line" smooth="no"/>
      <point x="925" y="674"/>
      <point x="874" y="625"/>
      <point x="716" y="625" type="curve" smooth="yes"/>
      <point x="649" y="625"/>
      <point x="576" y="651"/>
      <point x="484" y="705" type="curve" smooth="no"/>
      <point x="418" y="741"/>
      <point x="368" y="765"/>
      <point x="330" y="765" type="curve" smooth="yes"/>
      <point x="248" y="765"/>
      <point x="206" y="710"/>
    </contour>
    <contour>
      <point x="189" y="235" type="curve" smooth="no"/>
      <point x="83" y="257" type="line" smooth="no"/>
      <point x="106" y="430"/>
      <point x="162" y="478"/>
      <point x="321" y="478" type="curve" smooth="yes"/>
      <point x="400" y="478"/>
      <point x="471" y="445"/>
      <point x="542" y="406" type="curve" smooth="no"/>
      <point x="615" y="363"/>
      <point x="684" y="334"/>
      <point x="716" y="345" type="curve" smooth="no"/>
      <point x="789" y="355"/>
      <point x="836" y="397"/>
      <point x="845" y="480" type="curve" smooth="no"/>
      <point x="948" y="459" type="line" smooth="no"/>
      <point x="925" y="292"/>
      <point x="876" y="242"/>
      <point x="716" y="242" type="curve" smooth="yes"/>
      <point x="651" y="242"/>
      <point x="579" y="270"/>
      <point x="484" y="321" type="curve" smooth="yes"/>
      <point x="415" y="358"/>
      <point x="367" y="382"/>
      <point x="330" y="382" type="curve" smooth="yes"/>
      <point x="248" y="382"/>
      <point x="206" y="324"/>
    </contour>
  </outline>
</glyph>
<glyph name="notequal" format="1">
  <advance width="1105"/>
  <unicode hex="2260"/>
  <outline>
    <contour>
      <point x="229" y="28" type="line" smooth="no"/>
      <point x="384" y="322" type="line" smooth="no"/>
      <point x="107" y="322" type="line" smooth="no"/>
      <point x="91" y="379" type="line" smooth="no"/>
      <point x="416" y="379" type="line" smooth="no"/>
      <point x="583" y="712" type="line" smooth="no"/>
      <point x="107" y="712" type="line" smooth="no"/>
      <point x="107" y="772" type="line" smooth="no"/>
      <point x="605" y="772" type="line" smooth="no"/>
      <point x="757" y="1040" type="line" smooth="no"/>
      <point x="825" y="1051" type="line" smooth="no"/>
      <point x="677" y="772" type="line" smooth="no"/>
      <point x="1007" y="772" type="line" smooth="no"/>
      <point x="1007" y="712" type="line" smooth="no"/>
      <point x="662" y="712" type="line" smooth="no"/>
      <point x="491" y="379" type="line" smooth="no"/>
      <point x="990" y="379" type="line" smooth="no"/>
      <point x="1007" y="322" type="line" smooth="no"/>
      <point x="459" y="322" type="line" smooth="no"/>
      <point x="313" y="37" type="line" smooth="no"/>
    </contour>
  </outline>
</glyph>
<glyph name="lessequal" format="1">
  <advance width="1100"/>
  <unicode hex="2264"/>
  <outline>
    <contour>
      <point x="97" y="0" type="line" smooth="no"/>
      <point x="97" y="168" type="line" smooth="no"/>
      <point x="998" y="168" type="line" smooth="no"/>
      <point x="998" y="0" type="line" smooth="no"/>
    </contour>
    <contour>
      <point x="987" y="220" type="line" smooth="no"/>
      <point x="115" y="603" type="line" smooth="no"/>
      <point x="115" y="754" type="line" smooth="no"/>
      <point x="987" y="1149" type="line" smooth="no"/>
      <point x="987" y="957" type="line" smooth="no"/>
      <point x="326" y="679" type="line" smooth="no"/>
      <point x="987" y="410" type="line" smooth="no"/>
    </contour>
  </outline>
</glyph>
<glyph name="greaterequal" format="1">
  <advance width="1063"/>
  <unicode hex="2265"/>
  <outline>
    <contour>
      <point x="101" y="0" type="line" smooth="no"/>
      <point x="101" y="168" type="line" smooth="no"/>
      <point x="962" y="168" type="line" smooth="no"/>
      <point x="962" y="0" type="line" smooth="no"/>
    </contour>
    <contour>
      <point x="119" y="220" type="line" smooth="no"/>
      <point x="119" y="410" type="line" smooth="no"/>
      <point x="750" y="677" type="line" smooth="no"/>
      <point x="119" y="957" type="line" smooth="no"/>
      <point x="119" y="1149" type="line" smooth="no"/>
      <point x="951" y="751" type="line" smooth="no"/>
      <point x="951" y="603" type="line" smooth="no"/>
    </contour>
  </outline>
</glyph>
<glyph name="lozenge" format="1">
  <advance width="947"/>
  <unicode hex="25ca"/>
  <outline>
    <contour>
      <point x="472" y="26" type="line" smooth="no"/>
      <point x="472" y="20"/>
      <point x="801" y="664"/>
      <point x="801" y="667" type="curve" smooth="no"/>
      <point x="801" y="667"/>
      <point x="478" y="1316"/>
      <point x="477" y="1318" type="curve" smooth="no"/>
      <point x="477" y="1316"/>
      <point x="148" y="674"/>
      <point x="144" y="674" type="curve" smooth="no"/>
    </contour>
    <contour>
      <point x="439" y="-30" type="line" smooth="no"/>
      <point x="75" y="668" type="line" smooth="no"/>
      <point x="442" y="1371" type="line" smooth="no"/>
      <point x="520" y="1371" type="line" smooth="no"/>
      <point x="872" y="670" type="line" smooth="no"/>
      <point x="501" y="-30" type="line" smooth="no"/>
    </contour>
  </outline>
</glyph>
<glyph name="dblgravecmb" format="1">
  <advance width="610"/>
  <outline>
    <contour>
      <point x="543" y="1110" type="line"/>
      <point x="336" y="1452" type="line"/>
      <point x="482" y="1452" type="line"/>
      <point x="601" y="1110" type="line"/>
    </contour>
    <contour>
      <point x="332" y="1110" type="line"/>
      <point x="49" y="1452" type="line"/>
      <point x="221" y="1452" type="line"/>
      <point x="399" y="1110" type="line"/>
    </contour>
  </outline>
</glyph>
<glyph name="f_i" format="1">
  <advance width="1097"/>
  <outline>
    <contour>
      <point x="859" y="1221" type="curve" smooth="yes"/>
      <point x="788" y="1221"/>
      <point x="751" y="1272"/>
      <point x="751" y="1323" type="curve" smooth="yes"/>
      <point x="751" y="1375"/>
      <point x="785" y="1426"/>
      <point x="859" y="1426" type="curve" smooth="yes"/>
      <point x="929" y="1426"/>
      <point x="967" y="1374"/>
      <point x="967" y="1323" type="curve" smooth="yes"/>
      <point x="967" y="1272"/>
      <point x="930" y="1221"/>
    </contour>
    <contour>
      <point x="216" y="0" type="line" smooth="no"/>
      <point x="216" y="938" type="line" smooth="no"/>
      <point x="23" y="938" type="line" smooth="no"/>
      <point x="23" y="1028" type="line" smooth="no"/>
      <point x="216" y="1028" type="line" smooth="no"/>
      <point x="216" y="1064" type="line" smooth="yes"/>
      <point x="216" y="1313"/>
      <point x="271" y="1424"/>
      <point x="536" y="1424" type="curve" smooth="yes"/>
      <point x="611" y="1424"/>
      <point x="572" y="1420"/>
      <point x="625" y="1414" type="curve" smooth="no"/>
      <point x="625" y="1305" type="line" smooth="no"/>
      <point x="625" y="1305"/>
      <point x="575" y="1315"/>
      <point x="551" y="1315" type="curve" smooth="yes"/>
      <point x="387" y="1315"/>
      <point x="335" y="1277"/>
      <point x="335" y="1028" type="curve" smooth="no"/>
      <point x="912" y="1028" type="line" smooth="no"/>
      <point x="912" y="0" type="line" smooth="no"/>
      <point x="783" y="0" type="line" smooth="no"/>
      <point x="783" y="938" type="line" smooth="no"/>
      <point x="343" y="938" type="line" smooth="no"/>
      <point x="343" y="0" type="line" smooth="no"/>
    </contour>
  </outline>
</glyph>
<glyph name="one.superior" format="1">
  <advance width="592"/>
  <outline>
    <contour>
      <point x="99" y="552" type="line" smooth="no"/>
      <point x="99" y="653" type="line" smooth="no"/>
      <point x="240" y="653" type="line" smooth="no"/>
      <point x="240" y="1240" type="line" smooth="no"/>
      <point x="85" y="1194" type="line" smooth="no"/>
      <point x="85" y="1277" type="line" smooth="no"/>
      <point x="166" y="1296"/>
      <point x="203" y="1332"/>
      <point x="224" y="1373" type="curve" smooth="no"/>
      <point x="374" y="1373" type="line" smooth="no"/>
      <point x="374" y="653" type="line" smooth="no"/>
      <point x="514" y="653" type="line" smooth="no"/>
      <point x="514" y="552" type="line" smooth="no"/>
    </contour>
  </outline>
</glyph>
<glyph name="three.superior" format="1">
  <advance width="709"/>
  <outline>
    <contour>
      <point x="324" y="544" type="curve" smooth="yes"/>
      <point x="202" y="544"/>
      <point x="113" y="584"/>
      <point x="80" y="607" type="curve" smooth="no"/>
      <point x="80" y="704" type="line" smooth="no"/>
      <point x="113" y="704" type="line" smooth="no"/>
      <point x="113" y="704"/>
      <point x="162" y="645"/>
      <point x="310" y="645" type="curve" smooth="yes"/>
      <point x="435" y="645"/>
      <point x="507" y="695"/>
      <point x="507" y="784" type="curve" smooth="yes"/>
      <point x="507" y="860"/>
      <point x="446" y="949"/>
      <point x="291" y="949" type="curve" smooth="yes"/>
      <point x="225" y="949" type="line" smooth="no"/>
      <point x="225" y="1032" type="line" smooth="no"/>
      <point x="291" y="1032" type="line" smooth="yes"/>
      <point x="433" y="1032"/>
      <point x="475" y="1091"/>
      <point x="475" y="1167" type="curve" smooth="yes"/>
      <point x="475" y="1234"/>
      <point x="420" y="1279"/>
      <point x="305" y="1279" type="curve" smooth="yes"/>
      <point x="182" y="1279"/>
      <point x="113" y="1226"/>
      <point x="113" y="1226" type="curve" smooth="no"/>
      <point x="80" y="1226" type="line" smooth="no"/>
      <point x="80" y="1321" type="line" smooth="no"/>
      <point x="130" y="1357"/>
      <point x="224" y="1381"/>
      <point x="319" y="1381" type="curve" smooth="yes"/>
      <point x="521" y="1381"/>
      <point x="608" y="1279"/>
      <point x="608" y="1167" type="curve" smooth="yes"/>
      <point x="608" y="1063"/>
      <point x="542" y="1018"/>
      <point x="475" y="988" type="curve" smooth="no"/>
      <point x="550" y="965"/>
      <point x="636" y="894"/>
      <point x="636" y="784" type="curve" smooth="yes"/>
      <point x="636" y="643"/>
      <point x="521" y="544"/>
    </contour>
  </outline>
</glyph>
